<mxfile host="app.diagrams.net" modified="2021-12-20T08:27:46.287Z" agent="5.0 (X11; Linux x86_64) AppleWebKit/537.36 (KHTML, like Gecko) Chrome/96.0.4664.110 Safari/537.36" etag="WLi4phj7hta1CR6HxipW" version="16.0.0" type="github">
  <diagram id="IKA694hSoXZsjomGcI9N" name="Page-1">
    <mxGraphModel dx="1422" dy="905" grid="1" gridSize="10" guides="1" tooltips="1" connect="1" arrows="1" fold="1" page="1" pageScale="1" pageWidth="1200" pageHeight="1920" math="0" shadow="0">
      <root>
        <mxCell id="0" />
        <mxCell id="1" parent="0" />
        <mxCell id="nHE7ZVSHZ9PsHLewhO-p-3" value="" style="rounded=1;whiteSpace=wrap;html=1;" vertex="1" parent="1">
          <mxGeometry x="930" y="410" width="510" height="380" as="geometry" />
        </mxCell>
        <mxCell id="nHE7ZVSHZ9PsHLewhO-p-1" value="" style="shape=image;verticalLabelPosition=bottom;labelBackgroundColor=#ffffff;verticalAlign=top;aspect=fixed;imageAspect=0;image=data:image/png,iVBORw0KGgoAAAANSUhEUgAAAjoAAAIACAMAAAC8dzY5AAAABGdBTUEAALGPC/xhBQAAAAFzUkdCAK7OHOkAAALHUExURUdwTPz8/P////z8/Pz8/P7+/v////////////z8/Pz8/P////z8/P////39/f////z8/Pz8/P////////////////z8/Pz8/P////////////////z8/Pz8/Pz8/P////39/fz8/P////z8/P////39/f////////////z8/P////z8/P////39/f////39/f39/f////////z8/P39/fz8/Pz8/Pz8/P////z8/P////39/f////////7+/v////39/f////////////39/f////39/fz8/Pz8/Pz8/P39/fz8/Pz8/P////////////////////39/f39/f////////////39/f////////z8/P////////39/f39/f////39/f////39/f////////////////z8/Pz8/P////////////////////39/f39/f////////////7+/v////z8/P///1PB3lTB3v7//1bC3/z+/ljD3/r9/l7F4O/5/GfI4lXC3uT1+rrm8vf8/VzE4Nry+OL1+en3+2nJ4nPN5M3t9Zja6/j8/lvE4Nzy+H3Q5pDX6vL6/WvK46ff7vn9/tTv9+H0+avh72DG4XHM5P3+/3fO5crs9cPp87Lk8G/L48fr9GTH4ef2+qXf7mPH4arg78Lp89bw9/T7/bTk8YDS51fC32HG4XvQ5q/j8O75/PH6/ILS51rE39Du9obT6IjU6Ob2+oTT5+v4+1nD393z+XnP5XTN5Nfx97zn8qLd7YzW6cjr9a3i7/X7/W3K46Pe7Z/c7bfl8fv+/pLY6o7W6Zrb7Jzb7JbZ67/o87Xk8ZTZ63/R5l/F4JTY6uz4+77n8qHd7bjl8YvV6Z7c7PP7/cTq9M7t9mXI4XXN5WjJ4nbO5d/z+ZHX6svs9YrV6Or3+8bq9Kng7tLv9tjx94nU6IzV6ZzBoCcAAAB2dFJOUwDyCev6ogcBAv71FvYLkCPl9xogHQ3T3xA5NXDp+/0YlsI+/HmzW2lX0HLOBJ4TpahtSe6M2dbhf+dNvHwqiV65BnbwtkacxsjEk+/LD0A7Qi6DmSZkdK0SUeIwJ76xMYZjj0ssYETd+WZTHyXAhLBPM1WrzOPBbLv2AAAgAElEQVR42uxd+VdVxx0XCQqKLAoqIoooKriyVChuuDVqGz2Ke+NJQtRoU2Nt7Nz3Hj7WJwcUV1ZBRTYBWQR97BKkLgUk4BJF0VhrbKs9/SN6rJq4zJ3lrjj3fn5+c+f7nft5M991br9+OnTo+DDR323u7z18fDx2r3L+RF8NOTD1j4EBnztF2H3ru3nZnp277JxCPeeHjfpwF9veOSwgeP2eTY7gDXiN9tsVGbBtuv66pcECH3/v2SPGAyh+vTPCM3CY/Ye1z6z0t5viCBD4i+8Ej6n6mxdJm9DNyEV+CdeP5wW6fxAKDZ7s7ecFSGCzeNJQnQAC4TyHhDavMWaK08a+vdP3D1w+HNDAYem6sToNqOG+dhmghsOsYI+BfVOfoTt8B9ErBLx8N9rrZKCxIZfMcAQC4bJ8RZ9b7KEByxyE6gNCPIfojCDdcOa4AFGwjVjSh4zMkTtE8Ob/CFqtu+0kGDIhCIhHUMTuvrF/Bs50lUId/wE6M3Cm5EJbIBH2rO2v+kEV6iKVNpsm6+RAEsd/NJAQi5ZvUVObbeu9pNQm3FknCC/CQoDUWDZfpZ1+wNpZUuviOkF3tuBw2wXkgO0cFWzM6aGj5dBlqb7xwDDfBsiERd8oHCp0c3KUSZVBa3WivOfBzgQyYlCwglHZYRHbZVTFrr9OlrcwahOQF9u9v1aIONO85NXETz+03jqsXIHs+GiaAms+1Psj2RUJWqET5uewWSRQBNsjR8psHAe7KqLHRJ0zL7HgW6AUgjxlTFAMWLhIITUcFuqseYEhs4GC+GqjTGoMnBiioBrf6Lzp1++T3wFlMU6W5JaHwmrM05njvhQoDYcZblJrMdbOQWktNM+dIeOACnCcI6nJM9XfRgUlJmibOVMXA3Uw3EM6JXxmqaPDF5qmjjdQC2O8JSqDnz7NQSUVxodpmDnrgIpw+ZMUKmy1VU8Dm7maZU7gGKAq1otuVnHerKoCX43UKHPcbIHKsJkkqn3C3nOQygqEa7OAZ8FSoD6Wichrffqx+vKHapI6waAvwEaon2K/0LUPiD9+pQaZ4+MA+gbWbxAi/rBxfUP6EO2ZO0NGCF6t9Ji6psyG0ijJXK1t9OKvFR8ETI+3tlzu6bp+v7a2teP7rIQDdTlCHjNDj+jg0Z5ZfKk+9Xg59wp7K67W99573mAUnZmIpCx9H+wraj5jXXFPfayBexem7K6WOuqnBWqMOR6Ux5WxpCfbxMHR2Nz5sEpkcHkVjfBLRJSst5dklUVzCCR3ZtD9Fza5a4o59n40ixNlTSniMEjuSIgXUz3lSeymLwgWbKUltdU3cnjEFjbQPNVbU9QJoFiZK1nHOTIk95QIP7zCCbsm1kwROEHms9McKUzXmyhyKqs0xJwN5OV0xwqjOQoUpViFms+bRpGIPlFYFDDpzFWOCobrBcQP36mHdN5H6aVDHC2iO0oEHlqTsIL3/42QB1sSKjl6mArNpBP8WTsZCNI+peIiThBO51YLIg+ux2mNn4CHHu66IEwLLjWDcIoRmrl30I5sQaprOcEob7UKMXvQPU6T6YM57d3/EK4EZ0gjDPVM0ghznMcTLUdJPicKyecs9Nz57Ze8Yk91on5adZZIHbgjZNuni0ZaQiOIViPBxIlFdGEMfXhwNU8yejB15uFOb6NoFbhUshihpyaYM5TE0jH2clJgb0oBNXnCoTktD9o7lgpulkuiQnQi0bazQHevXjGng5MIhtYmWu6MgBTf7aC8gSDppkkqDfZ9RzLhVi3kPQliOjlHOQlRk0lbiLHkXTOHMuN2J8UkofwX/kMw5ayB7FNnEsE6pHCSwnA0ie7Ve73tsUynKyMtvdYorfy3SVIsX7JPneH4VXjGSY3yXspAT+QbxvIWqvqQ9tzbkosfS5DdDWeeOT74RTjFyYBDz+hcdd+fr7kOo4rmnEyVQ/pKfHbFYZgeDnzSyMmCijaqUqopr9ol/GnaNjLL5JGd68TP/TnrRjI2e2hJ5uRCcyINd1w+e1EdQmMgW3rjZJP939jZRzOejdiKXYEfOPlguElj8gwK6+dO09h8Kl9G0W/jzR3Gm0GxvkoeJyui2yhSW2NCh5P/uKBMXsnPYyWYyTRzBuMMhytFnMygO7WICxkvC7PQGpObK8uOnEglSK5342RwZLrSFBvU6cQdOVeP9pzNy3j+49O8lrSfKiG14fhTq+uK5Mw5vJ9ajPyatIdNv0hSZc26hY4jVpTipJjPMnVwd781IalwoaP73RPfYs2qraB9a48OSEsccyGleRx7sxsWpCxtOy3Ky1rMMHM24K4UvoX612U94BlVd7aMMtXYUSrllpNNteldPMcfHDaeeowoG8Ql0bcz/Mm1iRjdnyLW7Rmy3NKS13Gc6riQbOOJotlyDCdyMZ7SwU7+jfc+TpaN7FIHEw808v99k/HGbVRerUn5jSe+maLm/hJJMuoUv8GNWwQ7ZpkzENP69lfeNbtFlkWoPttsUHTjMbYRO1aGsjzCaHYJbw9ILWakLbN3pnyG0Zz3D3wkndzwOEpu9qSki2ROdT2xE95J0RGcyOeqG3DlI6NYpc5CtN5W3uTfQZr3WVVIbPVkZ4pijpU0CMVv4cNxgM98OooZyOytppiofg2fK/uA8pWaE0j7LBsTxNjHhIdj7A3q3e0yn7OAKbaezShz7NH1gUk8byJOQEeesZiUPPeFWst3CNvyHt0T0o56nudpZ9DDXBntjFiFVvsaz2o9E2bAFhN26sYK6xW1kp2KFWfNgh5fxWMq52N46MMmddB3FOTw5J33C72BgJQ8cWfoZzCmER1Wh9IsQo/DBJ5HPkUPY/STNTPQpiGPU2EV4TonkOUoymjbjKuJsuRxXTEiZOdxN/+LHraLTer8Cqn0dfhS1YvygSzX9hIdWnQNN02xJA+99USU6Bk8nWVo22w0k8xxR95oZIZfaWGKB+KQ1EpytOztpnhkNwkdY/PEhht5drYW9CgmK5RXCIkkt4qP+H53gqj4l9QPivqehIqF6aLlLhG0Df+BReqsQ6rM07RXIp46wNhGcrtTJdl1hA9ukVwyEC+B2AB+R0Y5utpoteZynznw5qVmabLbVSSnVj5Jg248QdH97RZppC6GP74YOciXReogv3CYCF+mu1KVRvxI8MpN9/AZgn0EQcYYiWRuPy4gGRHCYtoc2UaTBi9CN0tFHZB+jaAioxOT287Fb15FeZKJDOC3fVSgw1AM3t4+DKnwRUHZPio8ISjmq0eF8HI68Q+4/kBCiQ/D50BHEjzYo04gsjYOviWclJI6IKoQv/Fk899YbMFXWBx/KKnAAN6EfBk5hsHa9gD6eotDZmnfBEjEpyby+f7Td/CbVn2MxPIWCnDPGfwCuhO9qdMKpEZ6L9ZaaYRvdU8eYWM5NyQXF+48RCONnZnsUceXPnJaDKTH88fYStBc2DCsayWybAwekYLn4JAZDj/2qDMLtUTQmJ3hjgzUAaX38YWn70WWT+GqVg0pZjmEhd+LhwwiBLFHHZRvXgfvggDyoG0vraOFdcr3PZRH1LvQ2W4ixzDXjDUSpe1D6Ar9IBN1wBOstfz3ary1+mZNUYFMkjbAp0OOYe4L1nPpPYluuagDDv6EI0PqL429OV24H3eZZZMUWt5hQs63hDXqbENpCy9oLwDy4S7uaomi11ZvO842amyRUc5W6JSHUUO+YI0681HaQhNM+4CciMcdWtEvs6Hp5zG/e9wkp5i59PvxHNaog+rBOgi1Qi/KSh1wpQa3m7wobb2C63soOyarlPCinWuoIZGsUWceymyFu8jyUgdfml6eB45hOsoNPUZ5hSyFyliDGsLcJ4inIZSFXwLXBuTGSUycL+5GtoR1qcIAPctTUSPCWaPOLoSy52QrEBRr8GBM6UT5RYQeqybUXjeFNeqgPgkEv9e/Wv73AiwivtbG7W9QQMIe6NT/QowYwRp1hiOUhVYzXABKwNhjEMqcGosSAsJb+TIQI2xZo04IQlmoRXEaKAOhn2zrNCoiXgZ14e121qhji1AWmvw8rxB1gHWfAOLEnVVIuiTo9FmoIazd2u7Kr6oZHt1XijogM5aaOY0nlRIuKo76MtMNbDHHnjrHl6UYdUAM7VeBKxKVEy6W+mY4N7ao445QtUnh5Of7SP8nFXOS6xSUDdq7egI1wpkt6gxGGRvQ93NAwddD95Xa/TFKilZLXcrEWNXFWISqxYIuepUY54id9EqLooKlUKeGV7FFHTeEqvegbyheWeqAbkInvdasrFzwWibU5Qq72aKOM3UeIkZh6oADRFcgd+QoLFYudaidsSa+NdT/K7PS1EFcdU3oFcsCeHkyylBfyRZ1PkWoCjVR9wLl0YS9P65QeaFOUjcPa2jXgdb+FqlAHRCP/gSjIUsFmazUZQUe2rF1oDXmsWpQh+9Cw9d+TZ0KIiVShy4Yow7qnotWJZuwkPgbrg65SnmZMqGSoD5AzNiHIr6mDXpdVYE5WfiLMEoVF6qAuqeaMeccFdepV7Pm4s3yC4Ko4MV0paVqoK662KKdRASUOtmKM+d/7F33c1TXFRa2RYtDC2YCGGwDNhMDpngISYwZx0ASxYwdgj2BJAaHGcfYSYxTZveprCS00qotoFXv0qouEkhCDdiVIoOQogKsEBEqFNEEYuCPSAgpQO65+8599923uuj8vO/tLd+75TvfOeeUqmp6DaJ5nRpiM6xPjw+L5v6s1TEBJYLVCVPHJp8X3K5kdMaCWXJBZzkWOrmCZyg2XK0PK1Vswy4RG0FTmkmm1wlYjITOsNgJ6lMv91KsfgAdWhoo2QobUXKkNBh/1jmNqTcdkmj8hkUJUpsy6enRJt9DR6nxttBeM8bqDvozdCZIhpyAz5CUoFA22YGN3bstrm0R2GOydEm3lyEnTqQPq8SMtcLTBvM6lPPWHNmg8zHS/RkuDjktDFF8laGiWleMVW4HyQadvUjRhVuca5ophk8YvRNF/HtK7kLpCowEIvcLxf8IncetWlD7DmLz2AfKBp1pWK+joNNEBC2PcgLFN6GcEsRyE//9CvyAdKmZ1sN9rSAOTpyQibE00Xyd+2ke0TqPkBYmYqVeS2SDzlLKMZWh/govo2m7Ci/RdRiRQtQ7d7AJ26VLQ/kFxWVNHJy7IualjIaMfyWLp1X6zBUhvW/Brsk/kA06i+C+kvOAOEV80ZT9KOthIFjwSVr1KwFtrMYG00hXEIuScvsGWpHCyTyUyCu37d8/6kyiYKfVKL6Sst5JV656O5Yv1f/yG0HxlofcUuUaVfRPlmLHsl4TZYMOJcFOGnFW+vWek84mlcIKmiAjRvf4ZqyHT7p8cFT/JzGtlkPvOTmvOlQvg5L3K0VvoXsSssCIhPWwguDeEktcJuk8JT20wHKEr6JW55yChUQXGvz7TfJBZxXc2yoDBDvpIRjfJs1D2q5vQ4nFzimlLbfJB53dcG9HxPs/b2fhFBUUXYaiK40QSgTtWfiB9fJBZz7cW3L98Es6TkhaM1bHddKgo/IJLCnwmnzQ2QH3tpU4PBk6TohDBaHzhLMrF36kTcc8XzZsBN8H8kFnF9zbcqxzWKsVMGw/NBbonn5NdWLH5iX5oPNtrCdCPzrZFcLCD2ccMIJV7kF6P2dOkg86ARvB7haLTYNUU6r+Wv6o5cHXrH26OWv7kS6s70qInIDvwLwucU4G9bqzUFjkqk68J/JhEm69BBiDyNvnJhmhQ1EnRyIZU01GkVHE+yik1EWRhemkc7+OzCCzW0bobEBygjpVNSqHt50YX5c62jVrSCAjSCGTl8oInY+wX7Mue0BUnRY3eE2RYGYwWkGGY7wvI3QoYq9RdKpFVttfqO2aZINTqYTrUZedrGUqgx+YJSN0ZmGJHT1Kz1O4wJOqXnAR3u+addCb3kGmg5sQIKVNRVKmOtzOrZTAGZWp3s7Ar9ChvHYrsn7GMjmhA4edHyIO0Aj3ifDA203WbbV3+yr4uHNZkKgIvggGygkdSgDoESGyi+gUWFCqntM7ehW+onE/7jQh4/HflRM6S5C3c2U/53mgeL8LMB5JeO0a5s3uhCPzLK6REzpfwT22iyiJNQAjx8HrxMSZ3anBtna2nNChJPuvEOAAzYAXi2xkNmSYVVb4Jou7i7ybb5QTOQGT4aAIcg2NszxnIQ1mdMKx8e2WBPi4zZXI7EBmSAmSFDqUKxZ5YeaqbOe6UsTBmVV6ecrczyFFcNtkhc4K5HGQZ2avcr6JkG/BzCDPykdEn5kCU4+fywodijyZHJ3bx20O4mI4R8O0w/d8fqf74ANI0mKerNB5H+7zELrqE06jA7u8I5OZ3pgDh6LHc5MqFyOp0gXPyAodisa0Rd+1X4c1ouYIk9QQZWRh8ij4+zkB0to62EVAHKRGTlOQrvjgAoPTkmuKYz02V31injO/3NtitQ50PLQBq7XFW57vzEusd9k8scV9yfsf7nD1YLY4JZ9Tu0uQ6WMCpUXOC1vg6y5RaV7EZwYOwcEM+6oSUq6Gh+HS3yph4VfbmpPgW1b4CT4NJ1bPoFQbni8pq7N55fOUUcrWUe01aBZtSXxu6MQ90Q2/e858CUNp3t4wg8VFrC1LaHRUvbd6qLvKLN6abn5dcNkVp03B00d+Ne2RxW99+oJMuHlj9V8YHUztTLxxVL019e+VbQfMhpuSldBgby13xTHV7iMnWTzj46mZq9ZMlgM3y3fsfU6NO5oc3IK6gR+7MtB//3qWYvY/C7mW1FXm/StuA25nFU/O2PDrsQ+c2Z+8qG6YOg8T93VVIgZLbF61vTdyn9n/zZ19r9+arhJBvRqyAv/ko2+OZdxM2rxzsTbO3Zfu4qjLOnQ8fixg5glN2LAj0xnr47vIIQZvHFYrCZqwbdeYJQDnr8WszuTIOrDGZUR9j73qgnlMW0jbSOplGEDkaIjriDHdMiaXnl0/msrDP0mIHrZ4WoZ6s8zSWFj2zer6o6pvDmdQo/re7jFWunr5az/GOyjJeZIe+83p9IKb2SFmGa3oeInzCdkQOfDHixzXKZvWjJ3kF8+sXsdyFS2lUqfRd6tPxitmuS28st35PyL6GpJLBm3t0rHhFt3+vWfZCLARSGQa6unoapMdNY8stI2tdx/43smp4C4wje2zX/o/zTx72lQTo5FTbSW1V7nNT53ty7Z7yePRwDi6e1a87d/uhsDnTMxmM4+bb2PPHzblF3/0W+DMe3WKJjmWexwYvk1TDod3/DMPxtadWv3EvePA8E0FpWkb46Df+h1wpq9cqFliUDaODN8eec2j/MrP/OtwvG0BDy3fODJ8WjuHcf7DIv/RVOyeqb0/NS2DMePI8Gm5HTzK6W7a6h+q0Z9P0Bwz4hkdVsZhodKyS2yaNYgLVxpfq2/Sb17U2IvQ+jNXx/GAZA3PJWrNILZn2nZjkTN3i7YOWPK6wg2bACUmsjC3t9FhHyrJLBi4mH8q8a7LdiPjWNyJmoijyYdOP7RDyUcjak7EHcu4YXPdTTyVf3GgILNkyO5o7M0tjIwxbLGM6XZqvGy9OX+5ccB5KVATkZPm7BauAS097hgq6/EmujL6onlIz4OjT2S4bnkrRocctUWC++IevKwtA9Fao+paL39XyyEnNNFhgHY45KBJP6NkYdENPd15mpJBvfOhEchZs1ZDkz1DRwxZ5lNNelqrEV26YHdpWD73fCLcqT77VQ338IJs/UbycEptF3gAaQ7VFTrBYGS7MthUpN+xKLJEQw7DdTvEIudz5r0qLf+4PlLiuoT77S3pt4MpxRYPZ5j0tShwy8p8EONzq+JMrU5C6qoW9hwJOwWm6f7WW8wblZ0/77cvvuGxIIOMEMr86WzglhX2X4VWZ1Re9fkm/vdK93kba6snLBWkI5y0mlGSY/HmcgZN20hq/g2L2l1jOEd36ARfh/78yQxlEekd9irOAMruYS26HiREzDP9FbbWFffzlKKX1n7t9RBpsR7Dtiv6LYsYedd3pdrBU2ztPudha/fM13WPGJ38+vMsLcvJq+V1SlTauqvrI+AzOLgjlplEWCZ4EwJTrFs8LWf5SSGbyjvZFh6dQyd+F8TSquiCa5xQ46hwRbMonP9pCaFCoBMKJjel52YOjvWezeVDDBVlMiUqm6prKa2v3mRoUkQJjy29tLG1/rTvP8sDyUCPSYx5oP1HqfeNO88AFwG/285Uen3vG3oB54fTGJpzzM7jUzquUmqwH0zCVGISZWDyuRR1LsvkxC4OC3Qjy31rhk4C1OkMrk7bCJ8jjtpKI/3QCwotwqBjAYuYjKp8wygfqochiefCL/U4LX+xEd0QVxK3q4O6BfgGuFm4TOIMzFwYpjL8jhfZnuDEuyg+/gZv4Ex8Gb/iVHK8jKtj88Ay1GdMIs0ONaNSHY3Bz2WRfQcNnhkfcHZZLUOfFhu4sl3Nav6zBXTyRAuFzmlQfqGq1lo1V5owD9v6BVyTWc7DSgFjB1m/nPBm8o6j4pycDHGOyi2TWHOC92Y1GCbT4cxLUW49tvmBE7kh509IGvC2g62fSna7KyeC/KyKWmfnoPfeN4m2RqgpKuplxZEHoOLg6HVG+PRiiYkgXgeeJTgt4P5Uput4SGVPHOXA4jsAyQYNbHiEcOicgDjtEN/eEHKsufIgA0aNtYFpbBUHMo7il7/iwuYE4hyAXhaRet2I9xB9q1d8ZbEOboZebjWJtwrwysy4Xw3/58O8080iPgjrxx33JmzmEGSF83baGJzjMY5Tjyq0j7HtWAPsk6WHC30Yak452371yBWzM5ElFuBIC+qyteBTrcj5/WeY/6u5id6N3SedFlW0Rq6PMzKUV/BwrBHQMXn2MZ6Uq9UQW6GJjjo0eIZxBPN6jVlPvo/50nqwQvWQWi9hIFPJO9ZtNi6lxGSMDUEN6qc/R953C//vd2nlDVi1hnLuEqYHP9UiANuKSdAVhU2on1BAPr+SM3eaq2l/fhD6yOMtBkEnGjrzHaYy48B2TdTjJ3dg71xZXsyutYLdK7EL4SgPzcSd/bOGboDvSsGzghCPzLkCMMYuQ12vpT0FpPuABiuqHRn91Yu5a61iDfKb9x7ieIzyuyi1Tpp6hqxLVygeIC/0T4Mm46wWahStaEob8Yk2+IGcPNzG5S5ALDx72bAzV33Ug6Ufs3CWlvhAvgfreI6GPr0DfQZCpzgMv4keZDmw1ZShCJEmRBLUP7PsWYvUIycKseQoTeW+5XopyE8PlMgUmIy0Ubwz92/kB3wRiTnOSsTH6x5Q34eVeOzMVR/2YFWvqw3rUsWJA5FUUNRvHPR5Z4caCh1QuVMH1RcJLlV5vyJ8v3bEdb1WfYmcFVjkfKj6bnXoH8xd+1NV1xW2UzOmk3RqOh2T2olpO2lq2vQRp9qHaeOkvzRtmozt9DnttDP9xem0nWk7OfdcLly4vCpoBEQgPLSAgCAP71UBuWqIEfAZUfCRqKhotBL/iQoXEGSvvb69z94b9q9w9z57nXX2Xo9vfesIHpW6m8DmvKmWAOpaCCgd0dhEHQVUY9mRIBixlj1Z+KsYgTfxIzXNeQyOBH4MI9ZLc3A/uVZsJIkNvDFfC0g+n2lQn4jOibn9fRRpHBmETQf/Enwiv6hE1Q9jSfegdbCHlUBHhJUg/FTClLjyMudddTZSd7k4Np4r/vdChRX3F6NGzyH00lqxUqHYCuUiyChBH1MxvEIExoTHSM7CtJEZS3mXQoxhj9KS7xwAlae9HJzxieWw6qBg0jiY6+wYUxa5OByfFKQtcim6ldrIAlCdjALi6a6JOLnEWG5fte/ywS5MeWLox7UUJTR4BQ0DYoHM0RENkYtBK6LqW8ox98cCvfNIvKJ5bP9Yc0U8mAZuVyiPIJLmQ+qrFnViynMSrBR9DWPhWQUiu3ZAmYfa7VoSj/sggOJOuuk4cji79/JQ1oP1YzdaLw92a9MfUTHl5NyzZBv8vQDuC1aN0gH6vI8gmvNZ0C2HuNWv9eqKfAiEKJ+i3swdrWUTg0fE6I32ksErWjNmt6EOeljsW6f36UlwpBB5QwVgaPlXgIn8R2yqY8BjbXlbn2TzYgjKIJOoUh3qt4xde2UOY1rnVZ00/CXqRn04Orpf/H9HtI/Pi0h+ojIfM5V5lu6XsKc6A0QOTsY9/UH4qVkPnWIU0CNLXWnjA3wX2soGdYc/t5GYrBg7QAOUc5Q1AYH+JLbAaq4D7Zeh7tIRIII8mu8FGoQgZ1eGvKcL45wzejZj+ee208ofBFkeNtsMvCK22toDmek9R3h7OQ2qDvN+Kdec374JHex8ed5wTlBW4k3iiU/Nyvr1U3EkxcX6LrXhebgGxYJAEnDfP0srdmuX30hHeS3vpGOtaFdJVQfqaZXBVgT7JQkv6KgWu/7pM43VDxTj/NS73aFGxVtfp7aVZurLPzvzv6rUQF54mOEoe2v5kBO39CmJ5rwMvdPb3JNkjXgGBmFe7gasiJNKC2Wq1zh/mDBx+YYqZ5xfRP/KQgOS3Mh/69AFL0mi/xyqD97MPcZmMxXeFeJvtYqP8u9TMkc26bB/1ysFHO8kecz9OfZLCTB6ueqb2P+AWT5FN9KCqJe2cUfOmGdoEKVM05dRJlWA0aRyWWmS2fhHVYw5iso5OY1i7BNrV1vCjCzjBzjzH3ltayi86XrEuzrOPEJJnynNoSyZ81N/P23AMS+7HdIdJQpBnreonM15Rq7msNU5TKVTHmJUvUKoDlLnWSf39fJ2eeZGi9hbTU4q507Kmx5UWOJQSH8UK1zMlIMeq5AbyQYLOnaOMncwgOP+hJjH4Dkkqi5X3cJuz+QgrMvjqb9SgI/D+E2SKAwFGTV4aiJMrTTZ8r45BEVAg7laTPHBdeC0/qmwEeNS4NyVxwjOGS6XIyLzKUP5JiEHvxye/0pQ5rVR/NyhoIyTINgSc+kUmUcgj5ef4mdY/DeB6vwCWPqWNFRmnlGCALtMSLtT/hkjBkjwvgMd+HLsRWUAACAASURBVMfSKcMLJsR3s3/HsEA3yi8tAL/z7bma82mg0jNHijn72LjmUNTnJZIwWxrMGFzdFQo+TsE3SjZlmo3HF4m2JHuNSzRD+vWn8aHUFXOPnS/wyx6UAXSqesxrjhcXJ7LTE3TeczM8+bshEwMPBFDxsNowBbcI1VmQ6X9l4IACvj/JnLjgC7/nrSyZodNqh+iROOWPUlUnoX1wZrvOiOaEfDhynqAolXopKGG9lVY622V5CT4Ov/hz6ikIWXvCEks44I8Ix6N6NChMp8dUQ6H2zIDXbyiLSgpa4nfJl4XPeVDnQ3VZS5bxFpZEWa3RElMnOUWF344efuGhkKnRiZo7ZRTy6ozYbov1WJJqt6TUr5G9sj45m9/0L/x6e+nlBjxro0ntNZ6FY6shcwMOg/Yq6qQ1qV7oD3IMvDxLdXhU6VV6sXftaY4XVyIAKUDvzUyTfSQr0chguFZpXovUQHH6SXyWFeDVWVB2tgiijC6cuezZHPesfP9nQiYHLIGPlL6DsEWxZtLnDg+Tm9l07UX2v8/SFrJVzaEiyuIAASrsCrONo2Nwr2gVzrw9VuXak6VvKb+kkvg8QS7UarvGshQXNgwA/zBkdsDQsnxcZ9O32pVr97D2F7jmgeY8s0Lbqqzts6w5VB2oKCuATllhWHNCPnzs3DOvjrqjmYzwsjD3B/2Jv8pGA6nK6Wi37Q16LSjxE86mc8606uDRiWzY7M+3LtlB6ggc5X75Ndy/olge/TrP/kBfNJzwSbQZV51kn+nd1DiQLAkVLmd+uHaah4lFB3a4DgXOSp1h9oFfZP4KxAeMGugBOYJ3OZBshOpGwBWcbpgq51vJbpd4ef1lLlTHw5B89+D5qiyoDn5IHIPma3TC8NJNGAMsInqq+ch3uBWItgX+O040RxaNnPEwFeh02SEbA2ayTkDRyCY3oqViLlwdxvdQU+dwUHxDwHMV4fE5BU/3thXVwSnEkBKM9IQb0YZr9JzVdZOqw5Gyd4unz9vqSHWQRFYM7wl/yIrqtMLr51YuAM98ahSJbRGOSOxnqc4jn9G8r952tT0Kfjlz3IIn6/OtqE4bbvfxbWH9m85kW6Jn9qdAO//iZhcDMaMOu/ie52SdhseXRkJ2Bs7RXNbIzTXkTrTdMa37P2Un/5mbvd4lDkk4bvrmDvhtllTnaHDjVAFvZW6IK5bqmV+lGlqvY/4rLj5TNzrcnscAs9J24lN1WVId3E6XZARTozTsULTNWh7jFydU53lmbjFwttil5tA8oKlxXmGqG5ZUp1bhGRig2QdOZduvc/B9ZUJ1vstM3aDl+Rt2IvtNHToZviXVSVc4KsicYAo6VuZUtg06TtBrE6rDNS8Sk791O90e3U9Y1ZXdGbI1VJhZpFBTx91K83Vk+uYEZSk3tRCU3O52e16ZJBgSU1HjZmuqU6TwFNUSFFK649YWkaRGnGrDRCNzburrgdLUdo9VVQPVWPmVYOxXeYxBep4zrkVbo2O6PYpEBAvmMwkxPTLJsKCv1Mi815rq7PCMHDt+tmvRCqOCjcyPxnPny7mZhbVu21zvjwaX3DZnNAUag56RY6fLuWSFufwo86Nv3led1znnxg8YADMV9qRYRg4qTbPbmuqoEX1UU07WmHPJCoOkbcyPnrmvOm9wM8fmN4E1NXK3GEkyH7emOmpdQFrygkelDQ0hb8MW4NRhLyzhK7vsfIMktm9AaZoca6qjhusjoReNGa4lu1nHhR63ddZzMzcuiBs5Qgbv81pU5rlqTXWUejnkRhdILPn+EJIlFDA/egHxsIQseKWu9yfxZu+qzLPfmurkqzyGBG9WUO1YtPUaYK+nJzgEuZmFHDd+wvH+JIBiJfhHhTXVUckH5w6b8vKDj406wbLvTyQiHmemPr0Q9ic9LFRs9lxbmuNHzBw6Zrj9A0e6GA6K5ydU50mtSMgRt/uTko0Pqxw7lZZU54apQ0cxLh14dOpEqVKVWK8yU4uzPslcl9vLlue7VY6dIUuq02nq0FHBORsYW8Vhegbi+q0J1fkG94nE5t8RYFqaVCro8WVLqtNg7NBRjXLaCHqkM62IU9U0z3KTjwaGNgX+Mri6c4Vjx5Z3vt3YoWOdeAaIanPo6OcmVOd33OyXxPurc7e/o5ysFaydHkuqg7ucfSwDZlqPM9EO6n2Ln59QnT9oejdVzhC0Eb5zbhM+W6kVzVFwiwBg/SVXoj1RoBekSjXkW/Jj7s1FTSRtAgzgjoniIeXL82zqbAUqh51VKhE1YdeYY+HJyerPtdz8RJlXe4uj/R0y+urK5zmWDLHEO4J+xwk15lKU/55UnX9wC2yaXzxbEYJEz4Ntjep2C5qDc0ZmJs3OF2hQlUVcv49nJ1VnFStsgi/AdxO7Ogm9PNw8OGZBdXDo2/vYhE6cECoxWMX98PWppjQbuP+kgMHXrjjYXwIjM0rCFQkWWFLwgsY7IDVThwPJ7szTvC4fnyZs/zvr0KbNIxryKPj6cIox8wFlPJSMEsI5CAtmHNaFsayb5hJkg4Jks0TL5L7jI5wFCrsN/vI3GVedcvjEg2ko7fOk3NK++x90j2XRXt5NapXYiO0Nvge/P5goJVxoWHMOwUYtzthsnZ2J5GppY6/+9Q+Ik1drm+KhqO3aj1ZY2DGYE267YdWBoehFCmXLTXbletXXvvlXz2BrZ91z7z/kQjfiVnfYrSBs2PIKdxjVnL1h899BKFRvlYlyjDTXt7DVpzM7YvE3lsRDrrIaGVTxpH24/ehBk6QFOBmdGrrVJpouf0sAvO7yma1plmnHHcdv+rcsegHDKsLGPdrTBlVnAF71cMjObtQ1h87AZrFvc82sflh8axoZA16xPVaPQUtVCblZxjSnFN79Lspe9B375xLNAcAjv56lOk89wf5A1jW2w1q2jkhfUc9SC1sd5aaurBicvSJZdY4Xu030jOUFsRcXPza7+ecjgKpKuhzXWLJ3iMZVyQsUlTKezW8wpDp4tSZVs1wQIeg3knakWicJaA/zTs9vHuo4/E9gyQGJAKvs+FlEwuccyTpwDb49Iq1GNKcLPuf6KED9oBcucJg/PytrdH6V//0bDzc657t/ehmy5go3bMR3MqKUEUAe/jjUNGEC81WLHwwDkkuWqIrutxCcl8KVAKqinzysOXz6fDy4I8MLRC1QNBBGco3EfsbBF1538LqaRrxuj2xJM54jb9kXMMEBH33SqqRSwGZdOUd1AP+c4TVKyzGuOsXUCX//66kKnAX1ioL2HY5W4ItRgbFUTxui5MN0tVu2lM4zHSCJX/3oXNX5a5D9p+6R04bjn0QkeThDlkxIU7g5m4PpTjQfX4oMQo7J/IE2s4msOvl+L3pah86iJV9HjI9ReRDLLINigxT9eMgAECQ/GkBz2lU6OVBAj6lyvY6g/hs/TrwvD0gcA+ZYtkSgOpC1412Q9zeobza41bDYA58i22umaL5UDITsAm3N6VfhJ9jOwXII6L5BRpHu6/L9HEAYNn6wSDi+BH2ncmhtWpM5UC0Bq5nmie8knqFQ5RESxbo5TxWEZKSUc2mopl/GnI/eLfL9FCJh3bVizVn0pxXQ98OEYYsvmNosgW2ZZs+qiAWOC46/s0taiNIGJRac3Tw87a62uwx9IbeZDRUgtsbTPyRUZ9H/2bv2p6iuO37AKFrTKKkaraZOMmrSSaI1amNs0sRXZ9TomDFtmiYzrXY68Yd02qRT9rIu6y6PFV0MQURgWVx2XUR5LO/XoiKCCLoCigRF1ER84OOPaCZJR5Hz3fv9nnv2AeHzK8u953zv5zy+7y2oUahV4+vulzPbffzGwMZHBdOgXkcumj/2Wj6ZOSaa1nwVulI9lrRSxo8fNEgJ/3aqZYGUoHolPAMxhy3cgBqHWlM8JU2KAb1LVdo90OFJLJV/ldr43NdCe8F5jBHqAf83XRK2nHNqDrtu1I1/6kaQOuwlbXbRR8v+lgTq8CMUhrSHhfxQ3jvEdx2hhEPYLcSngwHJQ0zfQI83m2ZBdqqaPo04H/0KmDks6gVtq+ixjUezQQKwdAzpCg220SSb0nIKsG6JvH6yIlCHcrhBjqxUbXKsVffVGXGvWMT84YNo3HjU87azOzVSB8ivTcAcajqFbiTYUYAJdrf304tEggkYT4ioWbN5fDgy3Op5X0j71JyFfqnDVsVIOrO+U7V2aZkzYNR5opgYqPTuEbARxN6/VOl3RkkdFoHH7jiNHONO/rlmbBeXYj8ios2Ea+wz6XX/zGET1yEHhegWru/VEAEGhPE+mZ0EptqIOdQynGlQRGvJwCmxYthQrfDhadeAAn1XVIYNmOh9rGVzG1PDLyKQ40owIxzLXwsbCAeQrmRIOtmiWl5OauG5vKH3LHNeWluD6Ex2Qn6juuFWAv4Pq8Ve3HMB8YV0HqTy/8pKVeqwBdihncJkT98Q9Exk8G2fw2uIg5lNmq4IcbVVnY79rWda9zs6qw61a3kUpPjrh5/nQKKrXsQzmNiKqqjxELmTLpnCEBiPHZ0FU21EqRGKAQMiwAfR25NOnxkTDrBQqA3U+3LQV14pLhbJjdxLf7UWwxwWOQM7wGQbZnj6DgHXBN8/pXBsnqBd0BMW1LFDCjHPepHM5xm1BveONheKOF603X8Vw+Gz1ehdsQ41RMMZqpXnajGeDWCPl4IwYA4YHMffSYrUzaCqaL+M7MdtQifrLGJYrJiE1mfduJyUylYaeRIIalMGpIC6EkPOnBbIPZa+g3JOtxJuaV3YDLOKfdhn/nMCmjpsOX6op5CBdl+epFz2+IFRhhaKvHGxS4EFaDoFEuUy+NI0YdW7lmasK1fBR8f8diYjYBHB0G1DDtZ7Hl0NuIyvVj4Efn4sXG/KmZDzCqxo3cH/PU5PLTuJDpjNx9fymzqNwhw2YR1hi0zBjlc/gPyWhaSlCmsxob4pQ2FkZtD0D7RhxzR4bhgoRntwq/H3h3FvMxomf0qQ0EE02ZUKFNv520g3GDV/FuklCjLAhHk/Nie+DzRbLWEgNvciPhPa0Iafw4aPGRVT5hBklEyoV2NLULVC1SvEpQdabINW2pmrf0L3jm4/FlxAX7T6V0hLKSHWdoKlLWIWo+Pj1QQpxTbr8UPv7k0W8vr4OfDBMhwpIaQOeEf2F70FJBD5K3ZnueQlEEeflRNg5jD2YjRFTg02wvCVOmss+bzyV3we9E4rlvC7I9ty6DbEJGirbmmjCF6nu0HJAFryORPD69spktoxqKdMwXQY1Ld6FLqqXaUIfadA4phYLFEbRUW4l+YlEcfroIhjzvtMFCtI3Im5SStaZa67207Rr/zvHw9oZtvAA2yorhLBWM5fgZwWWcmHqUlkFZTUsZjnPmEsWNzJcXxJm0q3j8cHD9JpPgR3oOVXWR8S5pRni46nDnViXb3soRaXMtGaB7wyl2nBv2nciamvoaalnD785ErYaRYyxoN5GtUhoQ6U6KOeCtypfmLtPVhTTBW0vpWWYvTuz5k2rP0ZUWS3yFVrFHthGWKnV/PVxYEvvhsC5kBZzbp01eCfRIP/+MgMZ5NXR0Z1LW0CW15lWjFrA1FocVn0iSmerjKVDXu36out0NdytQSdOWDhRQVR3Z5/bTN+bxVsOXilks4bnY3YQ+j5xUwC3p9DlVt9mkCJR8VeWutv0SGcx7fDx7gDRm7XIP4ZqFxQFdNzuaJYgDe6/MtENXPJZiYFU5aRJWcRq4aed/JEbMxd4Wyk+kp5qTXaUAvF3noxKk4Gf9v+9rhY0dWkw9TgkxlTmCQsXEcXnlOwUF92Gp9132BeCtqUT7cHlzpg1hyu0uFDnTwUnycnU46PZNIQ+R+B0z7BJFEAqs0of3gnaFh1B5U5oNszHUdhea3Y9R13qIOP/iOTiajfCwgwzpEtjzq4IwfUa/Q3g8gc0KSDbXi51ytHaOYLyeTBL/uYScaCaAEZJjbLIk8JMqQNLFlxIzZ41EkTtCMjTOOko6rjEH3sWyKZdHw+NSaE5MGWvN8Hvq40aMwB3WlJ6LLkjdol5u0TyENZ8hELBOauExJkouO6BOp0ar5mGGqDxJwM0LGEq71e2+nbo9cqr263SKWRNc+ywODVbWKybG+UUBbddKX5HipsC2wJ6wnSkXUGGoB6BYWyXHeFUcJC290l0mZq9VYWOHwUISbNWOcxGaeWkt5UWqW2mkCTSmAaLgw3aUGJ3v472CQ791fny7kXevqF4kzWTGOBxJRfC0v0ilmOYJTr1e7++BwBQ27loSAwB7YPQPHIGZbGvq+MktQJXfFZsUpO495hAcaEbZNEhZrcK00+391c9qQ15x6KpX28r4JAHTAVlZNPGJfZv/92usxWkqYswZrnry1kgcfaN8UvkI2Sm0R7bU2DBalPfpP7ikhMsBxkFqPc9+UnGltr0vVypaFU5wpGRC57kQUFk+drEO2JAYNONpR8z6WsfsujNFhfyI6snG9VgobKLQWDaXajTj6uu+8IDjpi1UoWLGyN0CDdo4U2XWCQtOdBX2Fuw1E/fT0DrWWBTjR9bm5hX43tywBNvfjKNdEQ7Enj57IgYtq7mgR8vyNJF0BU5sHes8AGKscbdKHA8ULxcrHvzWJBxksRmmScUVCkhETKhvgAMif2WAhmZGrVUO3zjQVRLOiYNl+jnOubbaHgzg3r/V09sounJJbtum8t6Dob9Nl0dxzQcARv+NMEFhJ88aZWiWe6v9GFBmajKc9edPtsSu9gaVtjwalrRywN8Yfqy4/ubYc/xY69R8t7kuMbLAeuOQsSHFnuvktNdZ49u4360Ewi6axVS+u6p5f+mYUKG7dM0rzFW86YdGEGc7E3yZhdku9yua6brrtc+SXZxqRKg1kJq1EaB3LjtEh++/q5LJT45XsSLgiW1nTdGEhwpVRpa5X5/B+msRAjaus4KYa0LLsyRggkbG6LRhPD9i1TWBhg5vrnpdw0yxJqKsdogUCfVklHr5/GwgSfzJekp8RdGiOGOuzahByxdC4LI2x6RQ53isaIoQ59hgYJT121kYUXot55Q0a8gneMGAiI95Gd8Y+VLPywcvEczdSxjNECgywx6U5aszaKhSci523QSJ3SMVoMCQhI5yczVghdcdZ/wMIYM5drIw+/vsrFG/qfHm2SitzW8ph6/t/oqvmy2dNZmGPjW0s02Ab5eTC1MXGWwrTTPxm7j8Hu64z/kR18Pw2xjvhTv9nERgKmzxO2EdZy5ZT/fw/jAUdannl0s8Zr9zU2PG4m5vtTSf0Fn5s3mY0URC7+VIw6/AyqpqER4Ak+T9IoJI3iqms9GD/sJOIXqepAi/TpRZuj2EjCxJeF7Dz8dgGccOI71tKB46NGkTd6UtqOAD1idvE9Edgorpc2spGHzfPpTnV++A5UBi422eq44Mke0TtNka/tnt8MhlhuELOCCTf6y9/eZiMUn60nxhEmKiLqxFVL5/5z9u6RxZkSz9ms/gZMgmYF9wGqVT9Wv7Ypio1gTJ9NuvTwW7IUIWPlG5ylKXV5YX6KefPqfA7nTUKMIj+ry3+AdfSHX0SykY6otf/Cu9X5fSGIJZXKU52FvU3HTGFlCjK77Ff6HHctAtl1/O7VfvpFbJ+/YDobHXh2+X+RUjrHlZJV0Ea0s8GaMJhSY98dso3InL+n4pK7zWmp1xCVVa7Q7slvzWSjCBNXfPgURkrcUEFlX4xWJB66nxt8l7xilZPxxS24ogdDSxewUYbJs9WrHBzlrq90OdEcO0sCwQ5DUgADsn5EE0ntjFnKRh/++oyKZ/0AV0bnJH0BK+zHKN3XU5tpOVJ1y1nwdUKXozRr0O0+2dvX5/Ol/ACfr6+vt9U9mNXs6Er4usBprTqSuit5Z2IOnKCss8VJGjjfJdwI/fx3bDRi4trx/tT1QgFdggD4KxtSRZ/pBPlokFb0soq2p41joxSRLz8HyuiCmAUDHbwK5wvuFuzxmAwXHZBXt7CcaLJ4drRyh80A53xc2G6KQzysaol1rmkHi1roLkosisCt9OUCf/730cqcCaCZJ8cQwFuyH1fi92gWeR7Y2FPXXSZx2Hx78v/Iu/bnqqorfHgHKCXtKCh1gBJRiFAE28ECYlVaLdQ6SqetVka0xbZO7YxDe87NzYM8gZBEExIIeZEEyIvcBPK+5EHkEXkHEsSQNBAIEAvkj6hIUwLstfZe5+59bmff/fO556yz9nfPXo9vrQV+KF/WFTqfwB8FpoYGJe4B4Kx8G4KplWnouKTOUOpiPuMgdPkYXaHzPqihXpk0XPY6Ck87zCIP6tsNGzodMoUGqCggZecfukJnJTFZc13qLmyE0xO5xPEjkXBnu7YUqUJ/xnxIF3T5hHGaQgdu2s2exTIgdRcw3nw77U7t4I08TXJlTmEejPXg9ZM1hc4rNLJOlCl51cHYifP9FJEbiRpaTH5yAXj5Ej2R8wj4wjnMxp/NsrdhK9yRJWKj+G36YUe/WrbIbBfLkxNgLtbPiZT2dun7cAs2d3YJu9RlsL1dVCVdZHYQABxWtFpP6ITCOSZnPv4QK+juN07QVA7zwhnRWvkSH2c+CaweXqMndOYTM1iX5G+EicxhF/Sq/w3fQcWsv1paAjRYT+i8RsxOblawE8hpI9bMHUnCV+YoEHg3DaTjR2oJnVVEW1BJf+wmuLexW6CJRAMcC8y6oELecKZ5lgZe/6aOyJkI6yed5oGqSmZlcQcBxBcgxEA18jI/k5Xg5W/rCJ03YMvTTYt7+baQ5mEFvFQ9MpTzc0XiMmfDRYOXh+oInXXg6+5n7sUxRXuBZBEsL35IFlvOGjogk8kNyrlSR+ishcMt9q1WySQtnFScB5vIWftVScv26MDKnNk6Qmc9qJ2dTO3kqdoMzEtyIRmJzASpvA3B1Upjts/VETrPEPOSmcp2Azt43CAItiJ+fbE6WZNopIJXdITOc8Rge7y67cAig1HA8JrwVNsmkk+rnxYTNB/TDzmPwtrpZnYqUIgcM74NxkFiFZFoYV3ZqlDUKiIp9gX9oPMmrJ1mB8M6/12xSP1dcyQt+0XJutMXO3IBm/Mf6gedJUROSrVS6GDekjX48PmTFyOJ60Nfu2jh5Bf1g85CWDnM3MCXajcEM5UfJnD2I1M7VQuaTftjacjYWQ4bHo6loe9bN5B68uMPxCyRqV1XIxXLyWy20Ade/l39oDMGDtExt2SvauikIBMkY+4LKm3rg6+sOKBazkO0ErX1+kFnDfiy7A7/O1VvibkZaUXYOMz0DUM4ze5S5WIy+3NmgZdrSPb6CTHodVP5npilHiSL3sBhEynOltxbe5iQBS+foh904D4X7AKDfvWbYrYiblbiBr5brtxEhmPtYLnXT7VDziRYN+eYujngwK4gleOWteVuOLsXgRe19M/Wush8NEigH60ddCbDutnheB7inhnjRbCTesd32g6zCglVFL6sEiL79nXdoDMN1k0X7TCXm5FA3CzrRpiZGSVmSitch5kP3wRer10B6CKiCxHlDHTMgSIEO+0HLiPBnxJnJGTXRMCwfU836LwI6yaNRqGUvDZi/XGRb476mOWQH0hseDZLN+iEEsO6BU5BB7WDkXXbMWwTYxfalZ3D9FKTaarmOgYd84gd5LRsc0q8JubzYVqids2TZ8K6SaWVi8hf7XTk7LrgmHSZxD72T+sGnQWwbnL9wLm4b+VUU5FT0+ScdLFE5rZ2qfPZsG765PUVteuibyEOgMgz/Q2dw+D1z+sGnY9h3TD37YaT0EFZFc704JD31VmrG3TmErlM3Y5Cx4yNIiDntOl/6MC2jnaDIuDEucms4z7kLHTM0ghh5NSFOSoZ1UyeqRt03iFC55TD0DELRUdh921zVrAmYvOh+bpBZxTxwBp0GjrmcbHQYGKVw3LdIoYEtWu7PYJoJt92HDpmhghyhlHAHFrbiTks7aAzmuic1zsPHWDUuj+y5cNXEpEJt0Az5Iwz/49DgkMrrJuHHHeS81KxhyDEBgx05iG66fR3IuJ/6wRnSqir1Q9CtRJJlM9qBp2XTGL686o/oGPGJ6LQ6fCHTGxu9NGAgc5YRDfd/iVdDF/7cC8rIs8PMjGtd1dYwBxYIxHdnGTp5rI/kJPB88/dO50X6jSRRDk/gKDD1M2nfkBOj0DiM85xqQaJJMrVAQQdZo2aK8fpLQr7UiSu49rntFxMOlMLfL1ujSiDyHag00HbyNuCiYgvHBaM2VTaC1//gW4hwelU7zPT2Q2KTxVOf3Y4+0GsYclwEr5+uW7Q+Qv8rnn+qjkftvZTyF71kQ5KVkb99C0LoBwWm/Jf4iRyYq+QqF6V/3JOtH5qC5kfBFDmfICpHCfN0dLzRG5ywWbHZGN/kwvhH7yvG3QWIwaqv6l4JREWdRV95t9gMpKFnaMbdKYg2snyL6+92E4NX41TgeVkWqN/01ykG3ReQ7TT4s9MxIlrtoo/rRiHuO1Mz68R4bg+rht0liLaYUZUIpxhAFc1W3ZXsiNOegXr0dnID/6mG3R+R04AOGKJ9kdb9lf1UfUCbrCo9SLadfr/BfKy52gTNCSuwhrLl1Wgnm1aS+2yETJON+isJavniPqs1R6OgVyQlIVfEFWrWkZ2J8Gz8A9G6YYcrEkKENhJUx6n9fK6WVSZmUV+Npa7aeOwdOxgug779zfSukpLMnMSOchpLvvmqt28OPMptWVZTFssBsmE/Ew76PwR0w+zJsKl1ghtbeRgovxuf9kLBZzrsncrlPKARQ1caFfBZ7yHKaid2H3I97Wtg2cCdw81tq3q41wZpTA6yG5fipXGvqUddCZiCjrOVFCGwnRnNg857feCNvHlPPrX58oiPO3kTht/1Q46GOsC6LSYqgw5X3F98vu838hBbipdVQdltqV1ywygPIRhTMWOD+akuQhFBmj8KS6L9IGhRmGneb+oUFPb18Am12N8oXf1g84PTWoWy1KzHQd5npUV8TClYQcXbcfCHUubf5VCQAAACbtJREFUYy06Q17SDzrzMRWx/9VnFGxGeIabh4LzB1lnHPdnfQpCy5VkdvRU/ZBjLKM7Egrabsde5WYX0tkQqE3g8jAuSk9gxRB765jmUg2hMwfT0X6LSmiyl3nI55O6KqHJ0/27+P2+NsiVl53cc2OTV2ZqCJ1PUCWx425dko1OAYLFNXhO0QU+9T2rV6rAuRa5k8NCDaHzKKqkM2wap8x4Sc4R/ifHtQN1zer50DsksX4s1kXPC/9aQ+hg3QSh/kMyiRdNLQKs0cOcA6+Lf48KeWXpQCEzWqH2Ix2hswJ740h2RskrLZZzzM3f9Sv8ssFWgdvUSRoCkBJFdx6e0BE5yKDzO4t9FrgkOby9l0Wqq0TOmtIK/o0S8qWQY9lGstVjBpiDZRhP4bkBhc2QYssFgGP1iMX0BkTqRFsk+Ibh0TbczuVaQudPOO+KPTja4/v02LIegUPGajwrnHQ/JNIQo8NnczmOfedo9Iv2kZbQCRph48TC6vLF/rvnsoS6IVNGzewT6c4dle9bZmJbtJ1GG49oCR08iwU06rRifJt3/nW6WO/+MtJdb1aI3LTNJx5PMXDXhsCzkg3jx6iqIoG672YfTM7aq0LAidlHfcaFXKEbd9ovL94MkBjxzq6zNYXOR7aiGNY5u9rfLtgyZ1cp/d4nzgjd2tUda1N4yLLHTbLfagqdGbiyMiED1p72b3YKFlN57Rm0hQlCd3eftBVf2AsFHPHWPtM0hQ422OjOgvY6O56e5yzMFQSOx3YMZneL2BPc1+jg2QjlTHDS7YggXaGzGtdXEthFi7i7KRfTBYFjtfkwxDOyR/AhrtvEMA84FNCDE1lX6IocTlDQDAPLVkgeesMx8Yl6ySk++W9JFaLgqSwkwL8MJN0nmwFp6hjGxPH4m5eAqk8TjZFE9naKd8sp8pnBukF8VvGVI6JknirwJHQP4L98QVvoGM9wPjttoOJThfR+K5kywvO2BH5E2LlG4ed5BpNESCSx8Gnbjv/yHX2RY7zFy1IiX4hC3ibe6iI1PDkvqc9l7FXCQ4t6uFbPWdhza+Sk5FdrDJ3HeduP+UVeJL5WVthRROtvUi+NCxpe7KY8OLqnFjl9m8pFi8MY622NoRM0iueU4rZmK6vp7P7CY30xNNxYWVJb6/a30J6eUL83k2U1h1/3YoZaESdIMWGkxtDhuefAlJphdmJuV0nTEH5SGm7GdVUTvzZ3PTbJUwTCd3ioIiSUf1HSPwwL4Zvi0jiGGo9+uF5n5Bgfcr0LkTy3pyIx8UpFhGVzpStoBL+p0o4krvPZnd1pJ9NuVKbzDz3uSMs5WkOHe2IhDrqkFZGhpB45LC5KrdwJvN6K35mkNXT4J5Z5SO0O1CnrhrPhlFLBuVS0Z/VGjvEGP5QarVD/6dQSi1WkjGuBOskHuU9fpDl0eCnQO3E9jyr1R+WfICLn49+HTqeYy/kJqjDPbXEWHKQ7dJ7kb0CrGu3HnCb7VfNfMowlE0inVnKMCtk/3cR98nLdkWPMCOHrv0eF9rvJ1IfxT34r8R/+SfpVZrV82V0CVNV3tYcO2rZ9yFuRbyqX06tbvjfk7M74Fe2Hl1pkSy8wq3ap/sgxZonQNyX/cyttRHKC7zHuRo4hOuq96VLFLxZ45pIAgI4xV4Q7Uedn4Jivzhguc2gI7dfhrYny5N8h8MCpQYEAnXVCupd2ZnltkNa/MZDHPhAGf46am/hK0pfHJdQPPjQQkGPMWyz00d8jQ+/uNFuDi0Menp85eQo5sVWyRcIbRAh17Bk1KSCgYzwtpvqSGl/VnrXHXs+JJ2YxpJ60gH6j2nJfX6FIzLxfFhjIMcYGC5KMffNUWlptzpT+5ffZci8cTb9XZnKjT6etWChqxGMBAh1joaDeT2TYDiwnJNsudfhgHshUC7Zxu7L8NrsvUbNXkAv/90BBjjHvz8LszU47Ko+pPmu70mEERl2YuMbWPUtP2vr01A0I3n/U6wEDHV4J8X3xNaqt6WrO96Hr/tzf4KSR50Ns3Ta+xOumnreXhO8eagTQepUQX7tOsDU95Rd9mtawciw3ohls89ZVcV7C8Zv7tXjd1uKxgQSdadNJtmaPEIs0/fR13yryVonwwieusH3/+N6Oy0I2zrWDlNs+ZQTUmklTek7tf3YL7wjbmvtn7lB8OYynMFFOZ9fKoGQl6onT+JNP39PzpO2xjx1ZKYfB15LkQO+4c2sd5srligebbjX3nyyjGLDYED2WH2hGmVU7D03Z2olt78PMHTNekuoVFtsRlnTwn/uPG9xuO9S87PqZixd7zlyfcePOig5q3QdjVkiC45kUKLewtr27ecq5g5v2PNy7d8+mpz3L9q8ga5+GHcOIAwZlgwkokLiHKdlykDjcjGnkJR0JgcGTcMzTSHZ+xOBI+rJSDCMQuHIOkoTDqSBKjvuLmAeB24MYRiRIGBwpRzyATPdz5w+42z10RmbS4bAeBAlHmY+C9QpZMgPreGMRhhEK9KIGPOVoF1LkAwndAa1pjRhGLIhmHNiEwyVN8brMgPTRhs6AACPZgUw5xdQo75ksMgbI+QbsIznpMIQO4IhIAJX8kOMwME1kJoaRDZwGKOEwSlOxc6JRSn8PpHMzjHSgMhAJRzmYugHPZMFDZx9EZTOMAhv6pxxV6k8ZitB3dFmAfzThAIGhHH0TTgltbuX196CfFyxtR5MNpKlAzz6KWRbNOiaRpvRq54yWOTDgR7fpoHQ1Wu6w1cmky5yupvxokoGDbG36JJxEWs/5MGnRfm7CwXc0wSAHOSvtE46YGj329DM50bgINeEYTS6oQM2ZxiNoBfQafOXVomG1xWM/mlQwKy1FGo7jFPvT0ytsmbSa2dKMGU0oWACHujdtwpsxSZjuftGgRVed08RxNJlgB9z6NAhv7cyBOUFE0oDac7tmSqNJBE94e1J5WYXbAC7eFQqiZqNH0Ga0yMEPrMSoFthy1vYDfGQRh5ULlYbKOQ1GhwEJAvYCd+q0KFUGxfJLERUzKnjGOn40YRAFlPIpbSZoq+QMHu/EJ1FWcXHG+Y+mCaKBvIo42SGd4WA42Ap3Dv8kc/Kba6NznSTWW/585ORVMwWrQbp6rtDCnYzDeTxCRUfTAhmpRzLIg4TQVtZU0BjcS+ckNIJJmlz3UQkZTQXkh3akiSLhCz5kzQy0lIbGWl3uIi8PYpYUyhiEji4EpBjoBKoFFYth3XgjZ57LaqFhO8Q2QXIEppq4iOPstjN68tmPTjhQE4japmlkhgWZmCTxedlZOKmrpQXKD+WNs0y2rqEWbuGxmuICzN6MxgLpYorFChap/qOrcUbB8AYAJ7w9KMvM28IAAAAASUVORK5CYII=;" vertex="1" parent="1">
          <mxGeometry x="970" y="430" width="77.93" height="70" as="geometry" />
        </mxCell>
        <mxCell id="nHE7ZVSHZ9PsHLewhO-p-4" value="&lt;font style=&quot;font-size: 20px&quot;&gt;Componenets&lt;/font&gt;" style="rounded=1;whiteSpace=wrap;html=1;fillColor=#dae8fc;strokeColor=#6c8ebf;" vertex="1" parent="1">
          <mxGeometry x="970" y="640" width="170" height="80" as="geometry" />
        </mxCell>
        <mxCell id="nHE7ZVSHZ9PsHLewhO-p-5" value="&lt;font style=&quot;font-size: 20px&quot;&gt;Router&lt;/font&gt;" style="rounded=1;whiteSpace=wrap;html=1;fillColor=#dae8fc;strokeColor=#6c8ebf;" vertex="1" parent="1">
          <mxGeometry x="970" y="530" width="170" height="70" as="geometry" />
        </mxCell>
        <mxCell id="nHE7ZVSHZ9PsHLewhO-p-6" value="&lt;pre&gt;&lt;font style=&quot;font-size: 20px&quot;&gt;Services&lt;/font&gt;&lt;/pre&gt;" style="rounded=1;whiteSpace=wrap;html=1;fillColor=#dae8fc;strokeColor=#6c8ebf;" vertex="1" parent="1">
          <mxGeometry x="1220" y="570" width="180" height="70" as="geometry" />
        </mxCell>
        <mxCell id="nHE7ZVSHZ9PsHLewhO-p-8" value="" style="rounded=1;whiteSpace=wrap;html=1;fontSize=20;" vertex="1" parent="1">
          <mxGeometry x="1500" y="410" width="600" height="380" as="geometry" />
        </mxCell>
        <mxCell id="nHE7ZVSHZ9PsHLewhO-p-9" value="" style="shape=image;verticalLabelPosition=bottom;labelBackgroundColor=#ffffff;verticalAlign=top;aspect=fixed;imageAspect=0;image=data:image/svg+xml,PHN2ZyB4bWxucz0iaHR0cDovL3d3dy53My5vcmcvMjAwMC9zdmciIHhtbG5zOnhsaW5rPSJodHRwOi8vd3d3LnczLm9yZy8xOTk5L3hsaW5rIiB2ZXJzaW9uPSIxLjEiIGlkPSJMYXllcl8xIiB4PSIwcHgiIHk9IjBweCIgdmlld0JveD0iMCAwIDM3Ny41IDk3LjEiIHN0eWxlPSJlbmFibGUtYmFja2dyb3VuZDpuZXcgMCAwIDM3Ny41IDk3LjE7IiB4bWw6c3BhY2U9InByZXNlcnZlIj4mI3hhOzxzdHlsZSB0eXBlPSJ0ZXh0L2NzcyI+JiN4YTsJLnN0MHtmaWxsOiM2REIzM0Y7fSYjeGE7CS5zdDF7ZmlsbDojRkZGRkZGO30mI3hhOzwvc3R5bGU+JiN4YTs8cGF0aCBjbGFzcz0ic3QwIiBkPSJNODguNSw1LjdjLTEuMywzLjItMy4xLDYuMy01LjIsOS4xQzY0LjctNC41LDM0LTUsMTQuOCwxMy42Uy01LDYyLjksMTMuNiw4Mi4xYzAuNiwwLjcsMS4zLDEuMywyLDEuOWwxLjgsMS42JiMxMDsmIzk7YzIwLjQsMTcuMiw1MSwxNC42LDY4LjItNS44QzkyLjIsNzIsOTYuMiw2Mi4yLDk2LjksNTJDOTguMywzOS45LDk0LjYsMjQuMyw4OC41LDUuN3ogTTIyLjYsODQuNWMtMS40LDEuOC00LDItNS44LDAuNiYjMTA7JiM5O3MtMi00LTAuNi01LjhzNC0yLDUuOC0wLjZDMjMuNyw4MC4xLDI0LDgyLjcsMjIuNiw4NC41eiBNODguMiw3MEM3Ni4zLDg1LjksNTAuNyw4MC41LDM0LjQsODEuM2MwLDAtMi45LDAuMi01LjgsMC42JiMxMDsmIzk7YzAsMCwxLjEtMC41LDIuNS0xYzExLjUtNCwxNi45LTQuOCwyMy45LTguNGMxMy4xLTYuNywyNi4yLTIxLjQsMjguOC0zNi42Yy01LDE0LjYtMjAuMiwyNy4yLTM0LDMyLjNjLTkuNSwzLjUtMjYuNiw2LjktMjYuNiw2LjkmIzEwOyYjOTtsLTAuNy0wLjRjLTExLjYtNS43LTEyLTMwLjksOS4yLTM5YzkuMy0zLjYsMTguMS0xLjYsMjguMi00QzcwLjYsMjkuMiw4MywyMS4yLDg4LDEwLjdDOTMuNiwyNy42LDEwMC40LDUzLjgsODguMiw3MHoiLz4mI3hhOzxwYXRoIGNsYXNzPSJzdDAiIGQ9Ik0xMjQuNCw2Ny42Yy0xLjMtMC44LTIuMS0yLjItMi0zLjdjMC0yLjQsMS45LTQuNCw0LjMtNC40YzAsMCwwLDAsMC4xLDBjMC44LDAsMS42LDAuMiwyLjMsMC42JiMxMDsmIzk7YzQsMi44LDguNyw0LjMsMTMuNSw0LjVjNC42LDAsNy4zLTIsNy4zLTUuMXYtMC4yYzAtMy43LTUtNC45LTEwLjUtNi42Yy02LjktMi0xNC43LTQuOC0xNC43LTEzLjh2LTAuMmMwLTguOSw3LjQtMTQuMywxNi43LTE0LjMmIzEwOyYjOTtjNS4yLDAuMSwxMC4yLDEuNCwxNC44LDMuOGMxLjYsMC44LDIuNiwyLjMsMi42LDQuMWMwLDIuNC0yLDQuNC00LjQsNC40aC0wLjFjLTAuNywwLTEuNC0wLjItMi4xLTAuNWMtMy40LTEuOS03LjEtMy0xMS0zLjImIzEwOyYjOTtjLTQuMiwwLTYuNiwyLTYuNiw0LjZ2MC4yYzAsMy41LDUuMSw0LjksMTAuNiw2LjdjNi45LDIuMSwxNC42LDUuMywxNC42LDEzLjd2MC4yYzAsOS45LTcuNywxNC44LTE3LjQsMTQuOCYjMTA7JiM5O0MxMzYsNzMuMSwxMjkuNyw3MS4yLDEyNC40LDY3LjZ6Ii8+JiN4YTs8cGF0aCBjbGFzcz0ic3QwIiBkPSJNMTYzLjgsMjkuOWMtMC4xLTIuOSwyLjMtNS4zLDUuMi01LjRoMC4xYzMsMCw1LjQsMi40LDUuNCw1LjRsMCwwdjMuMmMzLjUtNC45LDguNC04LjgsMTYtOC44JiMxMDsmIzk7YzExLDAsMjEuOCw4LjcsMjEuOCwyNC40djAuMmMwLDE1LjYtMTAuNywyNC40LTIxLjgsMjQuNGMtNy44LDAtMTIuNy0zLjktMTYtOC4zdjE2LjZjMCwzLTIuNCw1LjQtNS40LDUuNGwwLDAmIzEwOyYjOTtjLTIuOSwwLTUuMy0yLjQtNS4zLTUuM3YtMC4xVjI5Ljl6IE0yMDEuNSw0OC45di0wLjJjMC05LjEtNi4xLTE1LTEzLjQtMTVzLTEzLjcsNi4xLTEzLjcsMTV2MC4yYzAsOSw2LjQsMTUsMTMuNywxNSYjMTA7JiM5O1MyMDEuNSw1OC4yLDIwMS41LDQ4Ljl6Ii8+JiN4YTs8cGF0aCBjbGFzcz0ic3QwIiBkPSJNMjE2LjUsMjkuOWMtMC4xLTIuOSwyLjMtNS4zLDUuMi01LjRoMC4xYzMsMCw1LjQsMi40LDUuNCw1LjRsMCwwdjIuNmMwLjUtNCw3LjEtOCwxMS44LTgmIzEwOyYjOTtjMi43LTAuMiw1LjEsMS44LDUuMyw0LjVjMCwwLjMsMCwwLjUsMCwwLjhjMCwyLjYtMS44LDQuOC00LjMsNS4yYy03LjcsMS4zLTEyLjksOC0xMi45LDE3LjN2MTUuNWMwLDMtMi40LDUuMy01LjQsNS4zJiMxMDsmIzk7Yy0yLjksMC01LjMtMi4zLTUuMy01LjJjMCwwLDAsMCwwLTAuMUwyMTYuNSwyOS45TDIxNi41LDI5Ljl6Ii8+JiN4YTs8cGF0aCBjbGFzcz0ic3QwIiBkPSJNMjQ4LjYsMzBjLTAuMS0yLjksMi4zLTUuMyw1LjItNS40aDAuMWMzLDAsNS40LDIuNCw1LjQsNS40bDAsMHYzNy45YzAsMy0yLjQsNS4zLTUuNCw1LjNzLTUuMy0yLjQtNS4zLTUuMyYjMTA7JiM5O0wyNDguNiwzMHoiLz4mI3hhOzxwYXRoIGNsYXNzPSJzdDAiIGQ9Ik0yNjQuOCwzMGMtMC4xLTIuOSwyLjMtNS4zLDUuMi01LjRoMC4xYzMsMCw1LjQsMi40LDUuNCw1LjRsMCwwdjIuMmMzLjItNSw4LjgtNy45LDE0LjctNy43JiMxMDsmIzk7YzEwLjYsMCwxNi43LDcuMSwxNi43LDE4djI1LjNjMC4xLDIuOS0yLjIsNS4yLTUuMSw1LjNjLTAuMSwwLTAuMSwwLTAuMiwwYy0yLjksMC4xLTUuMy0yLjMtNS40LTUuMnYtMC4xdi0yMiYjMTA7JiM5O2MwLTcuMy0zLjYtMTEuNS0xMC4xLTExLjVjLTYuMiwwLTEwLjYsNC40LTEwLjYsMTEuN3YyMS45YzAsMy0yLjQsNS40LTUuNCw1LjRzLTUuNC0yLjQtNS40LTUuNEwyNjQuOCwzMEwyNjQuOCwzMHoiLz4mI3hhOzxwYXRoIGNsYXNzPSJzdDAiIGQ9Ik0zNTQuMywyNC40Yy0zLDAtNS40LDIuNC01LjQsNS40bDAsMFYzM2MtMy41LTQuOS04LjQtOC44LTE2LTguOGMtMTEsMC0yMS44LDguNy0yMS44LDI0LjR2MC4yJiMxMDsmIzk7YzAsMTUuNiwxMC43LDI0LjQsMjEuOCwyNC40YzcuOCwwLDEyLjctMy45LDE2LTguMmMtMC41LDguNS01LjcsMTIuOS0xNC44LDEyLjljLTUsMC0xMC0xLjItMTQuNC0zLjdjLTAuNi0wLjMtMS4yLTAuNC0xLjktMC40JiMxMDsmIzk7Yy0yLjUsMC00LjUsMS45LTQuNiw0LjRjMCwxLjksMS4yLDMuNywzLDQuM2M1LjcsMi44LDExLjksNC4yLDE4LjIsNC4yYzguNSwwLDE1LjEtMiwxOS4zLTYuM2MzLjktMy45LDYtOS44LDYtMTcuN1YyOS45JiMxMDsmIzk7YzAuMS0zLTIuMy01LjQtNS4zLTUuNUMzNTQuNCwyNC40LDM1NC4zLDI0LjQsMzU0LjMsMjQuNHogTTMzNS40LDYzLjljLTcuNCwwLTEzLjQtNS44LTEzLjQtMTUuMXYtMC4yYzAtOS4xLDYuMS0xNSwxMy40LTE1JiMxMDsmIzk7czEzLjcsNi4xLDEzLjcsMTV2MC4yQzM0OS4yLDU3LjgsMzQyLjgsNjMuOSwzMzUuNCw2My45eiIvPiYjeGE7PHBhdGggY2xhc3M9InN0MCIgZD0iTTI1OS40LDExLjZjMCwzLTIuNCw1LjQtNS40LDUuNHMtNS40LTIuNC01LjQtNS40czIuNC01LjQsNS40LTUuNGwwLDBjMi45LTAuMSw1LjMsMi4zLDUuNCw1LjImIzEwOyYjOTtDMjU5LjQsMTEuNSwyNTkuNCwxMS41LDI1OS40LDExLjZ6Ii8+JiN4YTs8cGF0aCBjbGFzcz0ic3QwIiBkPSJNMzcyLDM1LjdjLTMsMC01LjUtMi41LTUuNS01LjVzMi41LTUuNSw1LjUtNS41czUuNSwyLjUsNS41LDUuNVMzNzUsMzUuNywzNzIsMzUuN3ogTTM3MiwyNS41JiMxMDsmIzk7Yy0yLjYsMC00LjcsMi4xLTQuNyw0LjdzMi4xLDQuNyw0LjcsNC43czQuNy0yLjEsNC43LTQuN3MtMi00LjctNC42LTQuN0gzNzJ6IE0zNzMuNSwzMy4zbC0xLjYtMi41aC0xLjF2Mi41aC0wLjlWMjdoMi42JiMxMDsmIzk7YzEuMS0wLjEsMiwwLjgsMi4xLDEuOWwwLDBjMCwwLjktMC43LDEuNy0xLjYsMS45bDEuNywyLjVIMzczLjV6IE0zNzIuNCwyNy44aC0xLjZWMzBoMS43YzAuNiwwLDEuMS0wLjUsMS4xLTEuMSYjMTA7JiM5O1MzNzMuMSwyNy44LDM3Mi40LDI3LjhMMzcyLjQsMjcuOHoiLz4mI3hhOzxwYXRoIGNsYXNzPSJzdDAiIGQ9Ik04NS42LDc5LjhDOTIuMiw3Miw5Ni4yLDYyLjIsOTYuOSw1MiIvPiYjeGE7PHBhdGggY2xhc3M9InN0MSIgZD0iTTg4LjIsNzBDNzYuMyw4NS45LDUwLjcsODAuNSwzNC40LDgxLjNjMCwwLTIuOSwwLjItNS44LDAuNmMwLDAsMS4xLTAuNSwyLjUtMWMxMS41LTQsMTYuOS00LjgsMjMuOS04LjQmIzEwOyYjOTtjMTMuMS02LjcsMjYuMi0yMS40LDI4LjgtMzYuNmMtNSwxNC42LTIwLjIsMjcuMi0zNCwzMi4zYy05LjUsMy41LTI2LjYsNi45LTI2LjYsNi45bC0wLjctMC40Yy0xMS42LTUuNy0xMi0zMC45LDkuMi0zOSYjMTA7JiM5O2M5LjMtMy42LDE4LjEtMS42LDI4LjItNEM3MC42LDI5LjIsODMsMjEuMiw4OCwxMC43QzkzLjYsMjcuNiwxMDAuNCw1My44LDg4LjIsNzB6Ii8+JiN4YTs8cGF0aCBjbGFzcz0ic3QxIiBkPSJNMjIuNiw4NC41Yy0xLjQsMS44LTQsMi01LjgsMC42cy0yLTQtMC42LTUuOHM0LTIsNS44LTAuNkMyMy43LDgwLjEsMjQsODIuNywyMi42LDg0LjV6Ii8+JiN4YTs8L3N2Zz4=;" vertex="1" parent="1">
          <mxGeometry x="1560" y="430" width="155.88" height="40" as="geometry" />
        </mxCell>
        <mxCell id="nHE7ZVSHZ9PsHLewhO-p-10" value="Spring Boot&amp;nbsp;&lt;br&gt;Controller" style="rounded=1;whiteSpace=wrap;html=1;fontSize=20;fillColor=#d5e8d4;strokeColor=#82b366;" vertex="1" parent="1">
          <mxGeometry x="1560" y="560" width="212.06" height="90" as="geometry" />
        </mxCell>
        <mxCell id="nHE7ZVSHZ9PsHLewhO-p-11" value="Data&lt;br&gt;Access" style="rounded=0;whiteSpace=wrap;html=1;fontSize=20;fillColor=#d5e8d4;strokeColor=#82b366;" vertex="1" parent="1">
          <mxGeometry x="1652.06" y="640" width="120" height="90" as="geometry" />
        </mxCell>
        <mxCell id="nHE7ZVSHZ9PsHLewhO-p-12" value="" style="outlineConnect=0;dashed=0;verticalLabelPosition=bottom;verticalAlign=top;align=center;html=1;shape=mxgraph.aws3.sts;fillColor=#759C3E;gradientColor=none;fontSize=20;" vertex="1" parent="1">
          <mxGeometry x="1810" y="587.75" width="61.5" height="34.5" as="geometry" />
        </mxCell>
        <mxCell id="nHE7ZVSHZ9PsHLewhO-p-13" value="Spring&lt;br&gt;Data&lt;br&gt;MongoDB" style="rounded=1;whiteSpace=wrap;html=1;fontSize=20;fillColor=#d5e8d4;strokeColor=#82b366;" vertex="1" parent="1">
          <mxGeometry x="1900" y="535" width="170" height="195" as="geometry" />
        </mxCell>
        <mxCell id="nHE7ZVSHZ9PsHLewhO-p-14" value="HTTPS" style="shape=doubleArrow;whiteSpace=wrap;html=1;fontSize=20;fillColor=#f8cecc;strokeColor=#b85450;" vertex="1" parent="1">
          <mxGeometry x="1420" y="552.5" width="100" height="105" as="geometry" />
        </mxCell>
        <mxCell id="nHE7ZVSHZ9PsHLewhO-p-15" value="" style="shape=doubleArrow;direction=south;whiteSpace=wrap;html=1;fontSize=20;fillColor=#f8cecc;strokeColor=#b85450;" vertex="1" parent="1">
          <mxGeometry x="1810" y="640" width="60" height="240" as="geometry" />
        </mxCell>
        <mxCell id="nHE7ZVSHZ9PsHLewhO-p-17" value="&lt;br&gt;MongoDB" style="shape=cylinder3;whiteSpace=wrap;html=1;boundedLbl=1;backgroundOutline=1;size=15;fontSize=20;fillColor=#fff2cc;strokeColor=#d6b656;" vertex="1" parent="1">
          <mxGeometry x="2180" y="530" width="120" height="197.75" as="geometry" />
        </mxCell>
        <mxCell id="nHE7ZVSHZ9PsHLewhO-p-18" value="" style="dashed=0;outlineConnect=0;html=1;align=center;labelPosition=center;verticalLabelPosition=bottom;verticalAlign=top;shape=mxgraph.weblogos.mongodb;fontSize=20;" vertex="1" parent="1">
          <mxGeometry x="2219.4" y="560" width="41.2" height="86.2" as="geometry" />
        </mxCell>
        <mxCell id="nHE7ZVSHZ9PsHLewhO-p-19" value="&lt;font style=&quot;font-size: 10px&quot;&gt;Read/Write&lt;/font&gt;" style="shape=doubleArrow;whiteSpace=wrap;html=1;fontSize=20;fillColor=#f8cecc;strokeColor=#b85450;" vertex="1" parent="1">
          <mxGeometry x="2080" y="602.5" width="100" height="60" as="geometry" />
        </mxCell>
        <mxCell id="nHE7ZVSHZ9PsHLewhO-p-20" value="" style="shape=image;verticalLabelPosition=bottom;labelBackgroundColor=#ffffff;verticalAlign=top;aspect=fixed;imageAspect=0;image=data:image/png,iVBORw0KGgoAAAANSUhEUgAAAOEAAADhCAMAAAAJbSJIAAABL1BMVEXmGTjoGDjmGTrkGjjlGTroGDnpGDfVa3fjGzf/9fbnGDveETL/9fP2+Pb29vXz+Pb/7fH19vr9+Pj/5ef/8fL9+frHMkX7+/b/9fTsxc7bjJXQSlvfhpDeCi3ENUfNTl3mp67UCy/5xs3nnKPgq7fcf4r20dTOACfx+PrBACzYkqLLGzT/3t/MAy//7ev59Pn31+G8ACPVYXPHKjzWdYHWDzbMMkzeXG3rwsTz/vTIPVXKWGfHTF3rrrjss7XHaG+4OErQJUbok6LNYW7FAB7ho7P5u8LSb3qzd3u7aXS7ADLVg4rtu77LQ1DVl5v/5/ClMEXhwsDcsra4Jzbsm6nHnp3XU2ngqaqoPkT2wL3zsLDLeITDhYuuS1DdQ1XxkqDsdofdjo+sIzPQPUjeLkTx3cErAAATSklEQVR4nO1cC3vbNrIlCBAmCYIQKVFQJFEWJesViaJjWa4TOW5TdeNtrKSvbLO72Zu9udv//xvugKQcu3Xa+92tHW0/nKZqRL14OIOZM4NhDUNDQ0NDQ0NDQ0NDQ0NDQ0NDQ0NDQ0NDQ0NDQ0NDQ0NDQ0NDQ0NDQ0NDQ0NDQ0NDQ0NDQ0NDQ0NDQ0MjB8rxy6Om+o95/+dzH8AYf+pT0Pg3cbvf/pGA1J8/hKOaCrdYDGObMabeYPyHW9JFWJGjFP4YpmVZ2LYsAo/sZNDeZzbCmP76N6grs8thybSwtZxeIU2YYRvUIuyoGvHaIAXe9q9/Q27iHWaIKCKfDa9w2m3XU0xtezp7nGVR9YliYBau/B8KGxtsT/r+eAz/BlkUhfNuB9F45WXZ48fhANvU+s9miCyb7TmcC859LoTvC9GYnbH4x0qWCd87wmDjX/+G3EF3ORpZNAaGAsiFnuRAa8zl7ASnp1KIaFYnhvtbDIGitcMMsUnBhgJ4nT59en469/hYCH6esM6m5g1fLjE1Ddu1qOFiZS4LFi62MaRKAsvTQhjCL2HUtVx4ne6kJ2MCDBuCB97naZJOn5yGke/z+UtqT5+8nBKL2hB2qGEBUwirhCBgSSgyKDwzVIaxsUVpAmllV82Y27Ah/Ex+HsNZky+qXASBHMQGY6PJMyBDgbhNSDxKJ5MkRkAVY2KzBJ5OUhbDP0n9y2dwFczdTBlbLw2cPYaohdJzxTB8mLSab3rVzdKerpq96mq0GPRmlerzdQLZEhlJ/XIzrNaqve5g/+SsWY1eJ7YNtv3UbG5DwdAXY2dvaRFiJP2QB9w5+Kob8lA8WCbPa1KGr9bDMPCllF5zaSOStmcydKJxwKU3/6bicVE7Wxp0RxmS3IYcbEggaFBgKAIh//RVNxsL/0GadKPA5zUn8OE9gRDeitG0D/FoPBbcD4IAwrAUvny+pMj61GRuBQQOlQ/HgbfHIKuhSU+qddgedSE98gcpO47GIZAGglxk2Zh3E3bhgDiIZGVWk8EYkovnVM/rNrZ3M9YUDOH0gSElOF7NH0Pa91ajbuhzYGivHaUDuDfrbjyVNnvpdMjHWWXe7NTPNtLPMvnnL+rp0jJApX9qNrehYAhSxvt68uLFk4uZ8Pk4HE4TYOiDl9KzGoQhf365SCYbcMfocPJyDkfCVyMIs5NZmAV8M4qRpTLITjI0kWIYjLOwUatUnIZaWr53nCRd6SsvpfsV4QfOOmE4aYJTisPJqqZseoYhtyy7oXgcfDOB4ktVYTvJ0EBmwTACDxSPQZxCnOlOEaxDX0UaxVAEjRY16LIpMx8Y7tcgxngrk1ruUl2HoPKCFOJtJxeiaZj5Ogx9kQVBBCVG6J1PCR11ZeAHEGkUQ99rQbJMmuC4/HDSqYChw+6IxfEPVRVgZxOCVSGMd5JhGUslxE/OIyiear291LBp7qVBbsNABB7Y0GDNyJf8MB39DYSd751/vr6cSTEOZJ9ZZGdFG9gwX4e+kN9133S7rwZn0yUcRh9hyB8fToxVJYR0EYZZlGWc81lHNUF2n6FS3gCmNDVI7GsMx9cY+sCQJkczSPnwMqxHP5ydEfs3Gh2fFAXDMQTHi7wORLToI36MIUQaypJvv5O+Lx3Pqw0fLmwIMr9RQ35KbDM+qDZIaVD6gY5TceMWhnHJ0E4HVQfSy6w52NufJobqzrm7220rvVSMQdNgZUEoZBHGKGdYZIsxzxmarIilL9CeE0JinH07Go3iOIbCFyT37jIkhqoPec7ww1GEQNOIMuNDhgSGtIg04vBF3I18iKrz7w++P+g39+pLRfCTEfhtEAMYQupzbjA0UqgpxqWXgmhtQVkYN0OILIeTuC+l0qpRBvE0dKpfPiP2TtZNV0j2nMciuGFDOAj1oeCnoxgUDNRMLXDguCm5yvhs5QFDeBVknfQfC2cz3eVgihF4KQjNDwwLeaKUN49yTQMKptYyqJEoho9nE7rc681qtUbDc0AGQb6QzeUOx1KkOsJexINwrzxLxRCrbCEUQ+usxoMIVBukyKaUPFL5cPToh87+an+1HjxocJmJ2bMdXoeQ/ljrQAGkZ35E7dRgzAbfw7EvE/buT+ov72xs0iP1t4fTVrPZfP8ZA8Txo64jsjEEop2VNIYLuYHELGHs5lJySRwvoWTCdhyPRiqRuC5WmoelTyUEmGZMbRMhtq754RgKDTC8Zd3SL/3YdkCxFsq99DvdMjCViKE2sehNM9jTlBVuW54GCAHTJPC+tAcRVXZHNnzCHr2CtDmu7WOINUDxl9//f91Lvrt8mnevwRwE3PD68enz09dHSXF2+WNe/1EL6qoNpHt/fjFJ03RyOYcyI5gtim+6JaIiw7Y/XlXBF5vFFuxdMjSM5WKxWNr0ek5Dk0Mue2n++o0ftyg7dkDt+M6st+nNQz/IhHyd2K75MVvRX9ktzxnmV/YONRGm7GhWnR2zm12WyaHgvUfFb+duWmz1gpnsherXqN4blwL4CTlcGNZHz1BVVh99bXsOxh32B0yc90tlm92UJTnDtPzlnF3hrdSyWP15JlXhBMIm4zJ8fmJTWMaMjZKfU7HU3kByW5sRba2mLgAhxh3Wl3nPm4ftuPxl+Cn4MXdyGPjA8INpwJ0siDQUIgpJLzZVxwkdQHWzToiNbLRcf9l7DRTVYix6NvBAl+vmaT8xcmVuQSwytx4LtDAEuGR//S6BiKbqmTtjiK4YFuHbzM9wy7Bkja42QqnaUYuT+tnFYDC4OFukxLVsbLlPalx2GVRgEJzzFal6ceyd58l+UoTp0hGKn6XIsilaPD34y+Z9atrGHfbLrzEs1lyR1YAheGnhOwTnbSbFEsG5gM5WljRUzscqWILhEFs1eNhk+RxOvnIx5CGL/QilZzMxVB4B6oZx5Y2gFm2y7L568+bV6R6+GebugqFQDIt4ggh4DKI3GOZmpaiINBaIAARu5ZpY7Y/CeVNYS6pRIC9ZbmmcW921bcu+yMbhMUNmzoxea+eoHUjyovfXv/259/XfE0xvyzS/K8Nouw7BufIUNTkc895kezaGC1W8shWsJgsKKWooO6qyEKtePpw6O84C5zg2ygRK1c63bbG3kQj3WLE5DKsYXXWN1XXBE2B4+vX677BQ7y5b4Bvr0MAMCneIibSMpcproUYePVq8gJhoWZarSuZ0REy72CRNsGkDl3g0AA3+ecxKJKNRatN4dBlyb5XEqhVgsHT5YadYTVyBAPzH3/+re3C8NOhtiu93YmggVeNn7ZiAbdhisBkOe91V+ij3Ulh0Bk1e9ocVr3Z4vkpV/GOty03vmcGmF5vZ/PDpXooZeze4/B7K/oP2Fl+eD/85etm+PIXi6mDw/n37v5et5vD5FOwOUdRCKDlqtwetzt9evT3vJkoA3ln9hSFI7HkCGEIYTNYzT4aZ4N75t73chhY20mYlyqCi59J7CplP9RllY5Wuh42wAUWX150a8Z6Ej40FPIZSPURZFPVHbyN4wkV+rP+oJx/Pn9jgjpaKWdNZKL1WvDga7CdqdeO7ZdgQTjtGeDqocT90KhU4peGhCHopaOsU6iPemPVmThiFw4WFk2Nv7PzjVSMIQkcV/eHrBL5BetnY91SGhMrYU73Gfvo2c1S7w2s40bw16ju+M2DUgjAGNem6EfDh1CJQ07jg5ZBv7pZh4FzGdHlcc/za+arTWfVnknO/N3LNpOkFXu9skj5abcLM2aRUdW6CuRdVNpf766c1P6idxf/aW0PF7F0elXjrBFE/eXe0fgPF49v10dFnS/vMG/PTlAITSA5xP8ockALENe66x1MybLRjWq/6fuU4ZQwEWL3n++ClFjnzhH9aX5qWzV5suO+sGO1UhQid3lkKceXReTiOoFYkyUCK+RkcMaDQjFueCCHRx6NmNK51IM4wgqZD4Vfqhq1qECsdjkPvDJSiGtXB+C53rXDeTRx7bZb0PeVaIMpApMQ/VMdQW9B0ozbSbBX/KVhB8PMULYCh83CSC1l71ZDyT6A82UCOK6pvDPnAtVs1P5cy7L30a3WVBqEmaYY+5EZQMtQkL71ADqdU5QyDoDvtthazGIHXjutVGVV/2IqLQrXRJxXBh4+UPIZrPRmGwfAZXVSzqPuVQSHMItqpCHGQEDMehKKyT8uCt+X44KUIsabktU6hJKxOTQbnqfoQSdoyCN8nheXueJKqZCjbI4g30dNkO7lVaBoG5y27iXqfYRvLAxFUO8Zi5kcPEwveCSYAlx0fxKbJSoa5LsOtRsEw2TKEIth69ECKWd1WAznpcymcFqX3cbdDMRPl8/boVaQEVmkFVDAcdaXvXY6KRB6P+lLUzuhiJqKHDHwNQ2FSr4rgYGQabOAohuWXthocGBofbIhB0MIT4ewxUHOo/o0vhhPjXu7nKKe+wvZXz4NxDeKIlRMsdWn6XPjhX45LvD31hFzHiyoHhhaFqo6gepUDQygacxuW5bLdAh1YMOQlQ6X1nsx5dJ5YyGQXmZD95f3sBZRTX077US8Yz/eNbeguGKrpGuFJJwpDT0KWywJvDxj6/CFzlRz6wLBch0XfCrec3IbGFUMLtC6d9PygusDITbqB8FaI3suIUalLszbINH/euppbLxkehiIIZcgjeICUH0lvj0EsBYamKhaIAQz5Qey65TrMP4tKhvgaQ6hP7KQdjZ1VTN3pTKV7276Xac2CoVAMIV21mOuqo6ZZemlP+M73zWtov7MXEHSBoTKACwyDABha19ehZbS8baSJeK2u+gP5HHVnLpxu4uJVDdIl+5Ue3O+KbfX01RDyfSv+EEuzMGc4hpoorxZUN1jdggHZIrrOUPycIVTvBUP6gWHxS9ONL2aPiJoObKwMdE/TKYohxHaINFEAkcYq2xVFPkyehoE8jqEctFV7Qu3wIwO89AZD5aWoZKjkCTVvMAQdUzKxl5eO39gn6ZDz4QLd16RfbsMgvBz1QX8dw9kV+gIqYAH58BJe6jMTRBtVvqtK2597ac6wjKU/Y0hLG25BFvMsep+cNJTiUf2P+2TYHl0446gP2YoUfZqZGtJjq4bvPBghO7+vBKocKALwLxlCYAUb8iKW3sKw9FLqjk4DfjppR6GzryZu74VgwXAs23GnGvDZxCWuOh3cmXNYh/GzoZ95LdVycS3VTIRalRb58CZDygaeyHUpRGNg2PgZwxyUxO0smP3PRu0kG/c2U2zlFXA0iNWMWuNVAho0hlr/NICiKYUTDwMxPIF6A44ivPhsqSINDx8yompZYuf5MEE0HmTj2hkhiBBKWKsB1RNTW//wnU9sS5XwYFzXflkJvD/DpezHd9kDvgHVuthzfKjxbSU5vH4nHY0WFzOo9B8fThCdDqEiGK6nSRyn0/Vw/gWhiznPFEMDNE1hwyT30sB7m6g2IxADhqFqBLNLUNgXiWszNe8Pb58MA/mdF1ZWzLiv2xstK1+H2XtmJAMPxFT1wWYzCwFSVBeUsrOq5GFj2G82+0PI490l2FAEDxOgYlJk17+BbJFAAbR2BJ+tXkxa7+BD+6oCZhbCayfz4eiL1jtFyMVJN+Jc8sOpcW8MTWLnXnrJkJEO5qojw1VL5s33Mqi8tBFQnEmf+xEcFbLRe0lokS3A8VQbsVPh0QEUGqg+VFPSlZrXXFLc8jhESxPbUzBx6FS+URPwVPW1LkIeQLof3Qu5kqLBPqvOqwMoFozk7HlVhpFTGw4m7WplfsSojc16d+ZJHjmhNzyeEkx/GlarTRDQoLAtuhjO590R1I/LddWTAZfy9ZKid9X5/J8JsezlXlV1ozLZZYZtIhOBrAlE5ewep1Nsy6A/nXROfiK22mlIO+tB+3g1ZfZPJ/V//USpa9o0qa+b3YP+8VnK1Dba8uTk5Jnt5gN+NoHPPoshjJDly+bpsLcZnEC8XXbUW0zVuH/S7MHRdp0Qy1WyZsh9cThlv31mvy8oxURdYcgA6iYYtXEJgcF1VYxX/fxctjHFSc06Y9UIUHJa7Rqqu0+LFWUnqpsMvoBcoF8mO7XpNlL3bar9Amrnk7lZPynV731ydK/u9/1wJz5xcXmAmOrOrXwLCtF8C6PYRlISBl/tKinqNI8oLr0+rWi6ascKxAJcE/YW6ov9e/+/GJjXLmf5F0XXJOW2KPB3tzfgKRuWO6b5ZKNFio0bNaRC1SwDPDWtm3tJmCi5oLbUSPo0g5rl3qf6r4+EWIXL5Y/Xdg8xyR9RcR/7lqGR77eY1+8DLjbRrj3FuVdAIYGIHSefe8I7YgjftxGvK8R8F/gqVSmXzc8Q0e04Adq6Jd6+A213V7dDGx+Qf5LmQ0jIIqPVzA/Pp+g+Z97N8ixhaZGymskbNcXAsHI6Qko7qvep+w+LfXBc7CuWHyi5XD0j29cw3o4FQWptdecZP+zYlrXbs4z/X6C4HfJw1lla5A/K0DA6s2q/zsArbpue+iOAkB/rUIaojLPD05r/DrAaakC2gf4g/0+RXwJKEVA+Kq7u8EjxvwVLjTbCo3Wv2UJDQ0NDQ0NDQ0NDQ0NDQ0NDQ0NDQ0NDQ0NDQ0NDQ0NDQ0NDQ0NDQ0NDQ0NDQ0NDQ0NDQ0NDQ0NDQ0NDQ0NDQ0NDYwfwvzmx8IlbmaVZAAAAAElFTkSuQmCC;" vertex="1" parent="1">
          <mxGeometry x="1765.75" y="880" width="150" height="150" as="geometry" />
        </mxCell>
        <mxCell id="nHE7ZVSHZ9PsHLewhO-p-21" value="" style="rounded=1;whiteSpace=wrap;html=1;fontSize=20;" vertex="1" parent="1">
          <mxGeometry x="50" y="420" width="420" height="580" as="geometry" />
        </mxCell>
        <mxCell id="nHE7ZVSHZ9PsHLewhO-p-24" value="Server 1" style="rounded=1;whiteSpace=wrap;html=1;fontSize=20;fillColor=#a0522d;fontColor=#ffffff;strokeColor=#6D1F00;" vertex="1" parent="1">
          <mxGeometry x="90" y="570" width="120" height="60" as="geometry" />
        </mxCell>
        <mxCell id="nHE7ZVSHZ9PsHLewhO-p-25" value="Server 2" style="rounded=1;whiteSpace=wrap;html=1;fontSize=20;fillColor=#a0522d;fontColor=#ffffff;strokeColor=#6D1F00;" vertex="1" parent="1">
          <mxGeometry x="330" y="575" width="120" height="60" as="geometry" />
        </mxCell>
        <mxCell id="nHE7ZVSHZ9PsHLewhO-p-26" value="MongoDB" style="rounded=1;whiteSpace=wrap;html=1;fontSize=20;fillColor=#fff2cc;strokeColor=#d6b656;" vertex="1" parent="1">
          <mxGeometry x="90" y="770" width="360" height="60" as="geometry" />
        </mxCell>
        <mxCell id="nHE7ZVSHZ9PsHLewhO-p-30" value="&lt;font style=&quot;font-size: 10px&quot;&gt;Read and write&lt;/font&gt;" style="shape=doubleArrow;direction=south;whiteSpace=wrap;html=1;fontSize=20;fillColor=#f8cecc;strokeColor=#b85450;" vertex="1" parent="1">
          <mxGeometry x="360" y="657.5" width="60" height="90" as="geometry" />
        </mxCell>
        <mxCell id="nHE7ZVSHZ9PsHLewhO-p-31" value="&lt;font style=&quot;font-size: 10px&quot;&gt;Read &amp;amp;&lt;br&gt;Write&lt;/font&gt;" style="shape=doubleArrow;direction=south;whiteSpace=wrap;html=1;fontSize=20;fillColor=#f8cecc;strokeColor=#b85450;" vertex="1" parent="1">
          <mxGeometry x="110" y="662.5" width="60" height="85" as="geometry" />
        </mxCell>
        <mxCell id="nHE7ZVSHZ9PsHLewhO-p-34" value="" style="html=1;shadow=0;dashed=0;align=center;verticalAlign=middle;shape=mxgraph.arrows2.arrow;dy=0.6;dx=40;notch=0;fontSize=10;fillColor=#60a917;fontColor=#ffffff;strokeColor=#2D7600;" vertex="1" parent="1">
          <mxGeometry x="590" y="540" width="240" height="156.2" as="geometry" />
        </mxCell>
        <mxCell id="nHE7ZVSHZ9PsHLewhO-p-35" value="" style="dashed=0;outlineConnect=0;html=1;align=center;labelPosition=center;verticalLabelPosition=bottom;verticalAlign=top;shape=mxgraph.weblogos.mongodb;fontSize=10;" vertex="1" parent="1">
          <mxGeometry x="200.5" y="780" width="20" height="30" as="geometry" />
        </mxCell>
        <mxCell id="nHE7ZVSHZ9PsHLewhO-p-36" value="&lt;font style=&quot;font-size: 30px&quot;&gt;AEM&lt;/font&gt;" style="rounded=1;whiteSpace=wrap;html=1;fontSize=10;strokeWidth=0;fillColor=none;strokeColor=#FFFFFF;" vertex="1" parent="1">
          <mxGeometry x="220.5" y="475" width="120" height="60" as="geometry" />
        </mxCell>
        <mxCell id="nHE7ZVSHZ9PsHLewhO-p-23" value="" style="shape=image;verticalLabelPosition=bottom;labelBackgroundColor=#ffffff;verticalAlign=top;aspect=fixed;imageAspect=0;image=data:image/png,iVBORw0KGgoAAAANSUhEUgAAASsAAAErCAYAAAHxo5UiAAAAAXNSR0IArs4c6QAAAARnQU1BAACxjwv8YQUAAAAJcEhZcwAADsMAAA7DAcdvqGQAAOs7SURBVHhe7J0HeB3Hdf0vOxoJsAEECYJVlaoU1SWq994bRVGiqN4l27HjOLHjuMQtcUmzndjx304cl9iOS2zHieVuWRTFgt57BwGiF5L/c+btLGf33ffwHghQpIz9vt8H4OHt7syds2fuzDaZWt72y8oMaVo5TwpDFJH8eVKMnyUr5kmpYa6U4e+KlXOlElStmivV+KwG1OLzetAAGkETvt8CWkHbigzp93Y39pKfJTdgAyxEQQz8QgYKqBeuFtThc1s4VrbZK1wbfm/HdzvwnWFv9zGXGfiyLdQegg3sttjPvP9HFQ5RLsfvfuGwQxM1r3Bq1FgwfNa5VmSeV4boBRtgrU2hWBCwS8EW0C9cboYU56ZKyZIUKc9L9wsXr0mjogb2esWIXvAl7sgvFL68M3+uvGnh34T/+85t0l7zuAzWPiFDdaAeNDwpw6TxKRlpflpG2p+VEVswMGbUUIQZkZKEFvwzEC2vMDs83uDPf7lOGqsfkwHy9JlS5a1T6Dcpo44mzZglZS0oHBgdeEkOeAULay1SMEYtUrA5kZKEFvzTLxgKYaLlFWo7KX9M+ivAtGmynQU334s0q2lS/B11IORnSFXrMzLaBvBZ3OZEEVIiJQkt+EKgKd2ClT8q/WWAf9tm5ff4fcAKmQMBn0UKxgPBOQi6no8UDv+Pak78nlDBCrhD4GuMkfIKZZozXLC8uVLQ+ZyMdmDH2akoXKhg1jrw//3Q3X6so+oMRYhZMBpoIGofu1Tqy7fJAAtjYaGWz5Vdpy6WomUZshursoAmYmuypHRJqpSeslCqF6YEjk5zALSjcL0vyAEWDAR0hu3oBfMEzML5WqPIM+dECmNh9AofMa69E4UerMERyfWwfsk7NkgTj0r8r+Tbt0gPI+kWbFWm1Hcgaohy4gXDP0vcwn3uKmmqekwGWUCfubK7bBua1dNW09MynDpDClg4WsczZ0jDD+6QblTAiP/alVJ/2mJTKGsZ9dDb/u4XTdQSKxi+UIov+IWrfVyGPnuFNON3E0Fy0kIpzJhhmq4AzVqYMt18HhD+KuhrQaQZK1fNk6rKbTLsFixrtjQgktRaggXDRt3C0ThXZ/q6i4DCVMFYm9BcqdMj/uVV5JBVoGCrs6SCWup+Tg7kpkUihu/4dsGCLc1wxB+3KedKuS1cbrqUomDD+N3uuAgRKpoxTQr2PGya0ka2hLiFwt8mWqCKR+HqeVK7JD1gsI17UbBlc02hIgWLe1RyY9woNr4cBWP3wh3iM7PznueNLszvdWhm/rQFUguFIxA/TZfU+KSM4H8smLGKLhTstU0ywILh7zF8DBvzNloJG6hoQHNxZ3bH3SiYKQioZ6HDBXIKxSOxnwL3tFW81VTEN1ceAK9vliFsyzQjvhe7YNhADTfIDS9Nl0rqyNuZieKilEghXtkgze85BweFUiDi2UMN+ssa9pP4f/3tx5nImEKBZkZsbZa0m4KhUPiMfWXMgrF2pnCEnTB++lEkMM1yfv6HzdIP7djP/QLZQnFb37tdejtQgIuWmSObhSKmj0TEDixJOxStsQpW52EKyMzg+bOkxe6QOz9hodTMmx0pzLxZUoHvmf+5BSLPrccOESkYakPNYybyfrRYME8WfrTwk/lYDI1FNFCPDZsCvv6gDDAz8HZoQF9Ys30zTNf7e/BlOYAMooZ6IukzpOaL18o+bofbmz1d6s9faprRL1Tvi3JwX+RA8qM1VsFsuE0BCTMCWAQLYSNZS928/0LpgHnWtj0ro93s+/B/fp/dDfUD/2uYP0caeoL9Ygt+tjJay9KChQJdKELMglEL3IhfwIrHZdjLCExBfbDjoq3o3DOkHv7Gz1gZw8Zl0gKvGzwr2xTEFMijdR8KamwnVChUuBtFiKExbwPcGGABTSHp0owCfwd+ATwaFyAydHkcxaPXrDSCNhEitkAEXdx+04RKocA+FCFmwdrsRoBbyGY6NTbKwtkCa7iF8QsE2hqekP1s1mXpeqFAD4oQsyl5JBlv8QgUkoc4I7csNVIAi/2/h13HFAj/b2M0xyjUmAXjShxKcQPhQpqCDr8iByleamWWmEIFCmLJSZX2QRwkLJDpAQ4VKCpSBJ/1oggxCmZX5EaUQrocfI8c5E41GCHCgiFKgQIRt1D4u9ejD0WIoTGsYFcGwUK6BXXAUdmRnSIdj54m+95xtvQuTpO96Gft92MVyC1Un2GeyYj14dt0kUe8lbgBt5CHCpoY/np2W952o6LEAhnmmi4JRdCXE7mih92QX1DCncXC/Z6HXxiC7xwq0KFCDYBB7PuySBH0ZRq4cek8+R03YDfo4RY0Efx14xSIHMA+HwEzWYB4Cwt3POCX3wneNYk8CdaDmE04tUwtf7xLfqbMxziRQ7VDg9vIVIEZZWuDWvxtBiGhtNqOH5kimYwD67Bzb8M6nfj/X3q7jL9gRVsITgNomAImWTCTp4FYU5qxF3zBFsbMSWDFQxMnwPs8UDigFcwfrnmFstlsMFrs/CP9a8xJ4Jn4EnfkFiY8M+1OY5qCIWKcCyuZj7ElRulleemHxpJeoaKaEdvQojU3Uozgkod/mihxx0CdmebnSzJkl5mVfjwyvWRmpr1ZaY7QORjmzDSGZyxUQtHKTpf7vXIElhPwhahpTPz0Z6SXZ8ibld6MNMaCg4tSTdRMM2KdQ/OrGJlXbJMhDnw5vMuJzOao2sLvplCL0mSrV47AElUoFgSwQNvPWCy7OBuNCA3wf+Y7wWaMCD+krV1bZJAFK0ch8Vn4SPSbEIV61CtHYDGFAmy+QKEeOVVKOG152iL/M1MoYCbmQED04SMxc5ZUc9w59JIcxOdqE8aNFPA1xebLSpE3OD2eMUv+wAK52uL3uM7z66W+/RkZwfiwD59FFYq6wqC2llNN7znPZKyMVsKF8i2BO+XO0WQD37/dtLspEHZgCoVR9e7jMmUPIjDirWci1QyRL02T0pMWRSZXXM/CPmqc6XFbKKOreIWyU5SmYDu3SC+FzUL4oLBl22Tg7FwpWJ8thfj/YHZqRFOrUSgegcjlG9JnSjmbbHHqIWvAumaStzNSsMQK5YnVLxgPe3y+AyuyOQ2cu+dP/H8PDvkCNEthNcSP7w7RBlDwshVO83U860+umEJxboLzFPg94Uj5s855aVLIHeF3EzULm9P7rIA+hZ9RXU5TpHDGQDGO3O8VyvcqFur/7pX+hArFDXLD3EHjU8YIuVNGzYfR4yH+k7sxsFAKZEX+znOkDePCg9AQI+W6esMv7pdBThl4hRpD6NigLRgd+mf3SA93aqPHHUDgRWiuIX6G70UXyDtpwChxKgCj6WpOM3mFMuaJAUGDV6iIT43RfGaOlFCw16yUCu6QOyYYlJqfz62XxvlzPAcPRcjgFYozMvifidLilEOFgq7MbHOoUDHMExsyG8SG2YddttwcOWY2mazJjBTiqpVSN2ea4962QF5hCK2AcxL4jinUkvRDbo7tmAldFooFwvdjOzo3ZDfKTvV7t5spRu7MRJDNx5886RSIjFMgbsN6E488eFvdf92OMaAXJdA0e5qZ/o7MmY5VKK9WZoaZNaEWvJ35sGAtz8jw+Uulxvncjw7XJ6kzzAz1KLXjFgg0f/c26Q9P5MYrlD8fip7dzC7bmtsd0xDt75xws/+3heG6/3cPupuIsOu9+Xi/QCiImQ+rfNycMjZRws/YhcI/WSN/ZpkFmDk9sEPTTdjf8d0aHI01n7hM9rKA2zfDWLHeqQtNIczhb6YfnQLhp5nAxUHjFwg/98YrFDfGgpnC9bwgB1kw7sijdlm61LJJliCSyDhrOX+KqJr/L8IRxmbHtupwhDXSp85aHJjAbe3DNlkofMZ5MDuV1BWvUKwRYeFMARmZl882PTtr7vOxS6TrM5dL1/ArRjMmKuSnd8vAbWulHT/7nTOspkBzZkgrI4e0ORCluIXywmvnPE0BEeYmdgtIXaxYbSQtjaOvyME3H5LBg+80+ZIpCPEKYwoE2lggZKTsggIFQpS74xWKKxOzMbtxZI9DbDJ8h4Wy0QxjKxNVmNVZkQINvmwK7c4A+jN/8Zov5gzyZ6+UXuoFnTDzJ60AbkFMYQj6wB7Okx58l1egSGECBQI9KNQ2rxyBhYXiSgytmYy1G/ZoRT9mjhyy8yEZXpnpFyBQEK77oYul107anrAAhXCiEy4Q/u6NXShbC1s4i1dIC4TaYWeKNezs8Yc3GiePFR2/QKAvZqG4Alf0NnCogBa3oB5IfTuWz5XO918ovacskq68+LPGfnQIPo9MQc6T/pkiG71yBJYcbwViNmA3CA4VMjHsevEL48yHYv+nR4oRXDgH+YJd0duIX0CL3ZlG6Lt2/XBh/OjYAsG/PoR96xP/WBaDv7Ar2415uDsZC3+9QEFChQEcA3wUrOXO4y0Z4BrwAtBmdyeKl8HtYBGYWqaWqWVqeRsvOSLpGK9zmByYYPAwsx4e2v8Jp3T8MwTIc8y4n+B3f7hNAgNLZyynDZ+AGSTguzZft2myzUrd5M/Ps/BZJPVhdoEsAp99wavq+JcVIlnYmK2wGxR/mmgM3HUCgSPeJEqiQfMHv07QzHgVHHbADPjdq3pyy/IseQgbcIPkBwE78yf6gHtywuL+356wcIMXCFysoJmA2aDFVtmEBgzbYSKjXw0fY7GKCgQKOwgECDs5NGWrYL/n4QcNvxcsSZU9X7pOWlufkWGeXKl/0idygsXylIxw3odzOlWPydCJC6RmafrkBmz2bDkJMeDp/4SWtVhJC1QgSJxs984A8NREAOd/O3NT5c2SR2WAFz9XA06mWhqekGGM4foxGmm6IFdKsO89oJBgv6XPnCH1v7lf+hC0Yc762jNUPBmEn6O8vPe4zMjkx2EFjMHyArY4TbZg/7NBQgsHrH6wsEFfUaw8CQWJJ5sCzJ8j2xuhFE59E548KNlqLsx5w26P23b2E3VY4jsxD0kM8Sr+/SbpbnlGRjm/xplsctMaBEIPGINlAoZtMlg2YP7AGts1AfOmFmIOcMLLeIJl7hXZerqU8NyT5T9uEl6C6p+DItyO3Sa37+3H9zGv1zzkYa7pc2pWMX18xrk+c0sH4RWkWGdch+N4ghXwLGzQBItgg1GH4LqFssvev1K+TfrTZ8lr+JxBNP9PIFgmYDy1gO+a87D4O2nD5xWtHc9FAsYTffQ8fD8pdSFYPA2RdLC0gAUUthxB4IkenutlsC5YigB4AbIwUKiICRbX9fCDBU/b04pD6abVUrEqU4oYMPwsRjkK6VFXeWchEgkWMN6FctXxzhMGjHOoOalx1XXYwbL5UCBghJUkS9JkJ72InkSzXjMPwfACY2GAyGrwkYulnic5eV7R87JBnuj83m2yFwGyjeMnr/jdKAvrmzMh1tjhTSNUzl4cdtlpkTO04WAB41s/uEP6GCzO7b64wfR2Yx6KSQfLKbANWCBo2amym70bK1u5zdziYxUTxfvOl1oG6S8uQK/lqcmjgHcJ3neiVHE7PLP3tRulfeMyqXzwZKlrh9qYSjBl2P2wDKTO8NTlKWvWdCmjT428IgdjBYvcfYK0Mlhk22kmYBMbLKxkDDYUND9wvOiEamKOBFXYygeUR/IzZDdVdHW+2Z4fJJI1R/b84n5zTs0oiixLl+JZOPyyZmGf3kk/VLxsSbqU/Yj3UDFQjsFj31WdCNir95ozRzFzrs9fLT0MFs+l5KVNcLBMIXkIeEHD7yZo5C8ulHoGiWfBZ043SnFVF4D3//Fwu3GVlKJiBfCiwvkpUsD1T5pvtm2C5DTKoV7QC5T1qqWA1xpsOlkaEVQeflWr50k1vemnd5tpShssd8xIczcGb65VQLD6Dt2UFu1Z41IWCsaCGkKBY2ZNZeHQMSfE8ZlVXQAYdyEvT/n0ldLOQ/Zjl0ozDdz+3wYI21aDRGyg8L+owfWiVHNr12g/L1tHIC5fLo1YJ0pVwJj76YukmcHiKaClaSZIE2bwkcJ5hbWFt7eJ0Ute3mAKYypJsENfffecKDWb10mN/Ru9UxF6NjOE4RUrofUiAUowSOTd50o7TR7KpZqMohbOkZrhl+FfwUD5aQPK0cRAkQ9vlH3YX9QhOL5g2cLZwnqB433kdtx25hJzX5OvPAu+W8qxnO85HhsWSyVvFMT2A1dCuMQJkh8o9KzVPS+YW038q2886n54p/QhgFSWGygTLF6w0A0F8hzejs3mvsAoVREEK7mklL2LLZyHKTCCVclunPDGVb9yDqw0erWOBSlQjQ0CwCE5inyKd7xFrYPCHmqUYJD8MrBMttf71s3Sw0MQhyKDZTwKh3g97zqBsgKK8mhe7V3dQf7hanicGygbLIwNkw4WC0RsAYktNPMdUrVNhvG3rVRQhQCHXhUkP3rCAqnkILgGalyVFfxOYP1DqAFyMEq683hpZg9X84SMvHqPDPzqPhnwAuWrycP0fkiOI8F6Xg4sSVECdRjBckfyxC/sv14vXRzxE/RsgcqFqMxJkwoOcF86W1oXp0rF3FlS8YGLpJ29WtpMPTCxAoTv1CJF6OcQ5nioCB5Vh+2ZSyk+dolJK2IGCoExtzQyUH0vOJfphAKFn/a6j6QM3pgkCmkk7mECh9yp1o7yOeLHZ6ZC4coS+EQ1/Wt9dvT/LsiVui9dL9383W7DbAeDYgYGv/vMmR4Z89lyeTTwKsF++FdJ5LZdNUgEltHFQDFg6AljBmq8weKO7bFP/EKi8HW8qNiO8DF4tvexq5Q8KoPssjE0YVAC/+NFNbzsFmZtMmzkQAfph70IgE0iP3yx7MU2hqFE17gb4FHmohzmTbmRZ9hEBQm04vAzqiL/dbs5rRsMkhMoYK+TSSpYdudW1uHgNeSmm8t893uDVb/VEQRXjQaMI2t5TY3tjXgdRDf9A/BaLQTS3pvvwoDw6Qd9DCbhLYC8doLrD+D30xZGgmNxg0QeP1W6GCReHvPz+2QQ34kbKJTVXr+ThGdhh7YAHjZ4gQAuy5BG+g9VwAFrxsxIJZMBQW+gOqZPC3X5UA6vovo1jBt/u/snMQNEcHi2cZsMEjljsRegGEEiDNR4g2V3bAticAvpYQoPg93HQ4bswyE0f7ZX4eRoWpwijRgHmp/wrqjAkFCZ/AAB08Pt2iLDDBDVRzWvyEgsSMBcpTGewzDq2qcQboENrEgRjNZ0zx4XRO5nD1Q2EbTtg3AZ/PJhjNrKQ5QBIsPwMhz6hwIUP0h+oAAvDksyWIckG+k1PNwCeoQrYIDs2/eiddkDmV4IFfjX68z1M1oQXNTtgcB+obr2dQulg75lA0Qv2w1V4f9agGIqycO/3gfB4vVhSQUr/nVioSBawpUiyInaeYOJ9Q8LK1f/hOx/5wbZlzlbWufNNCpsg6kbcCi2oSxtUGfHb+6XYVc5XNca/VeulwFer4Z11eAQBEJVkQXf8S+KGk+w7I7cnUdwg6gF0kUJKJ/ecMfx0nXw3ZFuPxwAFXxvP/wHhj+0NN0pQ3T5xgpQQEUO/pVjC9JkM2Kg3x6uLKshc54dcXemXVcXLmgEN5CHi7b9CIGyhMsKooJD8F01QA68+PAiMMtEIoElHdyADTHZ5E7cHZNwweJeoOigVTqMtp6Ptm8QLp8fHIL1xgyQBfXmIbiMQUhm4c2Pl4O/MBvEjsKFAOFCumiVGi/a9km4POHAHApOnACBwdkz5NOoK++tzAUJn7p3F172yitM+cCC58BHp02TTyMP+i7Ghw2g3v5cniF1SVAbA+27Ubj7tcDgG8egyZKXIX9InSlfRH0+Cf4U3AFWg4QPvbEWBi4NLAGrAJ+ZcMIxyhqQB/jEzTEfEDG1TC1Ty9QytUwtU8vUMsnL9JXp8rmVGcJTXjz9bq+s0fBP0RN7Vhq/R5+FtucV3fOHoVNi9gQHvmfO8niY6Wp8352Z9ScRgTsv5k/z4LN2JLHM/vuRqjNvnNgFO/gN0IJC3AtBtP/HDJoJ1mEGDN/15+s9bLBMwLB9d57MTBnhc38eHtvgk/Em5iFhnpLcyrvBGQt3vUDQUOhg0BIMGL5jT5nFClhC6jJEppDM7Ea+yHyvyuNaprEw2JAWpMD1WDFwvx8VNFVl4wtYrMMxYXXhdzMVxDpHqp7ksixDbsdGwoHyg4Ed+hesabjfBeGgJRaw4JXJJmAJHo7jUhd+5xRN0ofkLKzMCkUFCjsKByZ8WWTg/3Y9bxtu0BILGIN1KGDJqssPGLabkLp4U5cXg8SWFSIpWDleoMIBikW8oPkBy02X4rwIJTmzpWxBipTlpkpZHoK1LC36cJxMdeFz3ruTsLqm56XJK1gxbqCwA3MVcizs9zwCAVuaLgVXrZCyhqdkqPHpyFWE9r4dYq//4iXj9t4dXjf615dKKy+PxPa1gE2Id+XPNU/aTVhds5GH/B9W9IOFjcYMFK9x17D/t+tw/dMWSVHT096Fu49Hrkm1T5BzA2aDZfCCRex9O7xU4GOXSntuWuDRdxOmLsSAE54JLRnY6atYSVWVFiT8HXWTAMF2TNDOWybFDAyvK7U3OJH6JyI3Pv34Lul+5BRzjShvFCgAvNGp+MqVUvnpy6WjlE+5e0ZGGSz3RidewfOr+6U/59AFJ4enrkPB4sRgQsvcGMEKqEoJkr3Jyf9sSbq82YxDiTcW8NF/BgTtdw8Yqb+5OtNXb8Dw8TOQsNLo+QaK9JlS9gkoqu2ZSMB4fZi9yenOtQhAAurCNsc8FFE22HZiyzzs8BdYKWawFEXZQPn8w1XSyOvfLVTQK2ejN8uMHJJ2295+GCwTMAYL/x8zlUA5y9uelWEbLHLwHXIQnUVYXUkfitj2pAXLBsjcFbY8Q7ajxXnrnHmTEPn6jdKydl7Aw8xh7W0/YXX5qYSTRqzNkhpzrSrgtWKt8LPcjICykj4UEYPJDxa6+tfr4EX29jkedrOny+v8LrZp/Mtuh9v0tj/eYPm9Iq8uLH5UhuzFdeTUBSZArroSCxZADMYVLBMwbMwoAZhgoYBRwUKgtjegR7O30ZWAVfPM/wJ3tXIbHuM7FEPBIjaFeJd3bTzhBXYnLwgoa+xD8TCCxYKrwSJOsHagEm8wJ7KB+sND5jpRq7ikg4VDOSHfAlEZ/cY8aXQDtigliWB5AUMMxh8sgg0GDkViA/baZumyh97uh6XHDRTh97DNuMFCsllU96QMtj4dueSy9wXZf90qc4dq8FAcI1ig9trV0mSDxbspoPojFqy4AduQIwW8f5B3r9Kj1szz1OYEyqqK2PW5Lbvdj2yUJuRSAxjy87mm5i5W3h328UukpedFOYBhUFLBAnXIz7q8a13380YCrGOD5frWhAWLZhsIGDbqH44Eh4t59K0Blc2YKW9YtdkghQO1OE12wnyLTlkohdlpsvvSPCn9zaHb6Mxh6HoW9lGKLH54caqUnjhfKk9dZAIzZrAIrMEEi5wReU9MOFg2YAGTRwySCtYvsaINVsyA/fY+6WLCyWDdcbzxFf8OVsIAWTA43mk6gEN3sZJBgkBw2yZQxA0WVcUhEYc7TESRIpjnVfOVe7euhVriBGvpXKm3r+bjta44HCc1WDEDtjRNdpm7WFFpDF2CzzAOsQzf5WEG9Q3+1UZpnDFNduKQ2/mn50uDDdgFS80NUn6w8LMka44Uo7IcFw4XPCIDCEo5yld67Uqp6UIA6Es/usN4pBosbKP+mTOlg8Hi1dRIinnt2IQH61degWMG7A8PSo+97Td1esCLAvCx67wtmKDy/Mz3qpPmS8FfXyrNMHYzbuThdtNaqbl0uVS9ep9020F1DtT1h83S56cOYDUOw988YO5/Hj13iQmOGizegUGTZ7D4k1fR4POJCxZW+BVWtpNyUQGD+ZoHUHMIgwFy8BWIIe47SSp56GG7b2Jd2/uRgo3LpezhU8zzwws/e4W0IjCckTAzEZyB4PuqZk2X4oXwKx6GfrAiflWJzsQ8QLb/xUPPbg0HCzRsOkna7N0aZ2dHrp5G2SYoWBnya6zIHEcNGJK9EjtzcHau+cwPAtYJBAuVHKp5TIbQy/lBsvCZ+ugU+JnZPr5TnDZTCmdNM38HcizetzN/NnpEJ1ig6vPXSBcCMbpwjjkUGaioYBl1ecHqf8n0jBMbLKx86BHToaCxcHY+ypk5MIdnGJoylYXf3e8VXJEv5f93r3Thd7NNZx+HklEnWKhEec0T3i14TrDuO1GaeChmpwaDhW2448NGHOYjDBYPxWUZExis/Az5DVY2hcUGAgHDMV9kbyZHts4g+IenRj18iJ7EoGL4U8ie7+PMq7AuPkssUDz8wJOnSxN7QqivHNtiL1j1L9dLN4O1IKQsbCcQrOXABitvbiBQExAsFjQUMPxu5so5q8mAPXKaeb4zK2wDFsX1q6WSnQBnPDlhh8ANo8vnIwbUQBGz31Cg8Lkx9nmzpaLwERnk3WMjL0ce88xLvxE4za/8YOXyHiMvWD+/xzzcPxAsfGd8SSmC9VtbWFNwJ2gw9zKaLwOG7zIgptIKha+cIw3s5figCwYXqvK/b4OkBipWsJzDbzWUhR55kMHiPYu8Th5lCweLgTLBQuM08p4iBou33WEfExSsefJbW0hbaFMB8J+3SycCxZMMwziM/Ap7lfaDhVyo4mf3yD4qaH6KFFXhsGW+tMJZB9+LDlKsQIWC9c5zpJWB+uoN5mpmPoCshk8Owf/CqjLBAk3wTxMs9qDYzwQGi4ULBwwU4xBg/sOKI1huZZl1RwKRIcU85Ni72cDcepxUMy04Y+GhdZx1kwoU/Yq37bHS+NsefrX/c4/0Y0hkA2WD5Q+i33xIhhks3oAF77XBCvgVQQwSDxZW/h1WjhQyFLTu52WUiWIjwP9MBfEzUHkG8Zs3m2zZ/4wBZLD+F2rj31wvgBckEi9QBGU0912fvcTcCOoHC6OCGmT6vAEzSlXk326SARus3PRDqiL4/ziDNVd+7xXu0B313uMFeHcXg8UHWrBifmUdzsw2XXqt+xm2UcrHPiGN4OuGD31fCxL3FSNQHNqcnxt5scCC2cEekM9z4P1AWC9KVeQzV0iPDRYOW/UQJIhB0sFi4WxB/aBxyoQ9W9OTOMxQMVYyzPHzpeJvLjctdihY+JyH7o4t0u9+1w+QJTpIgUCRmdOkksE6ZbExc9/U02dKbRMaBOu7qrLBav7yddJn7oN83rwGPKgqG6xk5+Cx0msslC0k8Ate/bh3whOFYrCiKgtyMDzhYYLv+0HB9syTRu4/Ea2urINCRoI0RqCwrRr0euYkBVMIGyisV//uc6RjwxIzFROlKtC8/UEZtsGCCtVDEL8nHaw/2MIRW2BQ+Yv7pIcnOhkwvrAdG7cV9L2NfPNW2bv5ZBQav/O6Bb65hCdKsb3Id+wknosSJGLLwUB51P7qfhngSGJ9tjQwWHy+A3tD/K4GiqCxRm2wYqmKIAbJBcsWzBaUsOBnZEsdhzAM2MzpptKRyoUqjh6rAh41/NGN0s5Dl9+HqQYVRIIBUoNEbHmA8Sj8v7bnBTnIRBOJch0H04vm6F4FzPCGT0JioExQY6iKIAZJBet1r1C2gH7QlmZE3qDOgF20zBTaKE4DAat84Sxp4YlQvhyMY7svXCudaTOcIB9irCCZQGGbtfefJC18V/1e9Mw0bGbwMOyYgSIMlnk0AoIFKxmNUpUNVuSitqSDZc0zELQ8BAuBMo9WMd20U0mFyioEiDkR1qvg2945LcwW/quLTSED33eDFAqUKQcONT7d6MDDp0hb6gypzU6Tul/jcEQA9sPHGKyYgUK9zNuP+IwH9Ka8tEhVFX5POljbUThjnLagHqbwHC5QLeyR1swLVpCVdsF3D7RBhe5nTCq/e5v0UHXuuha7Hw+z7zkzpJrjwUWpwYdlPHiytPHBGjlpvqqiAkVeo7l7wUJgY6qKIAbJBQsrm8KgoDZofuDuPVFa2NuRxZErWEzFtIofgD/QV/jMK/dz/s2bzFFwe9mQAfs2L1/C724j1SGhHYYyA4ECDX9+fuSJIHyjPv5WA4WRRCsPVX5v5B0mD4sO1HiDlc9zfpHj3y8YC2xZggErVUWYSngV8ivswrEb58CRAwWCQjadLK1XrzSPnqvBIVVThoSV5ws5jNmHAD99pnkkQR0v9vBOZ/lBsvCJRVQ6vhcIFLHBAv67eLaeaubQYgYKdCEGSQVrBzbgFwhEBa0fhbQBmxV5RZerBB8+Wo7KMmlDSDEnL5K6z10lXfQde1KBweJJCj7Hj+vxJ8pUU/qoeYqRW6bG29ZKGz3sry4yj4OKHShPVfBKHoLxVGXuw8b+kg6WNUu3gMQELYcP7UGew2BVPmbU5SvPww/KM2dKu8lvALZfzR6N8HeaM4Py6wekHz2aWZfbx//rT1ssjXaW4Bs3i3ldHcadDTgcG75zm/QxUHx8iqeqcJBMoNCxmCccYRsHfrfJBDyuqgjKlXiwVmSYkwtW1jZoUYEbgPzNWV+Ansr4iReoKO49ybTwfhQ8cpih8DaAL5xtCu6r16FhUYrUU11ch8pAPnWQQSJsqGWRc4FqoBBYvrPNqIr7wxBnzEChrN2IQVLB4vtLWQAbsHDQTODYA/HwIVQACqdV2Ae+VL8xT5rRwv3bN0v/5fnS8tkrpPvZ9ebQsN8LNAh6wTqqZ91Caf7GLdJbhHTlidOlC72iHyTiBsmCw3vYBurFs8yd+WMGajzB4kuD/YIAN2iBwH3oYumm1xAkne4gNiFwCDXQp/7yQtnLQ8z73Gx79nRpGHpZDiwI9nREC5IbqLaLl0kHg0QOJPCkI+IFax9ikFywbAHcgnm4hSaNfMcdfYcB+4+It/jqS4BGdO2N7zlX9u5Hj1eL3rVgiwyPYpu8ooaPhsJ37L78ctjyefhqAkxYzdsJCQ/XRbNjBipKVeMNlt25Xyi3sB6mEnyEHL2IASN/e7mZ4LMBSxgadXa6eX5WI8w+KkDELY+HHySC8rcwQDZQZ2WbgCQcqPEEiydLuXNbkEDQiFsBsiBFmjmsoXeRH95hnsphK5wsgW2T8P6BWzYTqOnTzGDZfxDQe883TwxJKlCAV1InEay55qXopgAObuHCBTfBQxZtHsdrezlOyyANiap4oij7cctA/PJ98ELptWoiH8DfCEYiHhUIFEEMkgsWdhBJ3oBbKBAuMPErBDNu4RiO4zAGjIPm9TlmLJZoQMKE9+WWpW26IDFlWuEFicMajAqYpEaClGSg8L9exCDxYC2fK4VYyZpirKBZwpVpzUuPGKwJmAez6IwZYwYnalseUfvNSZX232+SYTdIfEobcqm4hx3xgqQGiiAGSQWL5/64s0jAlMARrRIeppIYjuw1gXLgw8UePFn2onDhgLho2+TT2trRs7XVIkVxg0QanzTXMCSqppiBArwNeBzBchkjcESrIKdDCh+OPN0xDCv74ztl8KQF0o79tvB5xwiIIR/rpUyX1mx89qnLpA/+ZwLtBogwYUVyrAVpLDWpgSIoS+LB4jk+rHRop27QIgUKBi5G8Fw41Pjp3TLI0+xWFYniBscP0rvlILYZ63F2CamJ4DuBQBHEIOFgzUXq8GusZHfoFiKxwFmUoKEhTOD2bJGRIYz54gXEhU/JpYrOWCxdWF8LEBkrSPED5T2EDDFIOFgZC1LlWWxs7Gf8hQPnogVPgW8uxqHawUMJQ5S9f3qe9L7vAul74CTZl5che3PSpZPBQXnsdoNliOCXkeUOES9I4UD1wzo4M5IfCcXYCx8McS02GtgpNugGjWiFjh/A8aDtI0KgPKHyukqKFSj/sMN+/EfboZP4H9Sfj7JLaJkFLsCKQ87O3ILEexiiVqmJImp/4XIBN0AkITXZQBHU/V6QxUAksvDZBmuQ7D3n7ShcgHABj70nScYIVP48qUfdLwEJv66PC5+FdyM84wfhnYNw4bQK+KBgasXHQtuWQ7gMJFBObCPhIBEM4g+izo8DmntSD8Pgrfp8COI2HMM/5g7DhfHQCk20Ch4O2j5IoDxeYJIKEhhEXsdAvRucBxJ+TLC70LtOBU8hzJ9AL8Fzf35BwgV10Co1UUTtzy2TQ6wgBQKFOg1h8P8l1PE94AqQsFdpC58vfCLgw07/HHxq7kz5f8jw+Q4w+4zQiXpOqfY9FWffPihT+LmkYfznlGanyX9AAH+L+nwEPAEuAHxwT1KHn7bwOZ58Num54G7wNHgFaG/YPxZ4J3gePAT4hF8+zDUVHHag3IWHJWXKZx6sBdrDUo8F+DBamjgfdDHhQZpappapZWqZWqaWqWVqmVqmlqllaplappap5Qgta0Xm5Iosys+Us5bPl4tI/ny5MB72e5NOllw8EazMko3j4JJEWJEplzpcliyI++Ur0uRMPtj35CRPLRw1y6psyVkReb4Rn+sReGDBBOPftu5i78Z2weeBG5LJCueWUYNzV6Qpu3MjIL6f9P1rBNtxb4/wL3IHgWu4sV33EuXAxaMO6mV+KHus648CV5vgu4euCfBOba/IkD4I73cLIqemjr7lxEWSi0IyQJoALFGPERkn2rYtYwoNnx1RgWEbrrhiCgzbHLe4CMo+psDwvShxGbzT/vhO+wkLzZv03tJlGix2FYLCgGuNrInCJerhPnHQ1nfR9k/GL7LJFViy4kpIYCj3YYuL5M+VkRMir2o8oucluLNpKCQbJtyQWqNrQlHBNs2jtrT/xUHbZ7hcJKbI8HdCAguIK77AkhVXogI7YuLC37wQ6p/R1km/nWI8C0U1E4quwk7dRgs3rCaAqGe1HQ7a9j3CZXHLSSZWYO6DFmKIiyQosKNOXMjB/uC1+6S5Fzectio94FThRgw0MiqgigL4j5gcJ1HbDO/bwy2bKy6SkMCw7eTEdfjuddSJa/k8+SjaflJGk0ZUuSlyEXbGhogrKhQ6quGBJhD/ucyJoK3vEdiXWxaPQFkhnsJl6VK4FOSkmdfXlNy4Rqq+frO0vb5Zesq3yaC5q+1Zc7PpKB/dYu8B55tZup6TUe/Ot9GSR2Xwd5uk7zNXSNuZ2VKzOE2qlmVIBbZZkcfXhb09xDVwVuT6FjKhC680ysbR+TXsKCyqQCOisIFGBgERoJCqaNC9+s+qdkEDBB7L7BLetkdg/0szZE9umuy5NF/KX9sk+ygMPkzOPC3Ue/wg4WMLLXyMoYN5/Q/hg5nC8MlWfCoW4fOLzEOfLE/LSDvE1/ei7P/+HbLvxAXmoUxVeelvibhUYRF8L66w0A5dOGCuhQYywYTmXLxyadWKdPk5dhRTWCik26iBBrdisIQFlCzh7XEfcKJdENKuC5dJSfFWGeDTme2zeRUir0WyeAJzxDQE4QxhG/z/cC0+I0Zg2C4FBfEM8+U4/BkWlyswPtbIwsccEd4n8ov7pG9VptRCbJMmLsRlQlwLwnoQGuAdARPqWhngeFTQvq1o3KKKIZLA6wjGwl0XjbLjpIVSwPc/1EMw5s1HHnwoqsUKygjoSRn4/YPS89FLpPFErDtjmuxZmCIFqzOlEBStUnIv/K7mXSszpQzi4POLy1KnSWnGdCnlY8a/cr3sRTc51Aph2WdmhcUFzFuV8Nkob8D8r9vNPTfmolpPWL64sN9xCYugnIctrkVp8gg0wPtyeGHxhC2c0zhhPMJC4WKKCp+FRWNfDBIL8z3kL29cslwK0W2ZNxTwgf1hKKxaCIovHfn7q6RpcarsWpImuyACv8zArYtN6snEJPVeMs/H+82eLhUbcqT6p3dLb2vk7QgBcRH7pCjmdLu3yODqeZGrtiksgm29ZeKCsLZCA7z2dkKFxSl/Cst9VxEZt7Dw91iCMm/PsuRnyBvISXa8+ZDsq3j80Ju0PCICe1wGyrbJwPsvNM8AegPO45cD+OVzyw3c+hy2uALCijMVgfpULUyVyu/cKj0cIITFZQcLfNvEP18j3YvmTKi4xiOsRxFTCmtcN5zEWo6ksAKCQlf3+tUrpRC5jHmRVpiKbdKPo7vv4mVSkJsR6Saxnr9PtyzgsMWFdcflWoaQuCx8Jh2G3ZXvv0DaIar9YXER8/fT5lFIfLDokXWtIyQsBnzShYUh+/b7T5DSxicOvcLOwpePVUJQj50mZYtTzDpmO3bbKOdEiWtcrkVUccUQlh0hetQg1pXfuU16+JIOV1yE7sbHPJ3AV+pFBDaWuA5fWOBIC4tMqLiWgytXSAEScd+hKCTC33ciSUe38PqayKv/fFGR0LYnQliquLDuhLuWKy6sb0aI6Mprbl0rTXzKXUBc3pPv+PQBrEsRTbprOTnWpAprUsS1fJ7swDA90OVZQW1/UPZlzpE/4HtWUAFREbtNlPOwhZU3VwpzU6XguPlScvlyqXz0VKl96BSpPT9XKjAAKM1OiTgXtjO2sBI47aMJy6MW3V/t+UulwZ2oteJqQw6G2AzAud82wjoscRErBIzy3vzkpVKL0ZxJxgPCQpeXkyrbEfCYgiJ2WwR/B/bjlgHEFFZ2muy5c61UNDxppgX42rb+z18jbfedJFWX50vp1fnmLT91SLi7OJ+FhuXT5/tPWiDlGL0FxDWRwrJg/TqIu5VPI4O4jLAMEFfvS3LwzMVGPMmI66gSFruFZMVFVIHlQFSeoPiaTZ9qfPbOcxD00Cs3XVwxEZQvrqiwLYrJ4pd1KQT1wgaph5iGfna3dM+bKXtWZ/n1i9sVnrxQyjk3hnxo/4ZsqUQZAsLiaxcgFvMgfHz/sIQFzMhw5nSp+d0DMmBe0ugJy/LNW6R3afD9qfGElbC4jpSw4okrnsD8RibHZckeHHnmte52yoCiKt0q/fbVpGOBMkWJieSkyc7js2T346dLzc6HMKR/Bi6EbrbxSRniTz53cM/D0vfy2VLH84Oc98Kocg8E4NbLFxWJlWNhndL7TpBaNvIHL5b2b90sezl1MPBi5Km+PK/Y/6J5ztfBHZul75a10rgkTSrhcuMSFlmTKfXXrZZmuNcBV1h8zCnKMbp4zrElLPctoxa3IVRxERTWFdju0xZJIUd8bFA7qUlh/fedsndhii6WsUD5dmI0ubvoEenlm0ut+3Hb2M8gu9XiR6QPn/VXR2bpzZtMCX/naxWNePhow5CwrKgI/vaFBYGUbDpJ6iCgUZ7msady0Mh8j8lII7pUngJqfTby0ig2us2Tel+Q/V+/WbpR38pkhYV9mykHtEstDpSAsAgfb7/k0CNdj35hOcGNJS7iCiwgMhR69+mLpZjv9+WpFjS6ERcadeCfrpZmJMYBVyNhAZHwd/jO4N0PSy9fh8tJ0spHZfCfrzNvqHgT2zRidstBcNQXcv9/2Cy9NSgPfydoqJH3nW+eJVK0KEUK4UjmDdYeJQvmSDGS+tL/uUu6+V17Qhrrsk5DP71b9i2Y5eRZXjfI11Xyyge61Z5HIi+8oQB5FcXfXGYeq5a0sMis6VKPfJRi9oVF+ExzR1xHr7Cwg19hR/6rMscjsLVoTBzJw3QIex6Pv/8DRIUKua4WEE48MGrawxcl0p3oel+9XlrnzTbiixKTB1/VWXDqYjPxOvzBi6QJA4iCy5ZLWRnW5zsETbn40ztJ3QTh0JGcKyHMuwl57g/5Tt+SFClNmy4lfPUwhZ0yXUrDwjI4OVbKDKmoeRyDAE9gbzwo/QtmR72jYkxhgYZZMyCux2TEFRYv/XHEdfQLi2DnvrgUgakiwxC+gFcM2BPChF3SD26XzjzkN/iOAdt2BRYXdCO7fvOAdLExKarPXWGC5YrIxRf5Ugjpo5dKE6c34GhuOYtQzqLMWVLI6YUvXyedv31Aet58SPp2bZHen98r+z57pbRdt0oqKSR8/9BIEGDA0cyH1W7MkxrzvrQYogImt5oxTSpQ9iEKC2IY5UuWsK2khUWmTZNa1Ifb8YVF/udu6UdCfxQLK/RWZEsiAuOFdd+7Xdp59LvC4ruz58zwGz0shDFBgl7QilyGosIROwBRuP/3heSSnSYFH7hQGug+D5wkVbyiAZ8HcOuEOgfyKsYggCcskj1byjAy6+IrXi9Yiq5tDGHx9bEYYJi3b1FcJVtlcFHk5cQxRUWwvShhERwk5j0orrAg9P1nZRuRHN3CsmCnMQVG8JnfUMxJTFfidS2EXQlyCv5fFUAiQFiFSIwprEEm7CiX+j1g3lJ91Qqp4Jur+Zbr7NRI/oT/+Sh1CNTRrb/BEZXf9YHb10gdcx4eOMirOAKMEhWBsKqfhLD4wHcKqxjCQjnjCgvlUEUFzEssPnWZdFtREQqNzwfOSztKhZVv37ZNnOBi54HgE7dxctKlaOcW6TPXQnnUQVjfuU06mSDj+25XFEYTic+iVNnzy/uki0k3xDWEhL1j3QIpWp8txeflSulNa8xryls56VmDPOlHd0nX/DnIsUIu5ZaX4LOoOrl19uPg4YoKDWEcCqPL8nOXSA0EP0TX4IHFFzpevVIazs6R2jOypRpdeRX+b/Isnhu863g0drSoEhYWmTlN6tklusLi/l85W/Yi3mOKimA7R1RYh95MbnGDDVCQqAbBEVjCobeX9EZAI2MUROEEGtghLLAoctGlwYHKCx+RPjsYoMA4P/XMeql/Fty4SioWQkjzkDOFu7ywmBISFAnFQBOVj+dScMZKJPQVa9D1PXiSNP3JOdL2gYukvcObeqCwIIDRV++TvrXzpBaiTFZUvrBQT77vqItissIinN5Yljq2sLCNgKiOiLDcIKKigQCjUIEGQMFKVmRIyVOnST1cyoyiPIbe3CL9GMprThFofA3kSIV/eaE0tjwtw3CrHk4JsFtDEr8PedsQRcbpjBfOkjrPEVUREZRTFRMJ1ydcXzcWBldQjqg8/O4vbaZU/t890tf+dOTkMrvBd58j7QvRBZ6fK/WcvB14WQ5etCzy7l0XbDeWsOxsu5kYxeCj0XUsMviS7F9yVArLvvHevrzYg0GOwmsM9OulnCfyriP3+fQV0rYm1pvx47AkTYqx/lAl8qm5M6XQXYe/8//scigw8v07pBtuZYTF/8M5EheSJVQ3t+6G+IIKiCprtlRy7steb8VXyHnvUfdHgShj7dWrpGnfi3LgP2+TXji+cS1sOxFRGWHNny1NFY9HJmUJxcufN6+VDtQpMVEdKWFhx7/DzsJBDAYZMPgWjAbLkN+M2klEior5zuZ1Ur0yU+86Y7E4RYp3o5srh6hQHr5SyojFYkXD75UiOTcDBOwPI8AWJMlR28M6upCIUwdLuJ7YRjAWkXjEFFXaDKl8Y4sMWFF9ZKN0clIU2/ZFZcG26k6YH3lx41NnSgecN5aowsIyE6LoDpt+fq8MucIi375V+pZmJOdWZPKF5QYtOqjBwAOMiMo5lLbCMsBRMBSvxPb0RnXAdo0IKIyTFkjFXoy0Xtkgja7bheF3L1wmVbxCgd3u7kdkYLoY8an78ElETCRc70jdXTERX1CEM+pLISK+F8jr/g7gQLCCCogKmG4PXXwduvdBvoUKYkhYVATxaf6nq6WX5yldYb3xoAyjHKqoCNaNJaxJvdDv9zZQIBxITWgVeekQ1gtywNweBaeisNhVnbNEKrC9qIYM4DQ6tld6+mII63kZfWSd1GFUFxSFA7+LURffKD/KnI5DeJS/WN1HCFVIJFy3SP2iY+CIidjzf+T0ReZV/EZYiMkoBh90K1dQvqjIknSp++k90m/etRR5mk8sQQVEBZoprL+7IiIsKyqyY3NAWAmJCn9P7qXJ2MlrCFAgcB5agI3Q8iAuzihDTOZeOwqMN3LeeYI3M62AoKqNjoCUcuKPp1CQnKoOQxakSOl3vWumKOSv3Shdy9KC39H2GyA8urNo9VRi4gqKYJ+85LiKQqew4CKjV+YLX1QfJSiCffEEcw1fM/ejO6U3O3IhX0KiIhTWD+6UQfYWvrCwLQp1aXq0sLCOLqojKKxAwPBZVFCBH3TeZo68aIBn/K24eH4No7pW3haFQhtnM2gN7EAhnrxAqngU/tft0s0TvRh1+v/n7/Px2X8hYacr1j8hIxghDiG3iS+kWCIiTl1CRNU7HBsCkfjdHbZXc8UKaYRbmclQvp2Sp3C8+wgDopo9XWoRM3MrPwYkbhc4pqgI3LAZTj3iigpuf4Dvi86PvAdRF1VYWBAVmWxh/cEGiWiBZIBdlqdL1Uc3ShvFZO8MJts3ywAS+0gjaQ0axhMf9lGB3KMczjWCI3/kqnypRRDLloN7T5R6OoHdB2yfp4tKzbraNjWiBeQSqBsJ19/ixsnDOBP2UYtEvJbXaXFmng5M8aCx65Bw18+eIbV8wTiv3/r+7dKHuiYtKjJrurlWy0xlUFSkjyek0w4JKlFRkckW1utegMJBU0VGGPxs5BKcVaa4LGx4dGd0C60Bg2gCADmpUvH7B6UPectoq7PtanQ3i1KlbNo0KU2biS40PXLJillP235sooREtHoSLS7AdnVmGgFlrpk5zXSL1beulRa6l0muIS7eds/3iX/qctm3cI7U4/uJCCpKVBhttzx8snT2YptWVFZYONCTFhU5UsIKowXUFxucqRoNbm4lJ0iqRyiEL10ne/F/tfGA1tBRwK0qPneFdDJRJwUPy+DfXyWd375Fuv73XunhaRwIbz9PCu94SPoxWqzFUesKTNt3AFsPDa3ewI/NrBlS88wZEcfmpCfKcaBqmwz/+G7p++Yt0vORjdJlR210qXNzkXfFFlRcUUEsZuJz3ixprnkc3aAjKvLJy6UHOW/SosJne4+EsNwk0xWXS1Swr18ljUzirQAoMM7nYLuBqyexD7VxY4FGqBpBg9mE+CyMBqO+A+BaVUjqq36/SfrZiF+8VvamzwoKyy2HhlYvh0AM0Lg1vByG0wufuVK60meaz/0cysLu7wMXSlcPvscusegRGcyCW+F/CQuKWFHRrZ45UzopYCsoDgDMq45TxycqMtnC2o6dmYDYICkEAmxBw9YUbZUhiolYgSHXGsT/1IZMBD4aaPBlc9232S5ntrXvWXjXMb5TVf6oDFLoEKb5LPw9lFkTj4taT3Z3j5wirZxW+KdrpBtdGj8Pz5pbGiCshk0nSxvvEWTeVQunyUkLuFVCgrLMQW6FegVERZ4/U7qR241LVGRShYUE8w3skJWOChKDFwM/6Oi2atHvm3kcKzA+P+rjl0knGkRrPBVXANhmFUeaFAkb5un10roGYnG/42K3AQepeuNBGUCXPJoyI+qqTcOMaVI1HVyJkdyD66QZI7jms5dIA2JRhfV5Q6kRjQVxqLt6hTTzTuUXzpKOfPwdjhOw3ZwhB8n5/94jAyi7EcDnr5Ge3PRoQWFfY4pq/mxpwcFrukArKNLylOxfiqQd6+iCCovKEZRH15ESVphw8FShceRzRb40cSREcVnYhd1zvAmeL0KHqAZ3QaVrzsqWBp764AlXvgAe+2hYk6l/38L1IJJ6dKMH3nu+CWwtRpDVf3mxdPLhbJzhp1gVzEiOmHwJDnPVSmmCy7D7q31tkwzwSo65swOi0mLWgEFNw1euk74+bIcON/KKHIB7BwQFAmIiYUGBVuSxrRDokCsowsnVJamOoMYhKjLZwtqBnVuLJmrAQEBkLnwszzPrpc29W4WwMR9aJ60QF0WoCSwuG3KknnkEE2HCpJ1CRVDU75MTsuCgEOL/u172oUs259WsaNjQf3KOdJy2WBoWoDujQ5GlKD8S7Kav3Sg96IL9/XE7n7lCusu2yvCOLTKA/I31DcfFxA3ba7j3JGkfeDGSzHNfnXDb+cFbthISFFmWJq0/vVuGrOsR/s4RJkaBiQkqjqjIpAprRYa8iQLYirsCcwkH03JIXHOl/tkzpYP34VkgLj7zc/SDF5puMcrtEgGjvdoPwnHYFdmJQQ7heRqI133/zeXS9U6I5a83SveP7pQ+dsVoBCMMwkSbIkPyTEH623XL7rIKifdidGWVGOWxG+a2CB8NycuEvn6L9P3FBdL1nvOk6wvXSO+bD8nw0EtykCKkmCgqHgyXL5fWvIyExeQLisyeIS17HpYRKyhCUXFAszLDiGfcLmVBDLonW1g7URArrDCayCxRQoP7NTyApBWNbiYKDRAX7+597UEZQr4Qs0FdbOO70BWRe9V99QbpZvfCYTzyDtPo/GmIiM48WIOnPX5xv/SjK+QEprofj6h6EBwIDTxhTHFxm6Nwih7byJ4jWSEdeIccRHn2v7xB9noOlbSYLHA+3m4fEBShWFdYp4onqARFRY6EsKICATShkbDAwjSg8E1seHY/vsAA8yU2GDHfO4TW4HHBNup5dQAasi4TgoUj1SGXqePnZCFEwQEAy3F5vrRQ9FhvLEwd0mZKw+eulB44kUm8lyDxxjb5vyYM7xsxAm3EPhuxD/POc/yPcdFimLCg4JRt7z5H9tFhXUER/r2YOVWSgkKdVUEdMWGhYn6lGYwYhAUWxhVXI472BiS8gcSY8EbOXz0ggzOmG/fSGnfCQH0aOBrjFAi70orHZOSRU6Ud9a6bOU0aKBAk5xwR8uRw3d9cZp7AbG5S+Ca6PHSJFJRWV6LFKJaQSJSYgJmDwr5buF9XTIRdPrr6Xoz+khKUR1xRgX2TLSzeIGorqgUkntia4wS+iUcz3KKtH41qL6m1sOv6h6vNc7EogoAoJwO4G92l8eI8afvB7dJXBZF1PQtXRTdd+qgMf/ZK2YekvhWOpNVFrTvR4uXgisjin35B/FsKHjEnrn0x2S6W4s5PDwlq7sQIyjLZwuLNpFoAiBYsgw3sGJiGyUZjffNW6WPuZZNqKzDkKPv/5TrpnT3dCCDcoCRKJHHQ1k8GrQ4BtFg4aDEkvpiwjTZ0ta3FEBQdKSyoYeRyN6yW7oCoXDFNgKA8eo6EsPyKO2gBsmhB9UHl1UZBPtRc+IgMM8m2ArMguPt3bZFh5i2rs9RGPxzU8sRDq1cILS6WqHhim22XrZBOumRYTARd9cEPXCi9GKDoYhq/oFRRkckV1lxzL58/L6IFxUELoovWAAGwjxYIrAWjxEEkpZHrikJwFPZFuFjKDGlarTT64aKVawy0urposWrDAdKWkyJt2zfLCJNyV0gWjjbffa70GEFpYiIhMYWTcoJ2TFhQFghrGzQwOcJC3lGIgtmjxBeYixY0BS3gGn6DLU2Vluc2SBfzCZ6y0OCJ3P++UwZmTDNPrXEbe6LQyhgLrd4+jFV2irSfulA6yrdFrmwIC4ndH38efIccRE7XiR4jITF5JCKosJiiBIX1eslkC6sIOznUn4cJicxFC24ctIYy4AhsxRHb+usHZGjgJTlo53BcKDLOGdHRvnmzDMyaJi0YtbWuzNS3eRhoZY+C9V+TKe2zp5kXOXW84bmSFY4rJMvBdxl36s1OS1hIJBExJSUoy+QLK1zJSEV1oZGQwGKhNchYoDxtvDHgX6+VPk48UlCa0CxsMA7Vf7dJhp85U7pQp+a5M6QF23FFp+4rEVZDPBB9+zSRtqzZ0vaRjdILNxqlaMKO5IrIQje+eY30vFViIlg/ICjQR46EYwUrFg6AiyY0F0VgY6E1qIXXGx2fJe2FD8sIhWYT37HgEJ4ngtn4/LsDSXPdE7K/5FEZxSBh5E04zG83ycjvH8TvD8kIhv0jlY+ZS6D3c9aep2gGXzKPgjQCGUtABnyXQvrXG2QgN106lwLUz41dMM5BEhUTOSxBWSZVWGi8EuzEVkarcAQ3QLHQhBYLRWCJQPfITZWOR06RbohglGJzG/1wUMUSA155sR/7/t0DMrwxT7rpSMvcfEmLYZCAiCwQhCYkMl4xRQnKME/6J0tYfEnTiXlz5Z9QoG7sTK0o0IISxBVXPDSBTQBIgDs4qlqWLh1rsqTznWfLvp/eI0N0K564pfiGX464jyYk9zMKZhTfPQDn4cWGnGv72o0y+OApsi8H4qELLQ0n3FpMgmhxNTD2MdCERA5LTJb8eTI8e7bcBA1QWBP6kia+Vu64GSI3r5or/ShgVOVQGDUYDloQo3EbYSJQxBWFth6Zi5EYQAoQgJ+p37do9dLR4uTjxjeEJiJLomIicQXlMbBqnhxE+18C8sCEvsKXKl0Orlg2V76DwroV0Srug8KqQXPQAp4cWuNOJNo+k0OrdwAtdg5uvMNECYlgm5qQSCJiMoIidKtZs8xzG84FiwHftjthC1/XugCcBu7FUfsqCq9V0kULUABUSg1yHLRGeyvRyhgXLQ4htFi6JCskkpSYLBDVUMpMeRfanN3gcYA9F98PPqELX9m6BFwAHpqfIp9GAdkthiupBSOMFlAV7ENtoKMRrfxjoMXGJRxbH+xPE5AlWkgkATFZVqP7gzVRVHcCGgqNZULfB+0u7F8prnPAJvBuVPI1FLo3XPEYaMHT0BrhWESrm4YWqwCMcRySERJRxQQGkU/th2l8EW37ErgNrAMUFVLsyV3Yx3JHJ4HrwJPgL7NS5AuozBCIqrgWqBhoQU8WrYEnAm1fyaDVNwotfiF0ERFdRBZNSGSQYFDGU2GfQFu+FzwMmKyvAuz+Js2pwgv7WSb02eBUcD3gPMefgo9OmyZ/syRDfgb1j5qC6wEyaMFNAq0BjyRamcZEi0MMdAFZdAFZNBENrEDehJ/7sX7PwlT5NzTkJ9FmHwLvAHxT/eXgeDAfMP2Z8JwqkYU7ZfdIB6O6zwY3gM3gefAe8EHwEfBxwCOCFfnUFEcUxpzx/xj4MHg/YP70FLgPXAlOB8sAJ8PZK70lgtIWKzIWLAesBqcADlNpq1cDio4jjJunOKLcCJi2XAUuBhsAUxlOeC4C6eCoElO8hYVk38wCU3A8FZAGWAnCvnuKycXGmnEnTF/YFkzE2T7HhJCmlqllaplappapZWqZWqaWqWVqmVqmlqllaplappapZWqZWqaWqWVqmVqmlqllaplappapZWqZWo6S5RKRmXkiqSsy5MT8+XLB8vlyEcHvF8bCfmfSyZKLJ4KVWbJxnFySCCsy5VKHyzzc32OSnymXM6Yr5sjKFZHLkY7YpcMTupwsMjs/SzatzJDXISY+gL+cL+9eOU8Kx0ngrfRhuO0wKwD+F/WaXnwefMOq87JLEnovYfBNqc7LnjzU9+pgO+EXELjPi/ef1oxthh+s6z7nNNbTBGM9i8s+pCTqQSUoH+/o7gI9qNcI9v3T3IVyIpqK174d3ctakTmowOcYPDYsKq4JZCJQxUUSERc+CworJK5JEJYrqnjCiiWqwxIWvnfo+RT2Tu4M2Yv/9cIJb0HTHZ3uBau9PZ/B1UUQCz7pLxba9zUSEhc+CwiLIKgTISxfVGQShZWIqJITFsmUjnwIbHWOucHlqFmmo6Df8xpOa3SLJpxk0bbrEldYCO7YrhVbWIdENTHC8kVFsM2JElZyojr0KICBVZnmWaFv+TJrRbq8hkJpDUw0YUwU2v5IQFgkLC58NqnCckWVqLCwvURENanC8p43+hmvbd+aBQXdg8JoDauJwIXrJYO2DRetDHHFhbIHxIW/J01Y2IYrqsMV1qSJihhhZZnbvY78ghzqSyiE1phaoxNNLONF2z7RyjO5wgqKKlFhJSKqt1JYPYDP1jhid99Mz5kn57BRUAC38bRGJpooVFDp3drncdD2R9xykWNVWG+JqPA3n34znBO53WvShWXu7UNQWUm30bSG1URghDNetO15aPt3y2eZWGFZUUULKxFRHfXCQmx+zvY2LT+Jy8z8LHkOO3UbSmvQqIZHZVShjBdtH0Ari1tWcljCCojq8IV1OKJyhTUpokJZevMzzfMWJk1Y3PAMFIpBtw2kNWKgofF9VRQOfEFTPLR1fML78wiXyRUVSV5Ysdzqbd4NIrf6MdqddzlPSjc4K19kPnbGxrCNE268QOOi8KoQgCaeZIjaZnjfIFw2V1Rk4oQ1+W7lCuuIigpl6Tsr8mSYCX+GFVWahgD+C3ZmGyXcaIFGRcGjGh5oAjkcAtsPl8HDLaMrKuILKy9DipekS3FehJLlGVKyLE1KlqRK6YIUKZsPFoElaVKOz8uWp0vpsnQpz8PfS8Hy2I51TLsVpxjy5pmn/fBk9IS6FVWaiYqy4WyDuI0VaEgUONDYQBPELlRgZ6Jo6zsE9hcuD3DLWggBFOamSQHEU7Q4VUrWZknp+y+Qxlfvl67dW6Sv8Wnz1nvzFtaOZw+9rJy/853SXc+ZN0Hsr3tSRt7cIv0/vEu6HjtdmpZlSHV2mlQuTZcKUIl4jUdUvrBQ1rdcVPh7L/Kqv0P78wEgEyoq8/CzFQgadnTYgkJBVeEkirZNENhvuFwQEEVUAHcpfPd5UvuHzdLTAFE0PyMjEMdQ3RMyVI+fIYYJvhdF41MRGp6SEb6Olz9bnpaRvRAiBfiDO2XfQ+ukHiKrgsCq4HzHpltF8qrX0f58DNGEdoEZqSLLUEnmDzFFhUIGGhZENT4KqQoFQX4ThVfRvk+U7Qf2j3X3wD325EJI/3i1NDWh4ZuekJFaCCgMRWVJRlgUkxWWxewHtEKwfKFmxWMy9NSZ0oLulQKjmI6pLhDlaIUGlgIm7BOy0PKyYFWrkcgyeXUFFU9UgQa3QnAJi2csUDlVYOF9Lc0AabL7qTOkquJxGWh6WoZrHpdBj6FaF09UsYSF342oYgqLPyEgV1hWVKQZ7kXoYt3Py/6dD0n/lSukPidNqvPh/KjTWyGspEQF9kMDKwGfeTUhC6cSFiL9X6eIKmGXsgKwaKJJFAQ6SlzcB1xpF3Kl3f98jTQx74FQrJCi0ITFbhBCMVBQEIoRVQ2EU0vwuxGT1/VBUBSO+ZmosEgb8rK+F+UgRN8CF61G13h0u1WmjEIDfEYoX0MzIQtFlQ1RnZGEqJIWFD7fEY8Y65jtIVd6E86084vXShMbr/oxGazy0ARFIKZBuk8dRFX6qAz89kHpxfrtL5wltbeslbIT5ksJ6l0I9ng/LUUZM6V4Q46U33+i1Lz3PGn+7m3SvWMLtovteQLiG7qiREWssMAousdR5mCPnCotGDDUwLmSFdaREdU8GUG9+YjHTDAhC5OzJRDVWeMRlW14iyIMVUSxcNfFKO7N7HTZ8ZFLpBaNNFz5mAxAUAYrKkKRGSHBuepB6Vbp//at0nHX8VK+IEX2oH/fwxHh6kwpXJUpRatC81eohz93hd/9eSuUpwxHcRnWKYNDluHoK0XOVPYn50rTL+6XPrjcSCvFpLgVfh+lsAgTe4rr+pXSuCQtIKzJdKtkRcVnumZREBOxUFS5M0U2HK6oXEEQfKYKB7zhoP1/B5LeHefmSkENBEMxWayoXHGxi6Mbffk6aT0uSwqmT4O7IYmHGGw97DQJ8eeuiBUWfjeiIqhX3AnR1RjQoFsrR9xKbz9e6v7vHulldwnxRLmVha7Fl2S+sVkG0B3WwX0DwsJ+J1pUyQiLouJjz3nKZkKWWKKKJaiERIW/w0JxhRQL8124yxv/cYs0N8B1XEG5QGwD6NoGf32fdN+2VkrhIjvXZEZNNdi6xBSWFRXqorqVFRTxZ9iJNxkK1zOToWkzpeLPzpPW8m0yxJyKonLdiqKy8HVyz62XNnSJ43Yr7NcXFsp51Irq7ARFpQqKxBGVJqAo8jLkjVMXy27mQuUQDYbqASgmuhOcaeAnd0onvr9zcQr2DTE55XOFlbCoCP5O2K0MoRn2NfOkEi5Zfv1qqS9+VAbZ7WnC4uecZP39g9KPkWwdcq1J7wIJvhdPVPY9NhOyTIio4ghKE9X2EG/kpMr2x0+XMiS+QxBQv4MvKibfr94nXesWyu48JO5uWYAmqqSEhXXHJypHWGTVXKmCc1Y+tE4aK7fJcHvEuQJuRWGRfc/J/vXZ0sguEduZaFEl6lbHnKjGEtT2BXPk9X+/UZqr4UCOmHwqH5f+ooel7/pVUjR/jtmm2adbFnDYoiL4O3FRjXE+cPU8qUJsKz56iXRQQGG3svDNqZtOllYMAhIR1jEtKqIJ63BEFRRUprxOQf36AelELtJf/mg0NU9I/5eulWaUcTvyiKg5LLc8YCxhuaLyhaWJimA7UcJKRlSEM+uEp3F2PCRDPL+oCavnedn/vvOlMydtTFGpwkIZj2lR+cJCgcYvKghqWYa8vudh2VemiKkClG6VvqtXSiHK9UZo++MVFYkSFbGiwrpxRRUlLCuqBIQ1a5pUf/xS6eh8LlpUhIL7p2tkX3ZK8qIiKKcmrGNLVASFSkZYvqhwRL5etk36Sh0hUVykAq71q/ulC+V6Dcmvv52jUlTjuCRmwxKp56Rpuy6s/V+/SXoWRYQ1EaIaW1jHuKiMsDCU3r5nyyGHsmIiHOF95QZpnj1N/uB9P0pUaJgxheWWHbh1iisqgr8nVVSrMqWGk6BFW2WISbwrKv5NYX3hGunGgccca/JFNVeGoYFJFRWD7TbChIpqYYpsL9gaQ1BIyP/iAqnOmmPczK7zlomKYFsTLioL4l716/uln91eQFjPyH5OlH7ictmbm564W6Gc4xNVxlskKoJCHZawFkNQ37lVWmx354qqCoJ6aYO5AE4VFElGVMQtO9BEVchTNtimuTKUgsJ6hz1f5TGmqEAtYl/9P/cEhUVRkZ4X5cDmddKeN/ePUFQEhYsrLDTajvfBhSrQvYUFxQnNp88wl+y6glJdytumvy8SKstYoiqAkAqzU83vRactkjKeOH7sVHOiufrEBVKWlyYluWlSvDpZUQWFlZCoyOzpUv2Tu6XPEZYRFeF0wxk5RjRjioqgnIkL6wiLKmlhoXCHGtkRAMFwesdFeVJkJzZdUSGH6v+z86QaoospKOJuD3/HEhTRBEUopoLsNCmgkH52r3TxAjunEUc68PteNCxnu//hKmldlSWlyH3G7gJ1UanCwrpRoiLT4FjoCgdsjmVFxUueB1+WA6j3MSuqUuwsGVElJKylGfImr2Gyk5lWVBTUF66WRnaLWEcVE7HbIdwuPoslKr9cbpmBqQfyuYIf3il7MZwf4XVTP71buv7kHGm4bpWUXZ4npbevlapPXSYt2x+UPoqs63kZ/fMLpHlBiukSJ0RUcYRVlzZTakqZvIdE1QbefEgGcUC4wjp8UVlhHUFRJe1WBIUMCAvdzI5fPyBd3rk8X1ScNvjRndIxY5q8ju9GCcniCorgM3/7JLT/mKI6PlMK63hpDMT0bzdJx8xpsjsn1VwOYy6FwTrFKzKlGCOz4rQZUnTCfCl9Y7P0tzwt+yG+fQvmwMUnWVRk1jSpaXraTDf4oiJM3Leuk06kCMe8qA5LWPkZsnPLKVLOa50gpoHybR4Q1Z6HpW/W9NiCCospAUHtQrkopoCoIJI9GE0W8Lxh45MyeM8JUknHwv9s/dTRH8RWgi6p6EvXSTu7pO/fLl2Zs9AVOqJaZZkYURlhIY+rO3+pNHbxbp+QsIbQDa6JiOiYExWDPKaoCAoYV1gI0q52HHUUlCsqJuZnLDbrWLHEFJKF24sC+1mUKjuRs+06cb4UnLpIisi6hVIAQe9ZlCK7F86R3T+7R/ay+712pVRAZG7dxpxSmDdTSnjFaMdzMvrKBmlemial6K5LV2ZK+SnzperUxVK9bpFUHzdfKpHclwOeUB63qAjKWPexS6TL3EbmiIogfsNw2GNSVAkJCwV0RRUQFvKond+6RVqtoCwU1AcvklpNOBoIsiooCGbneblS/MPbpR1OONT6tAw3QTgGCJkXzWGovveJM6SuGb9/6nJpYpKOcrv1GlNUqEvpLJHiXQ9LPxp4ZNPJ0lCwVQZ4TRTvDeTNDkj4D8BFDkK4I5+7UjpOg9AWpkLA4xQVmTldanc/bPIrX1CcFN37vBy4dY20oRs8JkTFi/RiiYokJazj4RzoboY4Q06sqLZvlh4EbAcCZwQTDysgF4r1/Fwp3L1FeniRXpnnfq5wPQaRx5nLjSkwjD5LF0emEdw6jSkqOBLXK/7EJdLKa6Pc69KRbxmY+NuTxARiO/Dfd0hPdrpU4cAYl6jQpdbPmy11yKUOuE5FYWEAcSAnXXcrxP7oEhUqU4Yd+YEGbgMQVVgEhfWFhWH4zgI0Ol3Jiorg78FTFsnu1YpYEiEXgnr8dKlGow5bMRFecsyfvDa9GFBUFByFRbDvQa7z4Yul2ZufsvWJEhXK7wuK81TIv0pfw2iQ16HbO2koLjQwL8DjjarmZgj+zQb3piiMuHpflP3nLZE6XqGQrKiw/3rkdfUft92gIyryjg3SmTdOt8J3jqyovCP1sIR1bo4U8xYoisoKiz+/cZO0L0OeFRbLWGCbuyjUPztfannPHgVFaiGW798he+86UcqXzpXdqMdOAuHsvmWNlMMtuigoKyzehvWVG6Qtcw4SeKeOVlCuqJCTlcChSiHSAU4/0O0IxfL5a6Rz4zKpwsi1FPsznLJQKt9zrrSWPCpD9i5mXlY89JIcuDAXQslIXlRk9jSpq3kiWlT73yEHkU8eO6IaQ1iuqKKEhUR2F/KPXnY7bEhCQeHvfuznDVTKz7ssYRER9//oQnbdsFrKXEEVYPSIxiqGk+xCYmvE7JZjeboUvP9CaeD+X98ivbYsVci/dm6RvnOXSPn8FPPchch0ggdn0pegu9t8stRCQCOcgqCo6FS7tkg/c6gLcqSaNz+gMQLn/tZkSQXqWPa+86WVUwBmEhPCGkD+hf2MS1R0q7uPl1Z0eQFRdcK9UL+uZRnHrqjCwgqLy29MHD2FzKUoKiusanRFn7kCFY80fkBQicCbSG3+RCCK/qw5upgsEMeev8U+K7bJ4CI4068fQHcMURphAYpk+0PS+8x6abgiX6ouWiaV162Smk9eKq1M/HkDqRUUb8P6u6uk/ea1UsuL6S5dLjUQR5So8LsZ9eVlSMV1q6WejkVR0bF+drf0QqymG0ScExYVmT1D6ssfNZclB0TVCxfMTT/6RWVeBzJOYRXwuQY/ukM6KCIrKiMsNGzGTOM+RgQeqoDCII/a9aGLpR7iMIJivnR8ppl/iikoUIAucM+Xr0d3hHVyMOrDaJF/t1EoLBPzO5RziPAgYM7FLtvcyRwh4lAQ1LNnSj0fOXTzaqmlU924Bol0HFF5VL3zHGn18iG61f6zcyCSoKBcUfmCItieLyq4VcMdcCuM/AKi4t/nL5U2tNXRLSrsqGS8wspBEsyjkpOdxDbeV9CYa0N3vCQKuredGGEN2xHehzdKIwWF/WliIqYsEPGeX94n3ezqeDMpPitELlXAuarfbhI+EWYIucowRUVn4r2D9tZ45k71T8jIf94qXcjlShEHc2Pp2egy2Zjvu0Ba+NwqIyorKEVUGOVWvLlFBikqCGH0x3fKPji561RjuhQwVyjMglvBac1gwIqKoDsf8brAo1tUJFlhIWcoeOEsqWY3ZUVFOJPNGzvxHQMqpYpHA9/ffT7yJjqIFVXaTDNz7m/PwRc3gfB4WmboX2+QDuR5/IzlLEIXXJQ6XQqw3dK/2igtfPbUDnSDOx+Svtc3S+83b5a9L52N4XqGmeSMnEyGoEjqDCmlCH+/SfrSZ2Ck7LqUIire+PDoadLM2XGK6uArcnDBnPGJim71/guky9uWL6yhV9AFpsQU1NElKuIKSxFXQFhsuCp0c66gyO8ekH0YRWkiMKCSqqAIhLr7lbOlGnmQmTp49V7pypytiiogqOWAk54UFUaBdhbdLbtJzvF5MRq5aNY0KZwjRmxFvCphTaZ3VYLFExWfrveFa2VvBxpzQzbyo9iCMqIiiG25122N9r8gB05fBNGMQ1QE26qzeZV1KvKpy6R7ecaYLvXWiAobZ4B8UREUIp6wiBEVKlXcguQXQmJ3YgQFhxm87ySpxFHGxg4LYUwg1N1/e6U08WQ0hfWFa6RlmeN6ICAmAqEUIEkvrHgUoz440PRpxvHCZY47gx7AExRhHnXSfKlgd/aTu2TfglSn+1MERbD/CuSD5t4/JvlXrZRGbGtcokI31/jqfTLIkaUrKm4XsUqo6yP43pEVFXbKWfWkhIXPCh86RapNXhIRlYE5FbZNZ4lqfOCKQwWusZvJNlzK5Gc4Ihk4bVuWwsxZUvBjdGnsdq9eIeUQWaCsxK0L64bPEhIV4lOOMpVhJGjuiHnlHGnBICAirBiiQpdZWbQ1klftQ+Pfukaa8scpKtSl8ZI8aeZ2XLfihXwoWwu+c/SKyoKdJiQsPsmOp1+sqCw/v1d6lqWrjZ8QOPrMtABPt1RCJP98rbTxEYzKd3lZcOF8JOK8rIUu+ZGN0oQRYFS359aBdcJnCQmKUFRk3kwpfW2T9HejQZ9ZL80YTPA8nyoqBLcSLmtucKCjXLnCdypXUAmJCjSirep5OY4VFOEIc9PJ0okyH5WiqsROA4HFjv2gE7dRCD4r4nM2eeqCoycDBNWAn8+ulxp0fX7e5aGJQgUJfsEL2AZGOGZW/Jf3y765GNVBQOYqTuZKKENhKj67Il/KmWzzUUJ/e7m0zIVjYRsJC4oE6h5DUIS5FByrfMdmGWBX9EOM6rDNqqzZkZPILrPhVOYyFuZUL8qBdYdyKlVQBGWJKSp0/42/f1CGwqJ64yEZYheIsh+FomIQ3eAC7Dwc/ICwFmPYzXkeX1SASbLnFGMRJSYLhXPOEinlk+04aVmDbdL5zsyW4rNypGRjnlQ8dabU86GxnKwsQ9619VSphaC4XVVMhOXH5+E6Beps4qAIygBRUVjTREq/cr3sRcOODqAL+p97pGfzydJ8wVKpW58jNWcslpqXNxyaq+L1UAtm+6M/VVTYdkxBERykjRi8dHK+zBUVT2LnI1lH2Y9SUSUgLMIG4l0oL5wVGWkRK6pi5EFzZhhx2MYNiykh0NXs4XYpKsJ5pLZnIs9+4qw4n/dZ8LD0f/QSaWGCjnV8MZHDFRQJCCo0jcCu75ylUvPd26SHp2V60bgQ2MFhMAhn6ohcumJO1yA/7PJE5QoqKVGRExdIE0/buKKiqJekHp2iqkLFDgU0HGyAggQaBPlU8X/fJXutqCw/u1u64SqBBnaIEk8YOEEhGqzwHzHi4zyVmZkHcKtBJMqt7zxHGh45VWpOXSglSIYLkPwG9hEW04QIijiCQoOYHIr51CKIi8+oujxf6p5bLy1wk7Y/PCgD7d75P17kR0fbdqq0wsFdp/IFRbDdMUU1bZo02LyKgiLsYi/IlXbU4egTFQOHygUCi4IEAo/C+I2SkyrFdAw2vBUUf2eizGu+8Z1AYycCBEBRFRc/Kv281OSbt0hn6bZDj2TknNUSCHZNlrpulJgI/hcQEwnXK1xvX0iWMSY7CfMoXupyy1ppRGIeuTMGovrmrdLLmxoG4SjfukV6kX/V4PvxXCqmqOBITYjHSFhU/3iV7EPOFVdQBNs48qIiNrA+4QYAKFTJ8nQp4UVjENOwB5/+O4yhL0eS4YaNEkEYiKkIw/QidqE8J7f1FKlJgxNdiu3h6BzhVQYUVuHD0jffyZ3c/bhQnPj/4QvKFVO0oHxRcRb94mVSz0amoHipDJL5UYxaa9JnShVGp/s4CvzF/dKfHXn+Z1IuRXjV5zduln7uw4qK/O4BGVyakaRLHUlRERvgAKHGgJWXMXBwJysq84hobLMA/1cb2oKKRYkK2yvCSIbn5oww8T37eeEzSMqZQ5nzddjP/7tB9i7G98PbJbHERMJ1MITq6cbBEF9U/hQCDoAKXrhHQRE2/LqFRjQUEA+Qms9fLd28+/hd50onUgTfrbDdRETVhGS96S8vlC7mVa5T8RJnjEqPLlGhYnyNSEU4oPg8EHAUzm+ME+dLBacTKCorLDQ6C0kXcRsyquHDMOnn6K3lGRl+/wXSxL/d/1NAH7xImuvhYubqAnSNpy1GOdDN8v/ch7vPMG65fcJ1A+H6Y914gvJFxUuHP7pROjgxaZJ2NPpledIQnuycPUOq39giQ6OvyMHVWRBQfEFFiQoHTNO1K6WNk6CuqA6+Sw4uO9qcChWOiCoSuEBgGewo0CioXBVE5b81gVQ8JkO8WQDbidW4RgCuYAhdihfG7d4qA3OmmTmoqO8shGNxtMcZe86Hffs22ZsTudlT3RdhOVVC9XHr6+OKKRIXVVAEcaygS9O5mUd97irZq12VgO3UHp8ldbxD+r8wakS9+VksUbmCMqIi6EqbuL4rqgPvkIN5aQExBQRFsO6RFRWPKOzMDWBUkBl8S36GlG1eJzWcR2J3RSiqwq0ymDHDCEediojFxmVS2YrGePe5Zj7GF5/FfC9DSu44XmrQeMMUVTUEjPIHXNHC/cfEqQfR6optJCwoJui3rZUGNjBdii6E3JDJeEBQlsUpUvfaJhk8+E45iEGHK6h4orIX5DWhzvVhUfGOnuyU2C5FsO5bICoGKzqYUQFHYIyomOdYQVl42/hCe9mIA7YV1fAWJLIlH7pYmuF6Qzi64zoPAleMgI5SVJx0vWqFVPAmBf4vvM8oQmIi4bqZ+kbHIKagyJp5Uv2xS80t9fvpVL/fJP2ZhyY6w6Li3TJ17zhH2kcgvnNzTZemCSqeqIyAraAI56oWxREV1jskKFdUk/jQs0OiIuGgRgIbCH5+upQj2WwMi+o3D0gvLF1v1BDYrhEDglH82wdkX/mjMjgthvNY5s2SIl5SzJFmI7rebaci+OHLVcIoYiJufQx6vcOCIq5LVSPhrv7B7dKHfJDPQRhF7teB/EabPTeiwnp1Fy6Vhj64zcPrzNWbY7lUWFSNnPtyRdX/ouxfmmoENLaorKAmU1TmNSKuqCx6kH1Rvec8aap3uj92S7+8T3pzMCpE8CJojRxi/hwp4VNg9iBfwgjJdJ2xyJolJf93r+yzI82XNkjzKk1UjnjCRImJ6HUNxiNCwKUoKgwiqn55v/TRpXjt1OaT4RgxBGXBSK2O0wsvnSUdy+cm7lIEbdbI2fqQqA6gTTgBGiUogvXeElHV2kCBYCCVgC/PkIp3Q1T2DVMNT0SepvJriApOpTZmAEcA89FdFkJQJVulf9a0+KKCU5XADXusqJ5dj+4jU9l+CFVIJDypScL1jxAlJgvyJ/PwMuZTTNKRFrQxntivKiiyBiM/3uXsfTeeoMKi4tOaGzlDHxLVweVBpxpbUEdYVCQ6sE7gcXRVvIgGhVP5ry4jSED7kBeZRkTw1AYOAxGWfONm2UvXQ3l4ZaYqKH43FU7GCwI5KOCNCZtONM8fULdLokRk0XInotU7GJeAoAj2U/3VGyLn/8jXbpIub3JTFRRzqLtPkBYm17ccJ63Yb8KCIogRReULyojqJTkIx0xOVJP5xgeKipW1QQsRHWQEH9+v2Hpa5Em7nDOyotr9iAxmztIbE+uoDc+kf+sp0tD2rIxcnY9GiiES7LvslIVSwUtO6IqcZV+BdQPfUfYbRVhIRKunEo+woAzzpOaFDdJmbyTlMxBSZ8YWFV3qi9dKD0eJJ8yXRqyftKh4pYIvqucjz3NYNCdaUG+5qGyQbABDBAKOwlbedpzU8j3FFJWl4nEZnjMNSbjWmArYrxHD8VlSwYddfPdW2YfENyAUy0IMAD5/jbTbHA4J+8Cs6Ujgle1GoXVzllDdPKJiEBASQJkoHANzUl64x+6P3do1K6UJn0cJCvurnzNd6hgr5mAYJbr51JiCImizxl7swxUV71pedmieamxBHWlREQYxBn7gMRyu5W1Z1q1ILXIrbJPPZbANRvSGdlg4W8qQ7Pby5k3eAYwyBP7Pz06cL5Uc9UBQ5uEY7z0fSbrznSjiCYk4dQkRVW83NhbEzBdVxiyp/t2myCMWCW+zXzjH/C8gKHTV9X96rnTy+qoHTkZiHcynYgkqIKozFkkLk3xXVJxRX56etEtNuqjqtcDZoCpULsCoh6MQisrCPAfb5PBfa8SYIvMeIFbJo3wPutCZ3Ibzv0WzpZzTCLab5R3Hc0RxxLGERKJFZImqJ2IQ16Es2G4tDrIGlp8jQHbR37xZehelHBLUagjquKzId3AADudEJj6Tcqk1mdL8/FnSxdM0VlBGVH8iB3MjTqUL6q0SlQ1QOIjEBtllaYZU8ukmFJIVVRt+z003/480lNaoYTyx5aVL+ZNnSCOCNPq/90oPu9E1ECAEVcaHZdAJuY92uNWta8yT5/TtaQTFEyaqbkSLg41RCJM75aRKLRL2fRyV8Rwg8p4DfNA+Bi61EEM94LVQo+yq8DsnPRMRVEBUoAUpQG9YVKWPyihGoYm51FshKosWVAbbgiOjik/PpaissNgtvbxBmtDg0Y2nNXYIjJrKP325dKBBRvnevHULperL18teuw92tx/ZKG2L0/T1A4T3rxMQEtHqTcLx8bDJuGHeLKnZ8dChW6n6XpID162Ulk0nSRvzIAoK+VZLXoYvqLCo4gmqOW+utLzxoAy7giLfuV36lqYn7VL2xdyTIyrsoMELTFTgtAAz+HSk7Zul3zY4oaj+/UbpXq43YDSKGLJTpfyJ06WZp2Nw1I/S/bhdJrafvFzaUebi6dNM4h4cyWnb14kSkkWrqxYTEBATp2Qw6q2ZJpG3OWyHsHgjqb2YjqdRmC9uyJEm54H7YUHFFRXE0pI6Q5qRUwZcqhsDnMdOlS6UIVmXOmKiskQFMhzs5RlS/XdXSgeDxUa3wuJzmmD5bmNpDRsXHMmVGHpXIvHn1AHflxfZxzMyzOuqeD/dj++WHuQXLWjMcnx/XF2cJVw3ixYHYGKE9WoXzJaakxZK7cc2yt7fI1HnQIWDCXtvHgXFUeG3bpEejvSSmD4ICIpQVHNnRW6ld12Ks+lweM6mJ+dSb4GoVGERN+inLJI6Xl0AMdnXu1JYnMRkI6sNCLRGD4BtV6IBqjj/Qodqf1r2f+4q6fw3uOD3bpd9fF4UxcwuhYkxX3u2IMWcXHa3o+07gFsXF63eHiY2+E4tEu+6H90pfbyhc+gVOchzfxwBfu8O6f3XG6Tn1XtlwDQ8RFD7uIzMS3z6QBUUBNBy3wnSYUZ+nqCYtx14p5lOSN6l5sreyRYVb3TkSCUsLKIF14gLeVU17yKhm1hhUWQ3ro45mToWRhDYfuUdx5mz8eayXF7tibKWIRk1d7GgG+Aly5VXrZR6nmDmq2PpkDyRC4fTtuvjiidMuI4OfjyWpErNXccbxxgdRY707zfJvnOXSOPCOeYWMXNpC1KDenR1jXQRTlRyyI/tUzzjEhRZBVF951YZoJBcUWE0PLrMy6fw/cRd6giKyuKKyiUQbHQ7NWxwr4vywXC6B67hNpjawLFAkCo/vFHa7fm0n9xpzilGfY9uxst4t50mzexquG8M22uw7+D3HOFohOvlEKh/fobUPnW6tPXgQKp7UkbPzpEGign7CF/BWY/Y1rD8FBXnpTZkQxjRggqLShUUmT1dmuuxT1dQ/Pnxy6QHI+fkXeoIiIozwK6oEhIXnKHmM1dgdIbguaKq2ibDCAK7MbURCSoVaHiXJWlS+a/XS5c98/9P10gXBKx+l8AxKzfmSR1dky/Ezpodf98WW48YBOoMQZi5KM7816A7Qz5lxIT/RQmKoP71lY/LMEU1+JLsv3m1afh4ggqIyhUUYT7V+6IcdEXFE8mnL5IO/D95lzoSogKcVgiLyhIIsEPNaYuljue9KABCUfH8F0YjFI46ehwLPs7wqzdIF6cQeEb+n66WLg4MtO9a+H8M3ZsprC9eK10YYqvfY5njoNXRgJFdNUQywjkiNAaFo4rJowGiqivfFvn+EER1y1rT8AkJioRFZeanUDcrKMKrR/OQT+H7sQUVFpUV1JESlQVB1IRFooKN/KG2D0eMFRWh7X8bIx6eE8N3fLRG1oArVX/sEulg10enQkLcixHOmN0Y8q2qn90tfRxxYehetRqfufsPg7rWwIHMjDj+jgVPYdU9ebq0Myl/HD8h4FiCsok4nylVy4v2KCretXxOjrQ63V9SgpqFrq/xqUiCbgVF/uduGVyCrg/rJCaokKiQp+1HOSdHVPkoOHYYFSQGNA4m6Bh51H7jpkhX5cIbTbF9Jt1qg4ZxxYG/qx88SZo4cqKoqpG3TceI0v1OGLMNCOTSPGmgW33gQul0t2//v2iOmUuqPC5Tau8+QZo3r5OWm9dIU/os8zkdz0wX4Pt+XefMkNo3HpJBnmJZwBxKiRXwBYXGajhpvjQOIJeCqIyjINcLC8kSV1Bwk9YrV2DUF3IpdIUHzsoxoontUnEERSZVVCg8K2SDogUsrnvx/6ioufTDQjG861xpYy6C7wQaNxHQCLUcXWE75iEUV61AY0EU2ndd0mZKNfY/8vqDMsCbOPkZAliTgc9vO06afnaP9PFUD12HLkI4NcHnnvNiQ+Ry+05ZJA087YJ1TR05fYAG3f9vN8o+OGY4Nr6YLIhn479cK70sN0XFgww5UdIOBVqXpknr9s3mdXEBl+LjtNH1xRZUWFQhQYGuIykqSzh4BhtoF4w+6jAyGXFFRSofRcI+wzS2cTWFKFFY5s2S6qJHZYiPROREIt97h27AiCQefBDGT+6WHuR2I6kQEoJXuxxl3LFFBjjHQ7G7oIu1n5lzdjzFwlnqf79JeiDKGowk665cLk28/umhdabx3HiEY2YeUJaTJg3YlxEUHeXlDRhoBN/SkJCgSG6qtDCXcgVFgf35BdK7PD1BQb0FolrvdX88kqKCBNwgBkAjGlEhd6q7Il+amUO4ouI80z0nmJOnmqDGBF1ZE09xUFQI7P6/uUI60X2xq1O/T9CgtV9Gkk+hIN+ouQtdHBuCgweKhj/ZSLxTGI0zyqcR8/+cU6IbcV+Ev3OUh23W332itNnzdrzaAHXX4mTyJST09QUPyzBFRadCPnUAgqJwkhGUERUO1tb/vlMGKU5XVCMvy8FlrqDCokpAUORIicqiBY1ECYsg8HUYbdX1oDFcURE+XB4OQxehAFUhxAICqfnhHdLLRuY8FI/6v75UOmdMM12aug4HDn93peyl47x0lrRzEGFdiLeHv7ZJBi6F87BLoxMBM2m5bpHU33mCtHHEyYbj/ix/eYF0HoSoNuaZSUgtLo1rsqQxY5bU/3aTDFKgFBTPCDywztzcoIqJaGKyoOtr4XZcQVFg6MIHUc/EXCqGoMiRFlXS4lqWIfXvvxAjNjgBR21WVBDEKEZMzK0CXWYIVSCoeO1C5DZ0FDYuE3d2TcgxBk9eaN7myTurzRyShd3tM2dKO75n8iXrPP1Imu84XloWY3tI7AP7d+uxOE3qPnOFdDPn4v64X3abTLbRkA1wSvMYao9GuJB5dOKmk6Wt9WmTnxlB9QGMWgeyU0wcExWULyrkdK2/uk+GXZfi73TME7KMcMYW1BiiwiDgAMo+aaLiBfiseFhUFk1YlkMNkiL1SHgPGmEBiIo/R3lZDF3BbchkoCDZnVlhEXaLJVtl+Ks3Ss97z5POPzlHOr58vfTseliG9sEprMtQUBTFGYulgVMBdptuucPw4roX1kv7MITIbhAN6vOb+2Xgs1fKvnedI3s/tFH2ff926Uf99uO7BykmgrId/OndMjB/jnmhQNIOhXVaL883LhsQFHntQRnKtQn64QjqCIrKognLognLgNyq/tHTpN08Rc6hE7DxvXvcDK5oEgFdYd3rm6Wf13AZx7INTdF4jcm/regsFdvMOcF6NFZAOHEwdcnNkIbrVkornYfbpet5HOBnnM2mG9l9Ww6+Ww5+6GLZtxCCwnYSEVNAUATde3PNY6Z+AUHtx2AByXnEpQ5TUIhp96SKChXhBJorKpewqCxRoiJIjhvY7XFUZfCEhQY+sD7bjI60hgwQFhRBIOp4auTW46SFl8TwtnEjKg86igFCYi6DBt6P7xw4I9vkO+p+HNS6LIUYP3kZukJsC0P4g3xwmd/Inoj4kzkUH5Lxi/tk4MzF0oIYMD7jEhQOzNbPXC59zB9dQZGvXC/9SN7HFlS0qKIERY6EqGzlNWGRsKhc/IZAYRsuWoYRF4LtC8uj5glzWiBu1zMWKGv9fHRPZyySpvtPkvZv3yq9BY/IQOFWGfgBkno65ZnZ0pQPQdDVsM+RDCTjyrYCAgrDy3/XL5FmPr/zDeRwWbOl4cJl0oKhfNevHzA3vw7xKk+ePrlqpbSfMF9a2N1h3YCQLCj3mILCAdd27pJD3Z4rKF7pkJs6LkEFRGUFdaRFZdGEZQmLKkAO3IqBD4uKIzCM5voXz4lq1HCDjwnyLPMzG91i5uwIvOwEdTH/Q/5Uz1MqoxAWEt6BOTNMbubuMxZmJEe3YbdtLluJXFPOe/Qa8zKkieLB/hqz8BPJu3luFNYLx8+A8owpJo82DDxamZ+FBcWJzntOkC4cKEFBaaKKIygSEtVBaGByRIWdsXBqUEBYUC6qqMiS1Mj1RHY4TygsdlHvONucQtEadELh7PdHLpFu5CIHipHUL4XYIYrw9/wyczSHAUXD7cdJO8ppTq9cuQINHrkWSqu/JSpuEIkmJqIKauZ0acWBOMTu1BUU/35tkwwjnhOSR7lMqqhQqcDTbRmUGGgBdfEbiA1xyXJpZd7hCoswv7oAXSQcIdzAEw4T7hfOkk7exsQnrXzjFumDw/CEb/1cCGg+HGfO9MhLhTaie3sdoyt2mweQs12Qa25S0OpJtPgY3Fg6qGIivNLgc1cijwoJyiT+KPcSjvYmWFBg36Q7FSoXFQgGKA5aoF3YNTR+7cbI5CVxhcXh/kkLzCSkL0QPVRzjwN8mHQo5WPObD8kQJzF5yoVzSkWPyPCbyJcqH5MRjiI5uqI7feUG6V0Mp8W6Wr20WBi0GHrEFBRi3/by2bKPrh4WFOekrloh3VHd3gQIihwJUbGiWkDGEhfRgm+gE1Q/HnlMswuFxeu6F842N1r6AphMkHM1nLxQmtH9du2CwNqellGIyVzF+ev7ZeDO46VzNeqTrQtKq7dBi5lHWEiWiKCQmN+LXEkTFJP1v7pIepdxCiGWmA5DUORIicpFC9K4BIbANDFIYWGRxidlPypoZqfx3cnGJNXs0hammAEFacqBiPg3/++g1S2AFh+PcCwtRkwE9W2770TZy3cBhgXFPOr3yKNwEBwSVEbygiKekN4SUfFNTFoQiBY0AwObAE354JRF0sKRlDvTbWl5VkbZ2Mix3Ea1hIURD239ZNDKH0CLg4MWP+KLiSBHanv8DOnmqM4Vk4VnIhbMcfKosJgmQFBkckWVIXudSmtBsWiBNKCiaiNY8udK80V5kbP9VlguPAF8Tra5CkBr7MlCLWsYrb4htFhZAoJaOEdaP3ih9LpdnisonhrKP8wuj3giiiko0HMknCpQeaAFyKIFNgAqH9U4yyGsa1ZIB2e6OfMdFhYvlnt5g+zFUaoJ4HCIKstYaHVS0GJjCcezDfFu/cEdMmi7PFdMhGcCVqQZ0Uy6oMhkiurMFRkoiBIEBy1oLlrAo0BQmpdnSDNGNO0cZVFYYZhPfPdW6UfZOG+kNvhkoZVZQau/S1T80K23LUqVtqrHIm/bCouJdaaDY5DA+btExXRYgiKTLioU3L8+RwuMgxZIF60hAsCxWi5cJu28H04V1vOynyOydQvN91UBHC7hMo2BVk8XLU6GebOk7ZkzZR/EdFBzJwoKLj26LC0pd4oSFEQSFlNcQZFVEVGdCiZeVMypUHhfVBYtSCG0AIfRGskI64T50srr0Pci2JzBDouLr+P48vXSh3I2rh2Ha2n7TQKtLmG0mBgQ03Y+h3PnFhnhyDcsJsLP9zwsI4uZlGtiIpMkKDKposrPkG4UjkdJlLAs4aApaEGPhd942G8rr2/3hRWCRzJvVr3nBOmYOxNiyQw0/EShlTEWWt190NW1TxNp++wVkRlyTUz8nJcZ/9uN0r+Q0wbjFBOBOMYlKKzbe2RE5aIIyxIOpILWGDGZjxHRV26QPj7oQhMWwVF9sHSbjF63StrnTDsscallGAOtjgFQHj7mqO0vLpAeTuxydKeJiTCfvOd46V7CpPwtEhSZXFGhMNhJUFQWRVQuWoBjoDWWz7J0ab1suXRyLosi4pl6FysuNk4FEt57T5ROlJ8P51e3d5ho5Y+C9ef1TShHyyculd6O5yLXVmlCIryoj9earZ0ve9H9JyomkoigwmKKKygy2aLa51RMFxcJCSqMFvgxCDQmAt26PF3aXr1PBnlJblhYLsxHWp6WA1++VvrR5bRmzBTelBDYXoJo5YrJKtQT+2mfDle6LE86UdYhCiaemAjPOfK2KowCJ1pM4xIUOXKiClZWFxcJCUpDa5RE4EX/G3Kkg/M5bCBNVBbbiMjL9v/D1dJ34gIzH9ScnRK51hvlGJd4LOjWjCPNn20cqfXO42Tvj+6UIXZxnBGnYGwZSFhMvEK1AMn4UgyGQDi+mpAskyoo0DfZouJOOQIMVtpFE5ZLSFCx0BpOIx9kY/T08gbZx6OcCbudgY6FbUjOzu98SEb+5Trpu2aldOakSetMCAIVbl04R9rohnCcNgTVh+JZhv1lzY5MUqbPjHy+ZZ10f/c2Gah6XEZZBjoSL/WNJyTCK0Y5oXvuEulakq7GUxMSSVRMZExBYf2wmIygyJERlSUcABdNUGEUMY2FJizCZy+hsdufWy/7eI24vfM3Edi4RgT4nZe2oLvcX418rPARGXlzs7k1fuQ3m2R4B37n0L9oq4zWPWHuVub6xol41w6344oolpDI8CuRc3cXLJUuiDkcO1c8YaLERCCMcYmJYP2YgiKTKar1pvvTKxpfYEQTlYYipGSAu7QvSZG2B9dJFxuPt4LROcKNPRmEhRMFxMcBRgFEeWaOdC2DmHBAuDHSYxshGTGRCREUmTxRzZL1KAR3yMpolT6EGygNTUyxUISTCPkZ0s773k5ZIB1fv1EG4F7mLhdNDONBFY0CBwr732lmyfczAUfZOqO6OS2Gh4gSEkFbhEVkSUhMBNuJKybDPOmfTKc6a9Vc6ceOwhXUAhHBDVw8mJhqghoLRUwafJ7Acj6ZF+t89QYz2XiQ+Re7rPGKJRYU0RC6toPvkYO1T8rou8+RXnZvKENnXnh6QIvZIcJx9kE9EhUTSURMMQVF0EMNQAM89zefgpiIxYgKCey52MEQdqZW1EMLziHcgI5FWEATBK+Q5PkzNHTHjWuk6++vlH4+gpr36/GePF4qHHY0VzTuZzwnyaf+8rJjXq++fbMMf/Ai6T19cSTpXhoWkhaTaLS4GiAITUxEExM5bEERrFcGDUy4qJaA87HxYWAqgh2rFXfQAhbEFVEiKCI5HFZkSAdysA50k0ZouanSuThVOjikP36BdN55vHQ/f5bsY7f1/gul78/Ol94nTpfe61ZJN47evbnpsncxXIjfp4Dwd2fUZGW4zjpa/HxszBU0IZEJEZMFMXoV7X86yAITslBU2eA85ClvoIBRlUNh1GA4aIGMxm2MiUARkoq2LkDdjEjCBJLrMFq9dLQ4+YRjHEITEokSE8H2xi0oMDBnljyC9mdONWGimg4WgQ2pM+VpFJKF1ypqQOHUIIXQgqyjNdzRglbe+GixCKDF1CEsIksyYiIJCwocgKvcjPY/CcwFE7JMA+xLT8PG70IBhlBgt0Ja5Q34rho4Ba0BEkNr7IlE22fiaHWNQotdCDfeLqqYCLZ7OGIiFNQAttWCtr8BrAXpYMKWDHACuHn5PPk5dqRVUAtGAFRCDaqC1kDHClp9otDiE0KLsUUVEsG2NTGRRAVlxETyMTCbN1v+DO1+BcgHc8CELdzYCnAFRoFPIafg4wi1ylq0IAVApdRgx0FrwLcarZwx0eKgoMXTogqJYPuakEi0mMgYgvLg5doPgXNBDkDzT9xik/WzwYPLMuS7oUppAXDRghcFKqs2RpJojT8etG0nhVbHGGgxc3FjHQD70YREDkdMAzCO0Zkz5T1o7zsA86lMwFRowhZujEnaceBG8AIq1BauINACEkYLqgqCoDbW0YpWhzhosQkTjq8P9qcJiSQjJhIlKDCYlyE/RDs/Di4Dy0EKmFBRcZkNcsH5YAt88H0rM+WAVmEHLVAaWtDHBMFSG3cy0cqRIFq9NbQ4+qAMmpDIRIiJDK6aZ5Lzd4C7gL2Lhr3VhC+cWrBudR14ZsYM+WvY5DAK36sFIIQWwFhojXKsodUrFlq8fBjfOOhiIrqYiComgvbkJT1/DraCjYAulQom3KW4cKNM1BaDMwD72ldmTJOPrpobERbRghIDLbjx0BruaEEr71hoMQlgYxoDXUhEFxLRxEQopiHAV6R8ADwDaBwc8XPCk4YyaQuFlQbyALvBB8C78OFH8zOlFIXjCedA5bVgxUELfjJoDT4RaPtKFq2+UYTjp6ALiUSLyKIJiRh3AvuXpMt30ZZ/BZ4HtwGeluHgjGnPpC/sW9kNcorhYkBhsf/9yOwZ8jlUjrkOKxkVEC2IY6A1zrGAVpeYaLEKES0gF11IRBMSsWIaXZEpDdOmyafQfh8EzwEKagNg/jwpyXmshd3gPLAKXAjuBS+AvwSfnD1L/h4F5lvah8EAKq4FyqAFOUG0xjySaGVKCC0OMdBFRHQRWTQhWUZXz5ODy+fKa0hd/hbt9XHwPvAUuBWsB8sA86hJ7fbCC9VLx6KwONNKZfP80KPgTwBt9BP40t+mzJB/XJAqX0UlXs3PMK+CrQ/R4P7NB+NPArVJom1j3Lj1A4H6hkGcGg+DJo28DKlYliE/njtTvgohfRZt8zfgY4D508tgM7gG8KQxr0hhinNEBeUuFBYLQKtcBy4BHIZyfoNdIkcRHwJ/DXhEfBLQaqc4sjDujP9HAQ/494KXAK8+uAUwP+aonhcO8OzJWyYou7AALAjnMphnMcGjuFjYBwEFxr6aRwSF9k7wrimOGIw34/4ieBawN7kP8CTxBeBksBRwxnwWOGI51FiL7Q6Z2C0EHB1yOMr++SJwJeAQlbPx7CanOHLcBCggdm+XA7oSJzR51QF7GE4ZcIT3lrtTrMWKi87FESLtlEcBHWwNoMUeDyi4KY4MjDfjvhow/2XOxF6Fl7FYMR017jTWYgVGS6XIOJpg/sXKEF5OM8XkYmPNuDP+bAeO3I8pIU0tU8vUMrVMLVPL1DK1TC1Ty9QytUwtU8vUMrVMLVPL1DK1TC1Ty9QytUwtU8vUMrVMLVPL1DK1TC1Ty9QytUwtU8vUMrVMLVPL1DK1TC1Ty9QytUwtU8vUMrVMLVPL1DK1TC1Ty9QytbzdFt7wTXjz9xRT/DFhtT+1HCXLzLUic3JF0nJzZVH+PHl6ZYZ8MX+ufHvFXPnZyrmyfcU88+TbWvxer1A3TqK2hf01hNG+FwtnvcZEwXqkaSzw3eaxQIxaxqA1irkemYY2fKahvkaWYL8dGthmx6q55i1UsdBe3bEX6/IB+Cr4Px9Sq8EXhutkSE8MekGf9zPACnwO+sPgf2QgDP43GIMhDawzHJO5MgpGAMvRvDJdCsGv8ft/4zj4m/xMuXJFpmTliaSeHHkU0JSZTdZCU0LAz8rPkj9DA7yGBihBI1XCpGhIRaDwKIblSxrUrTgREItifL9kLGjecZkrZfFAvMtV5oJ5UqEyVyrHoEoDhlUdC5SlJg61MaiLBcpZH4OGODTGoCkG7BRUEPuWGLTGoE0D21I7BsQz8jLVDOnEsUNjpem25GfID/Lmy300MRxifCzY1DLOZSYzJvTaf4UeohRBrsGByYOOB7JmCMciUQYVj7BJaUC0YxoXvqOblYtiVhbfpMKM37RUwyKaWVlQFs2siGZWFtWwCMqpGRbRzIpoZmXRDIu8tYYVDbPSXnznIH7/3zWZcikTA+8YnFriLXnzZAENCuZUjiBS/DxQtQM9GQqOINr+kyHKpGKhmZULxHv4xqWYlUU1LHIETQvl0MzKopmV5W1rWATbS8aw/FfY52PYDIZwDP4Bn5/rDRmnFmeZtWaRnLUiXbZD7FUIGg9G7UAeC808jia0Mo9FlElpaGblAgEfnnEpZmWJMivLXMWsLLpZWVTDIpphEZRDMyuLZlYkWcMimmERzayIZlbkrTEsopkV8QzLAtPqxs/BlVnyyfzIW/z/qJdpqzPkIgibJsWXKWkHayw0MxgPew4DbXvjQatfLFSzctHMygVCVs3Kgv/rhkUUs7IEjMplgk1LMysLyqGZFdHMypKsaWlmRTSzIppZkWQNixxRwyJetsVJ/M/mZ/5xmZY5C5GTI9k4cF6FKCha7aDU0A70sdBM5kiilWkstLprqGblEjYqF4g5braF/+uGRRSzsqiGRcZnWqphEc2sCMqgmRXRjMryVhkWSda0NMMik2ZYxMu0hgBfT/W2PqPIik1fIZKyfJ68C0HhcE87AF20AzkemlkcjWhlj4cWmzCqWblohkUg6Ak3LbSvblgklmnpZmVJyrAIyqEZFtHMikyUYRHNsIhmVuSYMCz8j5eKDGBouJ0JR+TQfnuZFiszbaHIXFSY10FxAlY74CzaAauhGUFCoAF3TwbavhJEq5+GFq8wqllZNMMiKP/Em5ZmVmQCsyzNqCwog2ZWRDMrohoWQdk0wyKaWRHNrIhmVuSYMSwODVdkSDcSj6twbLsXox6zi8mm+EtenixAwH6Fg4LC1w4woh2cYbQDPSbYp2oqRxqtbGOg1T2MFsMwqmGRsFlZUN633rR0s7IkZVrYv2ZWRDMry5RhEc2siHcxLn4/CMO62zvO+brAY9KwWGheaDYTQ78sCPNnCBYv4NQOKO1ADKMd0FFgH6pZjINdY6CtkzRaHWKgxcRFi6uLalhEMyyC8k2oaUUZlWV8lzpMlGERzazIlGGROGZlMqx50rs8Sx6yx7t37B8zizWqObwlBuniv6KRKT7tINIOPBftwPVBoFQTGAPNfCYDbd9x0eqooMXJRYuzRTUsohkWQbmSNy3FrCyqYZHksyzVsIhmWAT718yKaGZFpgyLxDcs3rrUlpMq5+KYZ4bFF2QfM4ZFo0oBs/PS5V4IsRaVCx802kHmoh2kPgi4erAraCbyVqOVMwqt3iG0uLmEY+6iGhbRDMuQAePKkBL89FlO0qVkabqUWnIPUYa/Dcs88H1DfrqUmwt/PQ7DsMiUYUVI2KwItnV4ZkU8wwJ90MjPeQINxz3fJn9MGBadlQWeO0dkNQT9E1QiPPzTDiyLdlD6IMjqgR1CM4iEQNB3jgdtW0mg1SGAFgsHLY4ubuwDLJ8rRTCRIhhKUU66FBL+npcmxdkpUpKTJiUnLZCyS/Kk4ra1UrHlFKl+7kypffe5Uv9XF0nT31wmLZ+/Rlr/3w3S/h83See3bpW937stwncB/u78Gj7/5+uk4++ukraPXiIt77tAml7eIA2PnyZ1954oNdeskOqzl0gVDKByUapU5KZJ+dIM/Ew/xDL8jbJW8DuIt8aUYUV46wxrnowuyZC7cOxnAN6yc1Tfb0gnpaOysAsh+ntRCTaoe4BoB5NFOxANCKx6EIfQjEAF5YoynMlC238ctHr5aLEJEYgp1ilAdluAg38PfhYSGFAROStHyp4/S2q/eK00/fgu6dq1RQbanpXRfc/Lgc7nZKT9WRlpeVpGmp6R4aanwVMy1ADqn5ThOsCfLg3J8JTZ3nALaH5GRluwX+674znZ34X9970oB/pflIPY7shvN0nft26WvR+6WFpuXC11q+ZJ1ZI0qYSBVeaBpfw9XSrRMf7RGBbaVTMqopkVSdysiGZWRDMrArNCLPowJPz5ApF5OP55c3QqMCfYjsaFTsoCLoStLslPk0+iAu6V6YEDKYR24BkQVPXAddAO+gAIZpSJvJVoZVTQ6uoTitEeHLx7kJXsBsaYjsuUoptWS/lHNkrDq/fJ3tJHZQAmMdoKc2iE+cAIhuqekKFaD/4eC343BuM2rUYYlQXlGiH4XQXGNtJMYJ40tr0wte7nZT//V7hV+r96g+x95FRpOjtHanHAVCMbqyLoMCsx7JwyrAiTaliIew86jLL5M+V8eEAOmAuO2uEgC0ZXzcU4cMXKDPmhMwTUDMoSMCcXBFM9UD20A9wHgVWNIhYI9psThbb9WGhlDxFV92VzYUoZxph205iuXiGlf3OF1CML6WY21IJsiFkQTajmcfyMBf6voRkWgRkFiXweZVhEMygNGE7AsGIZFw1LgwZmYXZGI+uBkbFcGIZ2P3aaNB2XJbUwr2rEygCDOdYMK8qsCLSgmRXRzIpMnmFFhoP9i1PldnjAcrAQHJXZlZ2rQhYo+bNFTliRLj+HWfGMUTyzUk2KIIhRB6mDdlAbELAoQ9DQTGaygJgTMjCtPojhLhjTziUZsgtDnt0nL5DiPz1X6t7YLN3MkGBMI3UwHpjSYDxgTiQp0yKuWbnAaA6Bv2FcZnjn0kgzCmFNKoz5H8zHJWxYsUzLNSyLMW2ATHIEBjbai6FlDfbx9Zuk+4oV0piTLjUYPposDMNJzayIZlYkGcPSjIpoRkU0syJHj2FpZgVWZMr+7HR5AB6wBjC74pQQL2c4qhaaFc8CLAZrkGKdhsZ71TMrzaSIalIEwdMMyhJ1QFsQSNUELJqRjAXW2zEW2nrxQGzimtdSmFNOmuxahfreskZKv3y9tFRsk0EcrJwvGqp8TAargWZKiQCDChgXzY5ZkgEHdD3NBvvh9ypB+WMyUIRhJAyy71f3S8/P7pbuH90h3d+7Q/b+523S+Y2bpfP/XS/t/3KdtH/xGmn7AuDv/4rP/v0m6fz2rbL3u7dL1w+wzk/vlp5fYht/wLYKHsb2US+UifuKzGPBYJoiQ9XRJv4OwoZFkjEsF3xuhsJdz8mBrmdl/+8ekL53nC2tJy+UuiVpUoOhYw2GjmMZVjJmRTSzIppZEc2syEQY1uGbFVHMCowsTjPXXJ0IlgGOtDjiOqoWmhXHqHTT41C6M9F44zIrBE4zKItqUgQBVA98ohlGGHxPNaLDQduPC2JkTAsHx05kTTuZQa3PkcLPXSENFTCIdmROtRFjGqjCz3iMZV7IkgaZEcGQzN/cftFW6f/dJumjmXz6Cml+5RypvWqFlM2dKQVox10eBegaC9JmSMH8FClcDJCNFKPM5pIG9KbFqzxWgzWZUhIG/+N0QCmy7dK8NCnNSZXShSlSkjlDSlKmSQn2QYpB0TT8ftoCqdh6itT/9UZpgQnu/eV90lf8qAxVP26Madibvxo15jM+0+K6Pq2AQ8feF+TAb+6XvhtWS9MSmNaSVJN9aWZFjgXD0syKTJZh0aweRjuuAxwKcqL9qHsmFifXaVZLwAkQ9wY03ESblWpSBIFTTYpoJmHB/1WTmSzcfSN7enNRiuzAwbxzy6lS/n/3SkdTZEg1iMxpgAY1FrFMi9mSyYyekIGCR6Qfmcw+ZGdtz62X6ivzpXhBiuxBO+3OmOFNyKM9YCikENmcPSHikvA1WWgP9SJSfB598ShRLhwlq+ZKOVmZLuV5AOZWhjKXolcsO2ORVG06Weo/fql0/M890lO4VQaZEbZhyMesiUPjeIaFv0eJNSsL1yXt3llRDmVhmJ3rs6UemW4tMq8jaViaUZFkzIpoZkUO37AUs1qUJlvRTqeCfMBHyswBR9VizSoXJGJWqlERBEwzKpKUUUHoAWMKg++ohhLijXGgbceAbGQHDrodMIVdL26Qyj0PSy8OsOEaGAwzHZpULMJGZYExkcEqDKfexNDqWzdLO4Y1nDjejbZ4c8502YWDbDeynj3Y7x6YkY211i5EMytyxA3Lv1hUuXAU9ahYnWWuvaqYO0vKUdeyGdOk7La1Uv/Fa2XvHx6Ufl5iwTkrY2AJGhaxpmWxWdd/3CzdG5ZII43LybiSMSzNqIhmVkQzKzIRhnX4ZkVim9UKcNSalTkTCMZtVgiWZlIkKaMimkFZ8H/VTDw0Axo3NCgMe95gJnXrcVK2Y7Psw9BlGEZjDEpDMytCc6Kx1cGgSjGE+797pPuvLpK683LNsG1H6gxT790rM4Px02LtobUN0cyKJGNYiZsVUcyKxDOsKOZKJUysEutVYjhSgZiUI/6V206Txm/dJvswlBzkmVJmTszCkjEsfN/QC+Nqe1r2/+PV0nXKImlYiKEiMr9EzYpoZkU0syKTZVZkog0rbFY84cYTb0fVEjars9Fgv4Bo3xKzCpuTC/6vGZRFNZzxAAG/ASG/cXm+FP78PjPEG6TRcLJaM6hYVMOY6jCcK31U+n9yl+x9xzlSjVjthDG9yXkuDCPDcdHiN6mGFTYqgn1GmRXB54dvViSJW3NoYPhfVdpMqcyaJZW3Ivv695uku+xRGTJmBPNJxrB843pB9vOM7AcukM7jM6U+e47U5WeM27A0oyKaWZEjb1iaUZGgWT0KDzgNTJmVCwKVlFnhf5pBWVTT8dieCCsyZDuGedtPmC9vfmSjVMNo+hthUjCofhjP2GzzDAqmRpPa/qD0fOYKaVyfbeaYtiNDe3M1jAr7Mmgx8dBimKxhaUZliTIsckQNK9bTGhSzcjBXtSOGVci4qqYJhpAwsGfOlJZf3o+2espcuW+MKFHDIh1YZ+glOfjze6VvY540LU6V2jzPtFCmRM2KaGZFNLMiR9asiGZW5G1sViTqoEGQ1IMMaAfkRJqVZlAW1ZhcIPzti+bI61eukD0/uENaOVFO0wkYURwwxOunOVXC3F69V7redbZUL8uQN2ZOlzdQzzc5/4b9qHUNx8RBi2Msw9Lah2hGRRIyK4J9RpkVwecTYVjRZhXfsPzbcFxgXtWLUqVqLrKum9ZIw3cxZKx7UkZgQvtpRokYFuH/OL/VgHVfWC/t0Fx9TrrUo16Ha1iaUZEosyLYn2ZWRDMrcviG9cdmVgRBUg8yEHVAIkjqARw2KQv+pxkV0UyKqOZkyJTX8+bK62icP0DgRUVbpQdZ1BCGFv3lCQKj4lxU/28ekK5nz5RKxO4Pc2bI9tWZ0WVHPJM1LC2GR//8lWJURDUrohmWblSWKLPileyWtTAuZEVVaIuKC5ZK/XdulR6aD7Mna0jxDIvw/3thdP0vyYF/vFq6j58vjdkpMCi+hXt8ZkU0syITYViHb1bkbWBWFLZ2EGgHzKRmV/hcMyqiGRVRjQpZz+s5afL6ttOktGCr7OPFlImaFIZ6/Zwo3/GQ9HzsUqlbmyU7MBzZvmreofJoZUc8Jzu7Ilo7kbBRkcMyK4LPEzYs1ajIBGVXrmFZ1syTGmTM1VmzpOrhU6QFnQpv9t5P4xrLsCydz8noAEzry9dJz6kLpXERTAvtOZGGNRFmRQ7fsN7GZkWiDhgESD3AgHYwHtHsisO9pWArTKp8m/TxkgHNpPhZGGZRZTAqDDHarl8lBTCo11DfN3BQaGWZVMMKx9xBayMSNirLETMrEsOskp27StisCPZrrmRfkyk1s6dJNbLe2k9fKXsxbB/mbTx2jise/A6HlJzX+vqNso+mhc6Ow0PNqIhmVEQzK5KMYWlGRabMChWwwtYOAu2AOeoMC8OC7QvmyOvXY7i36yHZx3vhaEBjGRQ/5zCv4BHp5VXpqNuOGdPk9dUwKWf7WjmOWbMiYbMi2G+UWRF8fnhmRSYxuyLYt3/7DbZbw3sJofOqR06Vtje3yCCNyA4TY9H+jOwnnRwevigHPn2VdCGrrl8SmdM6kmZFNLMih2dWGTIMs+KlC29LsyLaQXNUGBYyqTcWpMj2S/Jkz6uRyw8SMylkUFUwqTdgbO8+T6rmw+hyUmX7amfbDloZjhWzIhNvVkQxKxJlVEfYrBxqVyHLSp0uNVetkMb/vVf6kUHFMy1jVhY+HYIXmj57pnTmpksDDHDCDQtx1IyKaEZFosyKYFuJGdbbyKyIdiAQ7cB5Kw1rR066bF+bKTu/dK00NT8tQ5xrck1KMyp+xos3X98s3U+fIeWzp8trzMogeM2kiLpvrawEMZ0QsyJavD209iFuOxaiPIXL0qVwcaoUZqVI4SL8xN9F+WB5uhTj9+IlaVIEszfgdz4aeXLMiiRnWBNhVsRcxQ6d1GJYX33+Umn4yV3Si+zJn5C3wKD87MpCAxt8WQ6gcxu+Il9a50fmsybMrAhiqZkVSdisCLb1R2dWRDsQiHbgTJhhoTyqARD83zcKmMsOHIBvPHSKlJUhO+L9dZpREdekmEnt2CI97zhbqmbBpDi/he1pBkUC5hRGKyPLj/+pdSNaLDy02CVtVkthTDClgtw0KVyfLaV3rJXKD1woDXzqws6HpZcXu/KWn5rHI8/Qqn5MhvhEhZKt5nKM7s9dKa2Pny51lywzF2mWLk6R4uxUk3FFbnIOoxgViTIpy1toVhZmWrOmSfXGPGl89X7p74yYkmtaAbMyIBtrR5YF0zr4tRul57gsacTQ8K0yKzJlViHUAwJoB0/ShkUQPP2gDpmAyxKY1IkLZNeP75S2pqeDF3OGjYrQqGhSxY9K74c3Ss1iDPewjaQzKYtWJsIy4/9qfYhWf4eouGkxdjBtgQOvANlRAUxlzxnZUsznrm9/SHr3ImPAQTbSDHj1dsOTMghTH9j1sDnD2feHzdL7hwell4+T2bVF+koelYH6x2UQ2elw69ORjKPnBRnlZR7/70bpuHKFVCPrKsW+SqCXMQ0ryqQsb81QkAQMi3ASHsdBza3HScsbD8kgL2OwE/FRZmUNC/CRzi34++FTpC07BUPDuapZEc2sSDKGpRkVSdysyNvIrGK9K5CEjcqiHUATalgE5fPNANnUm/PnyI7rV0kpz/B5j1DxjUozK2Zb/PwbN0srDO7NuTNl+2rn8oNkcc3JheXE/9U6WLS6e2jxiptV4f8FS9PMI5ILnzpDavfAcHig8fErfMQMDr6+r9wgHfzfKYvMY114df2elOlSMG+OFPIxMqAoa44Upc+UQgyPeN9iAYaCxbetkapPXCqtv7xPevlgP5oX5254EH/hGunYkC2VMMeSvHToJvPYNSvg33KDute8+2zphKZGeBlDzOzKgUNDZllYn1nWlFlN8BLPrDjpqpkV0cyKaAdSPMMi2sFqQCDVg5zkwqjwnZ1fvFYaG5+SYRiQueWlfNshwoYF4Q28tkn23XWClPAiTvcaqWTQzMkFMZzQjMqixRZ12IPh7x5st/Djl0oTn3/FbIhPAGW29KfIrDhHlTIN25grBcgebBsmPMGOdUrW4OeCWVI8d4YU3Qzz+t7t0s1HsfC6JRzM+39+n/RcnS9V+E4JYnCsmhWxt9vULZgttSfOl/pv3yI9NH6ePRzLsPhkUzuXlZMqjdjWRJsVSdisCLYV37DeJmZFXJNy0cyKRB1QFgROPQg9tAPXgIAGDnYM2d48dbEUvP4gDphDt8j4uIZFKpFNcej3j1dLUypMalmGbkLxCBuSBmKXVDaFmJify+fKrqUZsotPGV2UKrsWzJFdmQBZzq6FKZHPUebdGF4whsagCPa5B9/ds3mdVBc8In0wDj5Hfeind0vXxcvMc6SMQeG74bYLmJQlbFQE+wtMrJO1MC9kZMXMpD53pbTxKah8jjqGifs/ulHac1OlHFlexKQ8s+I7B2Ga5Wi7skWzpWz+LCnLAvNnS/kCfD+br/LiM7AyIo+PgdFoRkWOiFlZ1mRK3fRpUnPPSdKKofFQF4y5I45Z0dDMGUMMDZ9fL500LGdYqBkVmQizIn/0ZkXCYnfRDIuohkUQQM2siH8ga+Dg3JmdLm/eslZKaD4c9vEsXtisXMPizcXbN0vPPSdK6bRp8gYOXNVoxgvilZBJod7GqGA8O2FEbyIb2nVGthRehyHsU2dK1Ycvlvp/vlaav3OLtP/P3dL56r2y93/vkc7v3SYdfDzyJy6ThhfPktpb10jF2TlSjIPbPIDv45dJEw2KT+Lkc7aePkOqs1IQS5gU9qm1F3Hb1idsVARljjIrgs9L12RJ6RyY1lk5UvGjO2RfKwyLB/Ov75fe83OlKnW6lJw0XyquypeaJ06Thg9dLK1fulY6v3+HdPMRyb9/UHp/94D0/u+90vOtW6T7766SjvdeIC2bTpKG83KldlUWMrUUqYBhVyzPeGvMimD7dTkpUndCptSjPXqZSfpZlmNUrmGR0Vfk4GeulH3ojJrQ2UyZ1WEumln9EiINm5VFEz4JG5VLsoZlCRgVGnsXDs5dL2+QKt4mw1tfaFSWsFnxs+ptMvjdW6UD2ccOZmOom2o4ycBtEDSybkouMCiss3MJDAo/d1+7Ukr//kpp3LVFeiBmvmyBL3Hg89Ij5uqUn7/7oB74SWPmY46HzAsnnjYvZxiuejxiVHwMzZnZUjwDw721WWobWbR2NYSNiiD2Mc3KkpsuJciSijmvhSGoeUgeDlrzKJZ9z5sDl3M+0U//jDxgz4Df+aTQURoeMxM+8XPk5cjz1mHaPY+fLk2nLZIamFcl4lkJIzpiZkVQ5/rVYNZ0qXvlbOlEB2GMOVZ2Rfj7CAzrJ3dKP7LRJsRJMyoyZVYJLGGz4sP3fgnKUBlV0EA7ACyaWRHVsAiCqRmVizEqCHTXe8+Vmtanoo3KYg90/r8MB/+nkI2g538D+9HNZBKBOe7kEO6246Tsv26XDhosJ7o984mCj5kx9YAx8VICZoTEPvbYqR9PIhjwmYH/5zPaf7NJup88Q2qQvRXNn2PirrWR1qZJGZUhU0qxnxJOrCNzqvr6zeYANiaqvhzCMyrPnCJn2GBMDiP8jP+z/3fh0GvwJTlIc37fBdK2DsaFITNfmEqjOiJmRVYju5o9Q2pvXCMte7bIsBkWesbkYg2L9L0oB1/fLINYt9mbeD+ihoXtvL3NimJFhVRhe2gHgiVsVhbVsCwIbJRZca6Gr7L64IVSh15shEbkYg5wB/P88oel74kzpIKPanENZLJBec3rtzDU3I0Dqo5zZXwDTSmMiObp4r0dZhBG1c9J/+/B0P7pWmn560ul8S8ulPp3nyd17z1f6j+8URr/4Wpp+fYt0vG7+2VfCYa/1dima1rWuPiTpkj4pprTF0vxohTZg2GIfUa71o6GsFER1CfKpJBdlPAV9YvnSOlzZ0hD0SPS3wmzaYBR8USHh29YPHMIsxpFuQd/cZ/0/NuN5iUXHR/aKK1/hiHfBy6U1o9dIu3/eLV0wtS7MWTvh6mP8LIB99IBC42MBsAzb/99p/RsXC71qCNfilq9+giYFUEs62HSdYhvwy/vkwFmgmHDcs2K9LwoB0q3ytBJC6QlRoY1ZVZjLHHNyoKKqQIHYZNy0czKRTUsggAbo1rqGdUnL5V69s7MNHhQEs2w+EYZzk/xNVjIqN5E7x8YShLXXA6HwDYBJ8iRSe3ceqpUwYx4wA2VKAbFn/9zt3T96TlSf9ZiKUTced/hm5xYh6nsptGhB95j4fPXMYTcg0xtD+rE57Pvevw0qaEBIssYNGBf1rAIfzfDRRgHTHDv9aulEtsvQvkKeZEoyluE/fjt6La1C/5nDGpFhpTAEIpzsI1TF0k5DLSVL7dg58FsikZlwP741poWGtWTMsIh4Ndvkr2cWEe5ixfOljL+joOjHMYSYV7kmezL8RNZR3lG5LnspcvmSsWWU6SRZ+JgvsOBa568bMw+GeFbN8m+MxabF0NEZVjQsmZURDMqMqZZWdBe9XNnSd33b5f+jufkgGtYYbMivSjr7kdk6JRFqmFNmdUYS0Jm5YjXNSqXsFGF0czKohoW0vs9vG4IPW8dDzpkE+6QKIqax2To9Qdl3/WrpDh9hm5UkwWHfGdlS8E3b5E2mOpwOJOiye56SPo+eJHU4eDckzbDPNaYlyIEsshwDMIgHgUnZEnhJ5B9MWNDVjaEjKT1hfVS8+v7pcebwwrEhfHiGVOY5zCf/f5n50vDlSuk4sT5UgoDKkqdKYW8rip91iHS8HfmLClaDZO6IFcqHzlF6v7tJungtpjZYHtBkwIc/nH/n7xM2pAZNvNiU54d/M0D0rtxmdRkzIi8+YZG5TPGZQtrsqSSk+tZs6V808nS8OsHpJ+mhQPfHT6O8pX02P/oXSdI8/zZUpWPLOtImBVBuzXMni5137hF+vyJd8egAuD/fFbW9odkCMdTC8x5yqySWKLMCoX/FRqnHJWMMiuCSmpmZdGMykUzKxdzUGL/e7JTZfctyAi6npdRDpesUbn4RoUs4rUHMSTIk6KMmch0Dr14QTWXiYTZ1MV5UsyhXCPK4ZoUM6lCDJOQiTTwewuRPSFTSsqgPEx8kDnsOXmhFP79VdJsHhiIfcC4mpHx8P2Ae3im8Md3SRevtWJm5RqWhY9IacAwCxnKSDcOHg7TuJ3dW6R/FyjGMJOms+8FGWXsjQnBjGh2hCZlYSfC7RRvlYEPXSTNy9PN5RLFd58gdTuxLWZWMK0+mGNtatis+LtmVOTQZQo+MHk+5LDsjuOl8c0tGHpFDCCQZfEG4w9cJG00K2Rw8YyKJGxUBOVSzQo0oB0bkGHVf/VGcz3WfmtaYfg5oWH96j4ZRCfXlJsxZVaJLjHNCpXhGR/VsAj+r5mVRTMql7BJ+WCfBcuQVd28Rsp5oHE4RbMizFDcA4/woOTtJFfkS/G8oFElimpCY2CyIl4LtT5bin9zv3Tz1hQ7Wc6Dn1fU/+Je6b5mhZSmTpedrklhXc2QNPy4YNhWAMPbc1aOFP/nLdLOoRbftvzOs6UB2ZF5dyDarjBjuuxB1lb05xdII9/CjLgN0XxYHhM//M05L8L/uXBox3haGHuHYWRz5uWkNDjejvOl62XvDaukmheLwjBLUYayzJlmwr0aWVAPzZD7eRBZ0dyZoQtDk78YlPcmVi1ONfNTVV+9QbphAMakrGHtpWHBYJ8/S1ppVvieZlJEMyqSrFERcwMzjomGrDlS/53bpI/3DNK0YpkVM6z975SD6HT25aVJc97cKbNKZIlrVhZUWDUsgv9rZuWimZVLwKyWpkvBKQulBD0zH0vrG5WLNS38PlTwsPRuWScVc6abrCWRs4sTAi/UxJBszxeulRYaBw3KmhXL97/3SNfly6WEmR6NCnXTzCgWgZhYsK3d950o1bzGjAb0Mwzrrsw3b2Lm3JYfU/6eP1eKYN4FMFRey1Xx8Uuk+YfIunjfHw2E65uhHH4yQ0KmZuAwtunpyE9eIoGf5gwmzKf3y9dL59NnSP3aeVI6a5oU5aYZgwrcXpOL7AoaKvvHa6SdZwD3Irv6CtZDm1bkpDiGdZhXrmP/FV+4RrpoUDj4zcsfCIeEzATPyzXZTjW+O5lmZZ+0YIAuGjCErkO7DKJcB/gMLM2sLEMvy8F3nC2dMNYmtNeUWY2xJGRWFlRcNSwLvqOZlcU1KJVlaZGnA/znzcgc+BJRxagsdbwRF8bwnvPMYz52cjIa24gLyq8aT7KgrrwgcxeGO+VFj0gfy2ONir/TEJ44XaqnT0usXB6qQREYQsHc2bL7ojwp/b97pQsmY4aA7ztfGjG84rpuHKNij/WLlsO8+MgXNLi55w+xLr5oqZTddpxUbjpZqh9aJzUPnSy1m0+SmnuPl6prVkrFyQvMiQqeBODwumQpzAnbMyAO6k3LyGzLUmZIybWrpBZD875OmAeysdHnzpSmBbPxHU6wjyOrAu41VVWL06Ry3UKp/tnd0sfhJjMra1i8PutzV8re4zKlFp3fETMrZH4Ni1KkYUO2NL3+kHe1exyzorG2PiP7Ny6TNsSWxpSoURHNqMgfkVllyK8BxRNlVhYEgKe1VcMi+E7UARPCPbgMPL2OBit8br3U8iyTvTFZg/9jZvUv10krD2KUJXzgTyqc/OdE+V9dLPUsKzOPCgID4TVSfLvymYulgPNuELC6DaAaUxgO/3AAFJyfK6XfvU32MuNhZvT3V2OoM9c8YWHMyxIs4XYy7ZgpxTDUYgwdI/cAej95iQLWCVz8GUXIqCwwk7KU6VL61OnSCFM1T+REBjfy6GnSiPYq45k/lHncZkVQvipotvzPL0QGh23bOSzS84IcQMY9cM4SaZg/Oyq70kzKclhmRdAxNMyZIQ2bTpI2tNOIa1hhsyI8m/m7B2RwcYo007CwjUTMSjMpEmVUBNt6e5sVKmkEiUpFmZULvhM4AFzwf/WgCWHMigfd2UuktHCrDHA4YuZPAMzJ4psVryPCMGtf5mzZA+GrBznQDGJCWJImu09aKIVfgFnyQkdrVjRQ/v7pK6QZZeMtL+56WhljQgPKg4FnzZKCu0+UKl6SweFNJbb/mSukBSIrxJCLRqXFNIDWNoRth/+r7UqsBlRCBuUC/ZjLEqCp0i2nSAOvsWpDBkEj+bsrpQPf4aUU5QHDijYnl4BREaxbhQyuEqbQVLxVhpil2LkrvlYLcRq6eY00osMIT7RrJkWSNSoSZVagEYbVOF2k4WOXSFfL07LfGpZmVrxGa/gdcvD9F0g356/c4SDirBkV0YyK/HGblQsqqIqa4P/qAWHBd9QDicCoinjVNTMlXkdjjcrFmhYnegsekf6tp5h7z3ZziIRtjBfXTBKGZnUizepaafHMyr8wk0PBT18uLVlzzFlNbZ/xMFkSjZtGzGzqqzdKB28U5iQ3h5fPnim1zLQ4J4Xvx0VrBwvbC99R25K47R6FYlAWGpWFhpWGDOvCXAzX0Ll4c0v7y2FeGCY3Icsqx0FSjkxMMyhLlFERY1bTfbMadM2Kw8KyR2UYZtVEs0KsjkhW5WFuWkacGmdOl/qf3xuZv4pnVrwtCUP7UQwf25ZlTJlVrCXKrPIz5DexzMqCiqoCJ/h/3CEiwffcA6oIw5miu5A98IDnpLo5G+UYlYXXFtGwYBJtKO8uDFkCQ0mgGcCEw7OVOMAKPnCh1PNpA65ZIfUf/M5t0nl2jhThQFHXdzDmBMM1WdRCmBAyxaLN66T65/dJFzNIvrq+9FEZ+CyyKQ7XeE0UfgZMKUw43i5sG3xHbTti2zgmikFZXKNywf8qZk6T0q2nSuPuh02WxYnwA2znT1wq7Riu1cybLRWLUyNPW3DMSzUqsmaeVEMDFe+/UDrYYfDAt2bVh4Ofl2FsiB4GaiZFVKMiiIlmVEQzKmLMitkV2qrhwXXSBm2Y53+FjYrYz0eRXUHXvbk8O+gZFuKdjFGRP0qzqkRDlaGiumA9UGFV8BZ8Z0zjYlaFTKX4326Sdl5w6J4697FmhazqtQel96oV5oJG7dEn8dDMYlwgNgXIBAvuOF4qMGztYxlpVqQavxdslf5n15unTu7CUI1zVwWLUV6WmffszZ0pBRjC7MnE76ctlmJepPnKOdKAoW13NYYvHO5xm3xq519eKE2MIYTPiXbVnCxafC3cBr6jtpOD2s4+IXNycc0pCpjVqiypQMzKMfwrw7C24ad3Sw9NiwcrMyEO2/7pGtl774nSxCcuLIdZpc2UilQM9fjGZd7ADDPn8JE3MldlzJKq07Ollq9+5yUSHGJas9qPA/9jG2Xv6nlSC33ZYaBmUpaJMipizIqgU2mEBuq/dpP0MbPSDIufEV5A2/CUjF6VL200K8RbMyqimRRRjYqgLH8EZuWiidcBldfE74PvqMYF4RXxESNoqCG+KovDnYBRefBzXiP0aWQYKCtP1fMA1UxpogmblcmG0AMWoHcvRsbTzEl2m1l52dUQH3/y2Sul+fPXSAuMuO3rN0v7N2+Rjv+6QzpfvU/28WJRDu9qn4pcPsDfefX5bx6Qno9cKk0XLJUyGBv3EzeTCsczDGOO76lt4mLbUSWshRABYwqjnPmDiVRwCIiflc+vl+b/hnHxMgnO7dC4OOfEn7wqHXHiPYV9P7pDer5/u3Qja+3+xk3S9beXSSeMqp/fgUEFhoBVML5zI5cuMAs74lmVhdkVhvMNfEwysuNhDlVjmRXhI2X+/mrpWZpqrr3SjIpoRkVUoyIoyx+ZWVk0MYdAINQDwoLvGPPKzZBi9LbFX7xWmpFV8QppY0ou1qx4QL+J1H59tpTkpCY0sawZz2FDo+KcEjMkXnz5zJlSW4xhGjM/a1aOaZnLK4qQafEWnGJQsk36+cjhX90n3d+6VfZ+5gppQxZWf3m+lGfBnDBcKsjD9g/HoAjji++q8Xexbaaitb9DwJQ0Yl2iQJzhHkylAvorX7dQqrask8aPbpSOb98i+379gPRxPgpGzlt6RpoAs07+NOaEzIzZmTUqZlc0hH+7UbovWWYuRK32Jtg1k7JMlFGRgFlZZs+Qxv+4OfIcLJpSLLPah+yK91QuTZOWJamqURHNqMj4jOoYN6vfovBVFBsaTRWpjybwEAiMepAQDJFoVqUc7jTzUbzeRHIYM3cDvnS9tPO+Nc7rYP3DRTWjeHAoB0Mp2Ha61P7yftlnnisFk2XZeWEl59N4RtDCDItXen/sEmnGAcnrlXYj4LzOifcHcnjISzZMeeKZr2ZGGoj3xJgU0drbwTckjXgmRTyTCmPmq+ZJVf5cqYI2KufNlsoZ04yRVUwD+Fl29wnSvHOLDLpvoLFmRaPqf1H2c86KLyTlgf+PV0vXmYulPmu21CzPkFrs53CMimgmRVSjYnaFtm+853hph+maMmpGRZhZsuwvbpC9+TAsaCNRoyJ/3GZlQQOqgvXRxK6AIAUOmNxUKT5viVTyudXIntz7z4bsGTDCSXf2sE+cIbWzpkshrw0KH6jYnnqgTwS8RABZVPHHLpVmGmfb05EefudD0vfhi6UZWRCfSlD0z9dKGzLEEZqUe2sQL8XAMHHg/RdK05J0KVrMzPAwMycL4pqQOVnCbRKF1r4Ori5UNHOyhMxJIWoincxPkcrbj5MGdGqDGOYdsCZFOM/JoR86s+GLlkoDDK7q4XXSgqG2ubEY2cqB/Rhe8RVb16ySpoVzzJuZaVqqURGUVTMpopkUUY3Ko2nZXPPgvcZfb4pcYhHLrAivav/hHdK3JEValmUkbFaqURHsP75Rvd3MygWNqYrYRzsAFNDLleQhq/rUZdKChhuFQflmFYYXQv5uk/TxTStYTz1o44EGUk0hHsx0zDv35kjRI6dKLc/K8awTTeond0r3davQ88+MXHHPIRuHbjShB06W6t0Y5vFCRWNazLYArw+j6f72Aem5aY15RyENSy1vPBC7YpRtYg3KorWng6YHn3FmUw4Bg2KGhcyzcim0iIya9wGaZ5+7JsULQQHfsNOFbKwWRlSN9WqQodXMni7VJ8yX+r+7SrrQbqPsEAdelgP/eZv0oL3qF6XqhoWyaiZFNJOyaCZlaUI7NyFDbPz7q6SnDWXugmFpRmUyK2SGVdtkJCddWpcgu0K7jNussO9ooyJvG7OaJ79Fo1WjUhSYLkwPfE8VdQDtoADoafikybJfYDhFMdGsLK5R8VlGnLPgc5FQRs4TuQehP/QJH9TjBdst4vZwoBSdkCWl37hZ2nGgmMef7MBw9YETpQbl4AR/wASxbmS9NClCllXMG4wrHjUGZa44t7AunL961znSwNdgaVmixdYtWXMiWE+NexRam4XQ2j5A2JjC6OZkCZgUoVHxDCCybg63zdMbrEkRmJa58JPPutqQI/XoJGqca6n8CXWeDcyYKTUwp7rv3m7mjA7wpaTQ2Midx5tHtNSic07EqIhmUkQzKIt5ogLNas50aXjiNOmo5eOQ45gVOfgncnDdImnPDWZWmkkR1agI9v1HZFaHxMaeUxeqB9ZRhR7AOUiWI6u6MFeq+CiRlsh8lQqHUBhKDf3FBdI0TcxwTD04XbD9cZsY1+E9dCcukNKf3StdPNPHM5XfuU26+DqqebPMvXbquhZugzcQo2cvxUHCW2RG7EWthPXiXJYxrBkY1iJb5DrjMSUXbCNoRPHQ2sdBa+MoXI1o6ObkohpVBozq8uVSx+dX8eBlFmWNipcpIFMdRgbbsgCZFDJa7WZld16qFmWpTUWm9d4LpKMRHSNvcWlHhoNttLqGhe9pJkU0k7JoJkXso18MfBTMifOluegRGab5xjIqY1bvlIPPrpe9GHm0woQnNqsibxezQkV/h4YLmpXLGKZFsL56AFjQAGV89tGdx0k1Ul4zOc0MhITNCp+NlG+TwSdPl7rUaeY+NvVATQbU0TezMMioio9DRvWVG6S983kZ5eT5f94qXciWeBYwqTNxzLDws/TzV0sbnwvFM4bWsDi05YmFe0+QGmRYRYmYcBjsRzeiWITaQUNrzyg0XbjoxuQSZVIWDL2r8jKk+us3Sw8PYhqUNSse5LyUAUPwxkUwKpQ3bFJRRmVBueqQ3dS893zpYOeBIeFBXvZw+mJpRgdUC5PUTIpoBmXRTMoSMCvotgnHWMPvH5RhXlMVz6z4kokvXis9PCuIWExuVnWsmxVTalRMF6JLAhkXgVgCBwR6srJl4HEYEE83W6MKQ7Oike18WPpvP06q5s8xB2nUQYjPog7k8cDH96I3K+aTMXmAcI6Kr5W6coVUzp+VvFFiGFLCebZ1C6QMhtfJq91pVPZqfBrW126UTuyTbzP2bx7WCNc5YUKxj4fWdgE0DYTRzclFNSmCzJU3J1e+eJa0Ik7mqnS2gzc/RcPaf+lyaZ49w3w/IZNyqONwENuv/gKMgBPdvK7pv++S3pPmSwOG73UxDEszKaIZlCVgVMSa1fduk0FrSrHMipnfz+6RgYUp0gLz1kzKkpxREc2s5h3rZuUKTBNlmCSMi2bFF2S+fLbUs7fUjMrCYeDvHpC+S/KkIjtlfActyqcagAuNIgdZ1fFZUvb1m6STr4Dimb+/udzc2sNJdHW9seB2MQQpumal1DBLgwH7147xuVHMrh5gdoWscSWfDaWUPylCBhQPrX2i0Npaw9VLbKIMyrLKewzxjGlS+ZXrpafvBTnAV3Mxo+LZP+jkwL/fJN2nLpZaGEsyT1IgdphXlzZDau47QZpLtsoQ35YDjY3evMZMZk+aURHPrBr/5brIWUp33so1KsLLL3jmc3GqtOZiKIh21VCNimB/iRsVmScjMKtHUb63gVmF0cQaJo558e28MKvyd58nTZyD8IZ7Osg+fnWf9J69RCoxRIscaNpBepigzKXzkQVhWFBR+LAR1Cjf3PLwyRg+HMbwk2aFYUYJyl/Fp2dy6OGe5eQlGc+sN0IuXjUeswoZUCJobRKF1qYamj6CqObkYo0KnUX1GYuk9v/ukT5ecmCHf941VKNPnyFtMJXwZLpmTi7+BDpZkh55y/JP75F+Dsc4mf3smeYWlzpsd1KMimCfzWjjxr+7Qnp5Qzczu1hm1feiHIBZDS9Pk7Y4mVVyRkU0oyLHolnNEjkLDfp7NBpP61oxaQI8xDyDLmQXntr2zMua1XtoVhAlDGmEF1i6c1eEWRUP6F/CrNYvkQqIWT34AmgHdAKgjKUcZp6ZLVV8EidfL1WA4Sd64Vr0xuPOerjdLJjVhsVSiYNwX6tjVqgj5+OGXt5ghBzfrLS6jg0z2WgjioXWbtHoOogmYEhhUC7/pQ6Er9FCJlF13hKp+8X9ESOhURFzZToO4s2cVJ+d0L1+JGBSljwAw6v74Z3SxzOKB98jB186SzqWwqiWHzIrzaSIZlAuqlGBZmtWn7lCepApmgfvaUZFeEHrG3ypRLq0xzCriTSqTvC2MSsXTZTR6CL3gSgqluHgeNc5MCs0DM0qChzI1rB+e7/0XbjUXHdTtgLroYzagXlYoNxlCzDMPGmBVPxuk/TAREcrtsngKxukcZqYM4C6iYwB6luaPlOKL1om1btgfhj6+Zdp8LaRPQ/L4LbTpGG6SAn2oZYtEVTzGQsamdI+Klo762i68XENKgw0UY2Ds/oHt0sfswtrVhwG7sUw8IMXSceqeVKD72nmZFFNiqAefMdg3QVLpfG3D8ggr2nCUPDAw6cgg2FmpRuURTMni2ZQFvMEBWtWn79GemFS5vIFzajw+YF+DE+ZWS1JlTZlGKgaFcF+xmNUx65ZoRKvmYZVhBZCE6pOSPjYfgV6uIpnzpAGP7MKm5UHn+O94yHpv36VVPG9c6u0g84D21UP5ETBgWJM60MXSisF0/KMjHz7VulamGIuYlXXGQuul50mpc+fJc28lcIaFeHLF35+n/RcnS9VWTOlRFtfQ6t7woTaIiZaO8ZG00cAzZxcUK8aGhF0WPmJSyPPVnevVOec1e8flP5zcqUhc7aZpkjaqDCUr0enUPvOs6Wj/ikZ5QR7AYbh5y6RpsUp5uWlmkkRzaAsmkFZ/GdTWbP6+s2Rl6IyU4xlVjxTyaeHLkqV1lBmpZoUwT6SMyrydjErV0j4TBVgCE3EKghuRV6GVGw6Sep4xo0HLc0qjGdWoyUYKqH3q02fLqUoj34QJgHqp5sAyIYxXZonNXxzDCdCeY3Xn5xthMbsSl0vHjgISu84Tup4gSjr6Q9x8TsN60MXSZvJqpx1tDKPC8ZqrCvLXZS2ioOmgShcHcUCdTbzT/i9BkPuqrv4uq2HZJAnOUxmhWEg4W0z6Eg6c9LMC01dw1INyoK61aPtzFuUYRr1yJwHmVFxvuqFDdKZmyH16Dw1kyKaQVk0g7L4RkU8s2r41f0yxOFnLKMiIzCrb9ws/TlBs1JNimD7ulERzaTIIaN6e5mVC/6vilJBE7gPUvnKK1ZKbcmjMgRB8hXjqmHRzKpxUL/jHGmePk3KVkcOqkNoB+k4MUNMwLmxO0+QenOLByhFGR85RerTpgdNJS7YDoet2A7rOMD7CWlOdmjLN+J891bpPn2RVOak6OVJChuPsAGNhdI2cdDaOYqwZmKBOLkT5RHDimRXVe86R9oRJ/PQOmtW7ci2+G5A3py8HBpdNMcYlmpQBPUzc1A0Kny3jpco/O/dMsAMlw+7+95t0nt8ljSigzIve8B3EzUpohmUJWBUBOXlo66bdm2RYT4ZNJZRkYN8zPGF5jVdrVhvso3qmDarP6Ch6zVxhcF3VbHGICD8ZenmxZXVvIWFQqRZubhmxfmrf7hKOlHGstVZygHnMgEmxhMAuWlS/sip0sh35HFIwuujPoDh4byZUsr/xxqO8vNsDFcXwYA+eLG08owWs0N3aMv7w/jwudMWSVXmLOVNxWMxHlNyCbXFGGhtqRLWRyygryiTcuGcaSaM6OOXyV5zjZVnWJxoJ5xrwjBp4MJc87wofj+mUTGTmjNDaq9eIc28HIAvkzjwTjn4X7dL7xoY1eI0dfinmZOLZlCWKKNaiaxqAYzq5tXSwfv+ojIrx6g4N3fw3XLwyuXm+ru4WRW2rZsU0UzK8nYzK+CLRxOcBtZVRaxBs1qcKpX/cbOZn9gfNisLDQuCHfnl/dKHMpZCWPoBmCjWzMKEDIGvjMpFZnTjKqnlM9+7ISIOSZDG91623FwXVcrsyZoWfzIjmz9byp87Uxr5kgRmZTQna7w0LV4Y+vWbpBvxKud79HzT08qklT9ZdAMaC7XNNMIaiIWrpzjYYZ25RQZDwup3nysdyEhHePaMRgXTonHt50FN4/naDbLvlAXSwKEh1qNR+SaFjsCc+fv8NbKPl6Lw+qUD75ADf3Ku7MXnDUsx/MN3kzEqzZxcoo0KeEPApo9slH3IsM2DBTWjIrxkg//HsLQNdRpfVqUZlCXaqN5eZuWiCTEW2JYqcILesApDwaotp0jT4MtygBPpZv4KhA2L2U3RIzJ4w2qpm58S5wDUDtbDgMYIUZdDNHzWt3n8CwTFg2aE134x88JQrzxlhpQthPFwruu1TdLH74TrwMyAr6V68Szz/rxynhHV9jlutHgkh9pOGlpba2j6iYFvUi6If236TKm+eKl55HM/D2SYjnn5goVPU2BnR1NDW9Uj06qbMU1qz8+Vpq/dKD00OF4KMPqKHOBjYrCtZhoV6pGMSRHNnCyqSVmg9ZaFc6T5v26TARrUPmtUilnxETHomIcwNOU1VqpJEWx3ooyKHLNm9ToK3wCxaKKKQhNpLLDtgOiz06QKvVsNL5TkvJU1qzC8r67+CRn51GXSPl2MiWgHW2JoB3oCQDgVa7Ok8s/OkzbOOXHeg701THb4+3fIvi9eK3v5gEBmTm7Z+XcT6vY5DGNpUDS/NfMjzyRPKkvU6jJ+Au2QCFp7xkLTSQxUk7JgvzSsOt5ozMzpgZOktfBhGe5/CaaFDoEnQCw4yA9gaNf3/26Qnoptpn3Mgb//FTnw4zul/4oV0rJojtTnZUz+/JQFptKCn+apn+dkS2vlY2bOLaZRWbP69JXSsyxN2phdhU2KYJvJGxXRjaoTw9TRY92swuLRxBaFJt5Y8GH+i2FY/3WHdLPxaErEPdgtnLv4zQMygH1UYD17EGkH4sTjGQYNhmaD3rv8egwPv3Sd7MWBMcQnM9BsmQHaOhB+zmdZ8bXr7zxHmt95rrQ+c6Y0b1onTTciS7xgKeIA40VmVp4xy5yl5JMy9TKMn4DpJIrWXvFwNTAGYV0ZUyIwpBp0RtWLUqVmfbbUXbVSmu45UVofP13a33G2dLzrXOn8ywul8w2eKfTMilmVhUNFO8T6xb0y8OwZ5qJKvuGGI4WwQR2uSRHVpAhMxTwtYVWmeWdA099eIT280JjlQ1mjTIpwWMsTCGcslg6alWtQFmxbNyqiGRTRDMoyV/a+Hc3KRROhiiZsC/5fjd6jetup5qUL+3kvGIxp1D3grVnRDPg00RfOkpZZ081LB9SDzMMepOEDd+KAqfDtK9eslAY+BA5GZV5wQFgHCpM3pPIUOTOBwRdl/wDgxY7MyggnWjE8NIb2KoaVn7pcOm9daw4uDi05j+a+lioebp3HBfYzWdkTidIQTLmWz6GiOfGxw+/BMO57t0svhso8O2weljeMLIPwKQR8Yw0nxvn4FMO75CCnD2hMNCqbrTAz+Qqyq5x0acxCJgWdHFGTIjAV+1gXk1WdtVhaf/+gDMUzKsLrvn54hwzkpOpDQGxbNymimRTRDMpCo3obmFUjBMXJyiiRxUATaExc0S9Ni/Skb2yWARzg+3mgx6L1WRn+2b3SQ6NCY6oH3TgIH/hjgnLztVAVfDjcaw9KH3t0Zn4WPtESw5HuBakY8mHoeOoiqT4jW6o35EgNXzOFIUn9/SdJE+fBeILh/7d3JlByVeed/1pLa2tt3WhvtXYhCQOSQAKxWUggkMwiJDACicXsi8GxWYyNQ2ywE69hCeOZseeY7PEcvGVsT+w4J87EwXbsYcALJsYJknrv6n3f1NL8/7fqVV6/+r+qV9XdUndTdc7vtNRL1Xv3fvf3vu+++97jU6jbfi9+/RtXzjND++EB67hvo9Vyvqy40J05VdueM/4+iIrqyzSkxAk+txwHp/KZk+0IV5G/tNtauZyDpVFnQursZz5e64Ud1nIfMqqrVlndxUusZstCq94036rPOs2qNhRb1aQJVv7wZmvAAayfGYknKy62HHjcjh843RqKp5xcUVFOfphVTSywmqcvTEysczuFpHjyhvvAnz+wyVpKIaqyQAmI99eSIkpSHkpSHuNMVn5Sgi8DKoBTKCty8KwPb2/sBr2XoXhZSlJWkEAFgvMj51s9gtUtfeAgwjbLATlSlBY5eCuTWgYaJ3GZDRAe5V+DeK9eZRXTJ8czQGzjYBLi4VozPgtvGrKohZDvpWVW+cmLrZHPDsRR+DgG3nGeCfuvl1vz6cV2lNkWb6MS3J50sH1yRfVXBlQcOEmhfD46Hwel+8+2GBd8YnAOUE48q8d7jh/cYPUbSqxyVqGV8/5Si2bE4w5t5dZJua8JEJ/u67RJVs45KmapPGB4MEP5hxuta32x1aB9vaUJSkx+lJj8SEF5eILywPfqFiGrWl9isV/c5u5hFSoqwozwJ4esF1lVAw7gJ0dS41hWQWRgpkEFtwMD1a2VQXbVxZLKL6sgPKv281usB0FwdNF0O8wLYNVAU2Df5IDOFmR1b6+Za0cgkSaUKcm7A1BavETkr6+ytrIcsj8MqsPzpscf6rlnpVX9/Q3WQWmxTSjrL2y3ppL4Qz6Z3cX/RuxnLqh+iYjq6ySIpXII6Oi+tVb7GiTFORmUxycOo6R/5FxrXDrT3ZbY3a0T++NiC3/jhJQOXjpTYFbxwEZrZHbFzMyTFUvvt++yvp1LLXba1JMvKgIBuLmqL13h7rLghBQmKkLB7l9rTS6rOpmiGuOyehU7xQ7ipGRQUOmQwZoBF/AQFZ84chSdVcMjEM+geSVVUFYokdzXv7zKWrHNzDTk4BsqaIcUmRD8zD3IYB0yna9ebS18CIGXVbkMCyXcF5EJTUcWtJQP3gj8fRQo4KUQXdEke/vy5Vb1k4PWyfkOZiP/esi6r1hulbwsxcsss8Vr9xxR/ZgC9iN+SQxk9d92WSuzZmZSXGv26BZrmjvFKuZPdzJLxhBjLgKunEO2VYU2qLxpvcX+/W7r4/wgRcV2gqwGKu61/n2r3VqlKgx8JSgSlFIQKScPv5z8sPxD1le7f401Vt0fX14RJinCebnv7Lcu3mVhSWKuCu+vJUWUoPwoSXmMV1kF8YIqC2QgK9BJ5Rjc5S9fY63sQE9WQSgqZi/lCMaHNlkdykFmJCmDSg3S4YIZ09piO8LHnfc/GpcrMz4MSHdJCEqTNuzLEQhY/n1UKCOI8QhKoiOff7c1ujkZtM3v7rLeW86wmgkF9h+rQ4QVbI8ckX2VAZchMVtaO8cqv3atdbRjsLrHYR2wrouWWLX/yTIqzkLw5pwcyKyqmFndczbK5vvsWDc+g6Iivcys7rb+XcusHpmqyqyCUgoi5eQRlFMQln9nFFvsZ7yFMfornagS68SOn1Hi1omd3IwqAeQ6MCZlhSzn/6HB2CkqYAbBYMsSFdxJeCRGWVDx70jhOdmuZOXBs4e/ucN6d69wZ8+YCanBlhY1yKPAOTa005EPb7UYz+7xzB+zKsLBwpMFe1ZYJcu5XLMfD2ZZ/KyZhfb2+zdaPSeQmX3+8nbrZiY6AxmWkrWCbcTf9X6f5fdstN00vMekAjuMYDjCR1jNnGRHXWmGPsHvOtDfss8SDOpnSLqCc05/xjt+on2Y9Xz/BuvcvMBdHsP3kvEkGCQoP8ysELPlL11p7VyZzkl6tD2Fdfw4xPjKzdZ11mlWy0l2bP+wSIr4pSRwl8cgI6772l7rppy4PWGi4s8g2RNPbbM2ZFX1iCstKA8lKA8lKA8hKD/jQVb+4FCBJAkGbgSSQY/OKkegl9+2Ib6UgdmKV2J5+IVFOfzoJuveUALRYeCh4VMG6EjAz6EgL1hklW/cYd2ch2FW5YHAPPbSbmspnOjmlqSEiHrvMBZD5Pib8ue2WwuPxiypvnaNtfN9eEZV7Tv6g/d+4jP0DvO+5ecttIq7zrS6T11szcj+Ov7hvdb5c5SVv77DenhB+Vt3W++bd1rP6++z7n9Bu35jr3W8sNPaHjnHGq5aadXFhe4iY94kz2VGBJ8zCHymu3XwE1utkXeZ4AXDeL+ed5da7Qw+mGG2jpsA/thLgVnVxAKrvPNMa+CTbhJZVRJeW3frBmsqnmrViGclpSApUgriE1IYsZVzLIb2qX1hh3UiNpNn/4KSIvw+l2N8/VrrQqnK8k8Liig5+VGC8hBy8tFCxpusgqgACyUY0OlAiVWxACXhZ1H28KgTlFUQLhP4u+utEztyGJ/lP9oHSRnMQwISKJlmR/k4Jw5IzskwQAnPCGLbBp7bYc0oVbjQU79HFmDfjk6fZEd2LLVqPj6da4y4Yv6es9wASWZX/MqlIEWT7ciVy636S1day6/w+17Wh4EywKyV/+fBwIP/D8J94O/ybzjw+Pc8G/tdtPcDyPJYus+Y5DIwJy5CkW1daFXfhwj5jD62xTMXYWAgDlAay/gAKsYkEFX15AlWdcWy+Gp2zvckRYVtZLnJS3POKrHaEsgK7aHk5JEipSABISlcNrV8tsWmFFjdh86x1poH49lvmKhIz4fsxG/vtL4zSyAqyAqfpVFy8qME5aEF5eFERcaqrDYj8F4rQydgZ2WwhKACMBQMKikqD961EY1Y+dWrrI3XdTGL8gvKDx94ycH2rb3WPmeKm6xXosqWFFkomO2gzCv/40utiWegODApLYJAdet+uF1r5lj5lIl2ZNUQpcVT/xvnW8XLe621Pz6x3887EyxENgrJH0XJc3THMqtGu/Fe7/08pY9tkCJyJLaVpWVCZFwu4WTLM5D4nUE4IQN+ZXbXBl691Xp+b7M1LJjqbtnCrKri2tVW98v3WS8lznVUfCAD9p9Pl/HHgYqjMFwZBylUT51olSi/m6sfSM5TuTVKhJnK67db77nzrR6xkE5UUkx+fDIKw7sjQgyDPYZMr/b+s6ylOjGhHpSTB7eXpTHPEG44zZoWThOCGllJkaSoyHiQlVfne6ggCsMflJHBgEwKC6lxBe/e+LNbrJsXfgYl5YfC4lfKjbcWGSZhRQLb6RY6IhNs4loZSsoN9gQ42g9Uohz6xIXWiIzg8ByUUhi08r0ysRCftW6uu4tACyXO9/8vO611+gQ7snel1VIQzC7w/UEX+zrRAB7NuRr8yH3W99391vEZbPOhDVa/Z5XVXb7ManeWWd3u5Va7b63FHt1ijTxR8BqyMgw+LrQ8wX3xZOzfRw5OnvhAydgKSZTvhZw478j7Mv0KJeb2MqtFVkhZqVgJw8UdBpKTFOKz8qIlVsfbEfcg4/YERbjPvJEef3b+IotB6vzbrAVFEiJKR1JSJCmqs62lPIKoEks3ju9bYy2LUPohQz+loiLjUVZBVIBlQkoqDHQmFwRW4+jNeaG0wuIZQj415NvXWQfPNqHkGJStCaQQcoFzbZTQVauslo/vohTEgB6IIZuhUHci+2FJx7/B/mWavE7Cs6Vr8Puf225NCH73vm9BCjx1z0HC/3syYQbE/3Ng8OcU0yWLrQYDuZwT6CWQCss4vK+bZ0rC/wO2H5cWzCq0iplgFUTDOaJ/usm6eHaPn+ftIzNIfqVAuR6M5Q2/siTjwx8uWGR1c3npS2ZZOTmx1FtSZNWTCuLfg+hbuJ9sV2YlflHhM09wQv35He4MbO2CGVYTyKiklPwkJJSJQZIiFNUEs9oPsvR7IFxUrkQF3F5u/4MbrZWlX8qEuhKTHyUnP1pOHimSSjLbjo9JWcH0r0NWMey8ElQ6goEXBSkpPxTWGSVW/dpt1sujkpt4BxBU/A6SQWHh+xxQkK67Uh+doUSVKykC8cDnlGOgcL1Y+dMXWhPLL2RaTiAczB4MXgY1BzMvtuX9xg+ut7r1yJjQB0fCwGdU4Ghc88yF1vyjm+MX8jYDT05+SVEmLNE4AQ9BuYlxSgrtqfYpSbDt/UAAlWjTyrkQ10L0ye9fYE0oxfq4TCCwf0kor7fvtb6v7LY2XjqzdaHVIAvhfvqp9EAmXY3Mru5xlHnfuta6Dt+DUhbvwUWkfkElJHWc1wf+443WfcFii0G+wcl0KSY/EI6SUpAUSRG0Rwwlad3TF1kb45Hbyb4NkhQV4DWNh9ZbK/ZzeEWl5eRHSwqg31vHg6z8He+hJJUOJaioJAcKhcXbz7IkQcef8IQVBgRxjJd07FxuNYUT47cZCQ7MkQSD2U06P3quNUJK/Sy9ELjJwewf3LyYmRJmsGMA8uduLRnnZAhLOH6fg5O/lyjzXCbjh+/FLIrC+uJl1nr63MTKcN92+dt0KCCjqIKYKZfKO95lDW+g/ORFxpQIJcp9RD8l8eTCeT0KvAPfa3jQBmqRjfACcJao/DnLaE7KU07cV7+c3P8x4N1Fzfidv91nnedDUsWQ1FJIKpFNSSkFgWyUlIJISXnMmmx1f7HHujiJzu2jmPxQUB7edt+0zlpRyg8u/ZSY/Cg5+dFy8iMlRRATrWS8yiqIElQUlJzSAgHwThDV/3jAOrsQzE5MCPKgqDw4gI/ea8f4TLiCAjvKO0fifdLiDerhAMFQsWi6VfDRT1sWWPUzF7hJYXcqn2fyOP/DQR2GX2gKt94q8XucbP/OPus6B5kLs5554Y9CzxbZFx6U1qIid5fOSt4i+PPbrY0Zbhf2DQN4gFKirLA/gwavH7+QglBQPZAYMxLK7HvXWxeyywZ8Zg1EzExKykgBwSghKaScCN6HcozhQFD/04PWh21yZyK5fx7B/eN244Dj5qh43V9SVEpMfpSY/Ggx+ZGC8kCMOlGRsSyrX6BjuIrW62glqXQoOUVBDgg/S3jjNAjrz/dYO8/81FNWYUBYPGLz60u7rb0E0liCMmaYBnHWcJEkxbV6jlXtKLO6P7rEml85aF0c3JwcZknDfeIRmBmGB0/N87ox/pzrhzAABl69xbo/g79/aps18/Yy+BuX0by401o5z4Sjd7ayku0dBc5lIXZYotb/7k7r45NZmEF9eZe1f3iLNX3vBuvkgx/c9nM/IR7OZXGfPPh/77YvJ55EG0C+b95hfV+92jpuWm9NZ5RY3WIIihPnFNRKn4TSgThWMlJIOfmBjGMFZnW3vctajtyTWvYFJUU4x8Zyf0epNfOsnxOVEpOfoJQUWk5+pKA8/KIab7IKogSVCSWnqAwaHKUzXQlS9fBmdxHxCZZJUlYJ+HNkWcdfv9X63rPcXZ7jHseE9zoleBLh/b9LplgFJ7DnQmL4XtWGuVZ91jyr3rTAajYn4P/PKLZqbjMzJvf7+DvKbw7+felSq/npIevmvcVZBv4CJdnVK90ZKr+wBrXhMFC9EpkUtsX9m3c+YBZEUaGtjz2+xZpRIlYhk6jmhcT8vdlgaZFVr59rtZTPpvkWOwdsBtjH2AZ8D6U+10bVFE12K915y+gaZPk1UeVEELtKRmFIMfnBe9bzLgho6xjk2U0JMetLJyl+nxL+v7daL0rURuxHAw6yWk5+lJj8aDH5kXLyCErKY6zLiqmqDIYgGBBKTlFRcsoIAsANgp1lVs/SisFDKXkoaXEuh+u1OJ8zFcJyWZoeiGGoQe/JYFigXATB7eTvJv9P6fF2vU8iy4KsBvqQZaH0GOCSj/1rLVYIaaGtWKb53yMKKe3OM3XLAMrqytOLrYaX0zBz7YMkmRlxsnvbIqudm5AYSOlz7Esovt+TsRYG4lWJKAwpJUE92qwe+1p33Wprfuuu+GR/OkkRbyL9i5dbJy+hWTJDSCmIEpMfLSY/FJEUFAnKKQhkdWJMywokOxgNJoMkA/7gy4aUQRIGBmr1mcVW+73rrROD9ASl5JeWogVZ1hvvs74D66we+1yRwyAelVBIPOX/7KXuQnA+bdhlWhT01/da543YX2RylZMgL4qaywgSOAlBFnES/+f3CQK5euokq5o8wSrPX2i1KD9b37zT+jkJzsyWA/P/HLDuXcssxhXjpeiTgHiioOInLf74jICSkSJ+IfFsq+cDG1bj6zf3uhsjumxKycmDP+clUPzdK1daS3GhNZYVCTH5UWLyo8UURArKQ8nJRxsZV7JSoDFlEGVABWo2pAhrCbIsnvK+92xrQiniJqeVpPy4s2cIsB+817pRYtVMmWBVnCDG+0kRjCXmz7DKYmSd16y0+v+937o478W5IH5lqVZ+n3ucWO9LV1rnR8+z5jvPtPp9ayy2q8xqLwNXr7C6WzZY7AMos5/bYW1/t9+637rT+riinXJCuekEdfhu6/vguRgss62W5R4kFcyO0qFiIy0qBjOgZKRwgvLgvc9nT7bYJ7ZZe8398bOUSk4elBRhm3z/eutFKdu0cLo1pi37lJj8aCkFkXLyCEhJ4URFxrKsfomdbUTHqQBICxpaBloEVEBnBSdfN82zuh/fbN0849YAIfnXH/nxpMUzaZzg/sqV1l4K6c2dEs808H5jGmZILJV5BhVUb5lvdR9DmfgK2obC4kQ9V5dzgBEKiJnYsUfi19Z5QnJw0htfuSKdk+bXrHKxUbsQ7c1J7wiCUv2dkWBsRUCJKIxBgiLod2badXecZa0o+XhG05V0SlDEkxRPJvCM5d1nWhvapBGlnxZUkZBSEC2lIFJOHj4ZhZGUlMd4kJXqZBUkaUEnyGCMiAr+UCCcGgin5qbT4yu8uTBSySoIlxHwrM0LyCRwZK2aM3l8SMsPV4Rzno9CXgKBrZ5jtRtPs7odZVZ/7SpruHGtNR4A16+xht0rrP68BRZbV2x1aIfa06a5dqX83IR3GkGpPoyEip0IqBhNR4qkWPIVFljswOnugu9+XjxPCaUTlAeF/83rrGcNRIPsUksqKCSFllIQKSc/EI+Sk58UUZHxKiuFCqKMoJNk0GaJGjA1izCoeGbpT3dbB7MEln1+lLAIpcXLJr54mbXxbBbPSKE89L+3FMEpxr99kaFwPOlQQH6CPw+g+iErVDxERMVfOlLkRLANDsR8HSTd8sbtbs2UzKSCguKclMs077b+y5dZa0nY3FRcQlpOHlpKQaSY/EA4Skx+pKQ8xrKsfo2UtdnXuSoIMqECLRLoRBng2cL1OLyfEUrD2M8OWXcvSpygtBSetBoesmN/c411bkRpOaEgRVrjHdmmuaD6OAtUbGVikJj8QL5uGQIOQrEntlobhOPu3OAklEZQHokYOv7QJmufP9Ua5Zk+JaUgWkpBpJj8QDRKTH6knHy0k/EkK4UKkkyoYIwMOlkOhnRwfQ6lNXeq1Wxfag28fQiPihRSUFIKlpI8Tf2vh6znGpRKBWZVnEhGaaQG+FhCttdQUH2WJSpmoqDicxCJJQixdfj6P66wrhiyZ1fuRRAU4bzUwKN2/EObraN0hjVBeNkLimgpBZFi8gPBKDH5UWIK4kRFxq6sZtobEWSlUIEUBRW4WYNgkIPIYymlNcVqrlhujXy8OCeTKSTv8hU/QWnxewjaAZ5Je36HtSNga6ZNtJpVs/VnJVCSyBX1/icd1e45ouIgKir2UuCE+cJpVj8Fkrp5nbVwgSYvIOcJhihZFOFlUbxQ+9lLrWsVZLPIL6mgiMLQQlJIMfnB2FRiCqLE5CcpKY+xKqtN2Pg3kF21oKGTF1uqYIiICraoqCAfEtiXuoS0ancg0/rZQevhnBYvVQkKKwx3PR4C+dXbrPcDm6yFK67nTHbZlhzgYwzZbkNE9W02qLiSYNDVL50Rn4u6uNSav3Wd9XDRKtc/UT6Z5EQ4J8UDGSXFco+ZFCWFcXFKBEXw2UpKQZSY/KRIymNcyUqhgiULVFDmghockYC06lAe1m1daPVcb8VT9K0IVD50U0kqCC8k5rourj/60c3We2idNaINq+cWIuOaI0VwUlH7PIKovskWFScZWeET1MYF1vjne6yLj7/i0gNmUUpIQVy2BRgDvCXx3We5s8LxOSklozC0kBRSSn4wDpWQgigpBZGC8oM2pKzuRhueCcaOrDCIf+NkFT+SSFGlQwVUFqggHgpqYA2C0kJ2VLdmjtX94cXWTlm5e4dTWukIiCtxC2Fe5tL75DZrRfu5h1yiTdwDL9VnjzFU++aK6vvIYHA1FBda/azJVn/dWmv5BjKomvvdk2LcXQ6UkIJ4IuMqf2bX/3yT9WxfYs3Fk61hSZQ1UR5aRooUISkgDyWlIEpKQaSY/ODzOsiYllVZkRtsgycRc5QXUQGXAyroh4PkgCwtsroF06z20jJr/DFKRB5puVYro7h8cEKeg4BHaj7P7n9eY117lrusq6ZoEjIeSGyUyCu4//42GU5UX2YFSuwG3rUAbRg7vdgacVDpeP02629+OC4nXrPnF5GCckqC3+caKZb0HzwHg3WmNc2fbk2IfS2kIFpGYUgpBUFcKCkFUVIKIsXkB5/nJOUxPjKrKAg5RUUF5hBQAyVrsF0xtEFs3lSLrZ1jsSe3Wlvl/XaMt29hmUgZeShZBaG0MDhcpvZvd1r/n15pnVevssbpENfUCXFRIFg8YeSC3I+TiOqLnGBMMGtaOccaSqZYfeEEtzC18alt1vHjm60v9mD07GmQnBLf63skLikeQLYttpb506wJBygtpCBaRGGkyEgBcSghBVFCUkgx+cFnDpKUx1iW1Ztl2HlfJ2lJZSIgpmxQgTxMqMGWltIZ7gJdd9r74xdaW/UDNsDlD5SQX1xRcYMJ8kLpeLziPhv44Y3W9/Ft1sYnsqAPaicXWN0SfCayL4fappOMaschw36mmPjIdIjJZU2LplvDrWdYC2TS/dbddoxnYjk5TjzhhBGUkwdv1UJBfed667loSVxQiyAobEOqkIJoEYUhhRQE0lBCUighBZFSCoLPlZLyGD+yUig5RSUgplwJBv8I4wbuUkjkNIhr9Vyr/9TF1laFjIs3lON6HWZRSk6Z8M5QcWBx7osCe+Wg9b640zqQgTVNRvaFvqnlM+lQorqHFJAhiEzt34iwAv1EIbGM4z3HZ0+2+gJICfvDrLXxo+dZ+7f3WU9CTN6tndOWdUEZpYC/dTfzg6C+u98JqtUJagYENTwryv1IIQXB5yoZhaGkFERKKQg+W8rJRycZ37JSKDFlQ0BGQ0ENnOEG2U/9vGlWvxKD8Jb11vJPB6yHCw2PPRLPurx1PAolLT/8HQ5MDtpOfGWGUQmJ/fJ26/82BuCnL7H2WzdY80WLkJUUxs+ETQDIUGJcoc2zY9xGCM2dLeNXtIsjuB/Z4N7D/54z4488R1s0oGxumIayDdsSQ/lW/y6Ub3tXW/NjW6z9r6+y7p8esr7D99oxd791ZEpcaEkxUTBBIXmkiCgELjOgnMpx8Piji63j7HnWgoNK00IKSsWqHy2hdEghKSAMJSOFEpJCSikIPluJyY+TlMdYlxV3eHAnqY6OghJTtgghDSfBQZktaLP6xRAXFyGunWsNH9lq7Zyf4gQ9b6vCgedJaKgwi+MApcQ6Et9jRlb/YFxovGPAKzdb39dRSn15l3V+fru7vXDrwfXWfPkyazr7NGug0JDhOMllIDa30BrWIAu6aLE17od8Hthorc9cbO0vXmadf/Ue6/7791rvr++w/or7baAO28AzotxfL0tyJRy++iXkh/vifY0KRcc7R7BN/+Zq674Q5R32ibdmaVqcaQ4qGNeZkSIKA7JQMlIoGSmkkILgs5WUggySlMf4k5VCBUM2KDHlghDQyUCJi5Qis6G4eAO3M0qs8YnzrBWZhbtXOudQOIiHS14KCi0oAMqNOIEATlQ7MPCJ//vuticJ3M8TP/NwGR9wK8KBXz4K/3Zkg/tbvD/bjCc4eJH5l6+wrl3L3NnqZp7BW5wuewrGa3SkiBQQhRJROpSQgkghBcHnKyEppKQ8xqqsNiOt/zfsAHdQdWJmVNBkixLSUBCiOZmgLGvg5DHLJYIypemTF1r7b++yfq7pYgbGSzuiDPzRiBJN1mDf3Zqnx+PtwSztf+2znt0rrBXZUjPnnAgzJwzUsLjRMZkZKaIw8PlKQmEoGYUhpRQE2xCUURhSToOYZV1jVla8kBkNwh2VHQVUZ0dDBVguKCGNBEI8wwUFxqfylgLeC2njfGt6DBkYBmh3HZ94g0HrnnYDmTGb4TyYEsVwIOUxAvDhq8zIePcC7JtbMc5///wW63/2Uuvcs9yJqWkBpASpOxCLqv91fEVHxXVasB1KRGEoEYUhhRQE2xAUURhaSkEgKR+U1Z1wwKi/3GYmoKzWTTLbsmyG/e2KmdaNHZKdFoIKiOgEg3EoKOmMBoSwgniT1XwQJkXGq/tXY58uK7Pmhzdb28vXWvd/3GV99SiH3P3PMdgpNA74ZHkmJDHSeGVhZ6JsZLnrPV6M11FWPGDH/uWg9X36Euvcu9ZaN823llJIyMuWCFeNY1Cq/tQxEx0VrxnBtigJpUOJKAwpJAW2RQlJoaXkZ7CgHGWzrLdspsVmTbX3wgGerOaCKWBUvfyZ1TpwPgLnmeWzbQANlewI7Kjs0Aio4MmeYAAPJ0osowz0gbvB2+IZ1siLanndGjKzxkXTrIn3VeJgP3OeNd+ywVqfvtA6/mK3df3gBuvhgzh/h1Kz6f3xtWF8Jt+JjyagTMLgbY89+DfkYwA/Y7lWcb8de+126//hjdb7jb3W/fwO63xos7VftNhaS1GycanAgunWzAWXzI44r8RtpKCwL2H9oPs+O1QMZsQf61mgJJQOKSMFtknJSKGlFERIymPZLDuG2HoNIrgM4/9sMKplxcxqIVgLzp8x2Q5hB4+i0TqA6iQHfkd2fERUoOWGCvyTQUAoowGU8E5qEEQjszKKzYMPMeA9wiE4JzsKhNkMf9dHvPzi9xOi4VeWZjzTBgG55QBeNsTvE0poaZiE/Kj+yx0VV5FQ8RwBJaB0SBGFge1SMlJoIQURYlKsQAm4eJY9j6rq3Rj/zKyWgjmgEIyq1wQwA8wDq8F5sNduBN5fYkd60Yiq00JBI8ngyAIVlENHDZw8w49q++FBxUokVJxmgZJQOqSIwsD2KRkptJAUQkiCbsISENtRO3GiXYuxT1m9CywBs8FkMKpeBYATaZxQWw42gV0TJtiNOEq/zZ3Hzvg7Q3VoJPBeMpiyRAXyyKAG4zsN1S4jh+rvrFBxlwX+OI+KlFA6sJ1KRmFoIQXRQlI4SRGIqqdspvUsKLJnMeavBtvA6YBVFqstJFuj70WD0qQ06hmAht0/tdAe49XoiUZWHeWhOj4yaGwZeDmiBsGpQwngZKO269Sh+iwnVCxliYrlTKTIJxPYViWhMLSMFFpGiqSg/LD8WzTdXkZpdRDj/QqwGawAJWAaYNU16l406HTglYLngj3gtjnT7DNomFw7lgQDJGvw+TJYhwk1oPJkh2rXYUHFQ46o2IyCFFA6sN1KQunQMlJoGSmkoHycKC2yH8BGXFu1H1wMNoDFgCfcmMCw6hp1L24UJ9O4kdzY9eAisA/cNXWSPYVOaGNj+TpFdWxUVDDlBLZJBvkIogbreETt+4ih+nYIqJiLyiDxRAX7oCSUDi0jhZZRGEpMQY4vnmHfhajux/i+CewCGwGngTgdNGqzKu/FjfPmrsoAV7LuAFx7cd+kSfZEWZH9FjvKCTnZYUB1fi6oAMwZdLgbDPw6BlDiSKEMYJ/U348q/O0/AqjYiYqK38hgn5SA0qFFFIYWURhKSCksw9jFe/eVTLMvYUx/ANwKWEGdB1aBBaAIjMq5quCLyxhYDrJm5VoL2pZrL5ywYLMnFky3v+IOAy5rkB0ZggqYXFBBO6xg3+TAyzMY1XYjgIqBbFHxGBnsq5JPJrSEwtASSocUUgg9nJ/C57w5caJ9AmOZoroNvAecD7hkiZPqrKxYYY3K8i/44kbSqkwDmWFRWFx3sR1cD+4Bj3GHcWT/Z+x8LtIKooJrKKiAP2mgPeTAHu2ofTlJqD4cCirGsgLtoeSTCS2hdGgJhaEkFEaPByR1HPtUO7PQ/gRj9yPgIXAI7AZbwBpAUTGjoqhGdfkXfPmFxQyLJSHPEF4C9oL3gQ+BP5g80T5XCmnxIshEByQ7LxgAQ0AF5HCiBlCeoaPaerhQcZI1/njNgVT5ZEJLKB1KRGEkBUUoKXxtmlVo/x0D+mmM1yfAfeBGcDngSTSWfvMBlylwQn1Micp7UVjccC63Z2pI89LANDEn47jD3PHHwMdRO352/nR7GQHAm7O5bCuMYMAMAyqYRwo1KN9JqDYZSVR/54SKxSzRAkqHFlA6lIQykRTUMoy9lbNsAAnEz5FIPIex+UnwUfAwYNnHtVQ8ccbkg0kIqydO+zA5GROlX9jLExaNyxTxNMCykDt6IbgKMJ18EHwY0N6fQYn4hYVF9j2YvRWN15/oONX5EhVow4QaDHlOHaqPhoyKqSxJlU5UtIAyoQSUjkEZFDi2EpVN2Uz71YxJLov6HMbhp8DHwAfBHYBLE3iyjOuomE0x+eC6SiYjnKce06Lyv7gj3CFvaQPTRp7i5FwWLc1JupsBM61HwFPgD8HnJhbYs7On2J+VzrKfIJD40NReCKwHHauCJCPBwBxB1ODKEw3VnsOOio8c0eLJhBZPFJSAMuFlTr2uvJvp/v32vOn2TYwxzkV9AXwaeOUe56VuB1x6REmdAziJzmVJvEDZn02NG1H5X560vNKQ0mKmxYVkPKPAOpgGZyMx22KJ+PuAlv8s+ALe4LmCAnu+cKK9uLjIvr90lv0GDV++Yqb1urs8MBNjGRnvHNVp4cxEIJxadFCPbdR+njxUPw8BHihzxd1GJTf6ItKPzzmG7TyOUu4Es6WV8atHfldaZK/OmWpfgZiexxgif4zxxAyKguLZPQqKZ/i4wPMA4HIELvLkpXPMpHhHFU9S3tzUuJSU/8UdJJ60ODHHSfhSwDktLnVgtnUloLhuAcy4mI6yQf8APAPYyGxsHhF4XdLz4AW8MfkT8GLiq/fvPHmyB1nHmOE/4528kBgTHBscIxwrPODzwE85PQkeBe8HLPM4h8xpmUvBVsBF3ax+uG6Kd0/gybJ3jKTUizvtzWlxMSlrYF6uQ3Hxkh0uKmXDsQFpeqakvAaJdyPkylkeCdjglBgbn1kYZcbOoNAIJwgJOylPnvGGF9+E8c4y7uOAUymcc+JSg8cBz75TTFw6xIlyrnvkZDnXQHL+mBkU70VHQXE+ilkU76TCqRsmFu9YSQVfbISguFgmMuNi+slSkfUy5cXTpWxcCozZ1zWAGRhTV4qMK2pZRvJocVcCprYe7Kw8ecYD/rhmnPMgzmVBlBErEl4GcwPgciHOC1NMLO242pwVDLOnlYDJAZMEZlB5QWXx8ouLE3hsOKagPJtI23OeiwLjzb3Y0JQY57woMt6hkEcICo0ZGTuFc2F58ox3GOuMeS4N4mQ4ZcQTWDzzzlu2cN6JB33eFYWlHRMBJgScg+J0DMcaBeWNv/xrCC9PYGxQZl+UGDMwNjbnvdjwlBk7gUskeKSg2Ag7J0+e8YoX54x5xj7HANc/MVPi2GC2xAM+pcRxkxfTKX55De9JLU+edyr+sZB/5V/5V/6Vf+Vf+Vf+lX/lX/lX/pV/5V/5V/6Vf+Vf+Vf+lX/lX/nXO/dl9v8BiaNi2Zu594IAAAAASUVORK5CYII=;" vertex="1" parent="1">
          <mxGeometry x="170" y="449.5" width="79" height="79" as="geometry" />
        </mxCell>
      </root>
    </mxGraphModel>
  </diagram>
</mxfile>
